STARTFONT 2.1
COMMENT
COMMENT Converted from OpenType font "PixelifySans-Regular.ttf" by "otf2bdf 3.0".
COMMENT
FONT -FreeType-Pixelify Sans-Medium-R-Normal--66-480-100-100-P-303-ISO10646-1
SIZE 48 100 100
FONTBOUNDINGBOX 79 79 -3 -17
STARTPROPERTIES 19
FOUNDRY "FreeType"
FAMILY_NAME "Pixelify Sans"
WEIGHT_NAME "Medium"
SLANT "R"
SETWIDTH_NAME "Normal"
ADD_STYLE_NAME ""
PIXEL_SIZE 66
POINT_SIZE 480
RESOLUTION_X 100
RESOLUTION_Y 100
SPACING "P"
AVERAGE_WIDTH 303
CHARSET_REGISTRY "ISO10646"
CHARSET_ENCODING "1"
FONT_ASCENT 61
FONT_DESCENT 18
COPYRIGHT "Copyright 2021 The Pixelify Sans Project Authors (https://github.com/eifetx/Pixelify-Sans)"
_OTF_FONTFILE "PixelifySans-Regular.ttf"
_OTF_PSNAME "PixelifySans-Regular"
ENDPROPERTIES
CHARS 574
STARTCHAR 0020
ENCODING 32
SWIDTH 195 0
DWIDTH 13 0
BBX 0 0 0 0
BITMAP
ENDCHAR
STARTCHAR 0021
ENCODING 33
SWIDTH 225 0
DWIDTH 15 0
BBX 7 43 4 -1
BITMAP
FE
FE
FE
FE
FE
FE
FE
FE
FE
FE
FE
FE
FE
FE
FE
FE
FE
FE
FE
FE
FE
FE
FE
FE
FE
FE
FE
FE
FE
FE
FE
00
00
00
00
00
FE
FE
FE
FE
FE
FE
FE
ENDCHAR
STARTCHAR 0022
ENCODING 34
SWIDTH 465 0
DWIDTH 31 0
BBX 23 13 4 29
BITMAP
FE07F0
FE07F0
FE07F0
FE07F0
FE07F0
FE07F0
FFC7FE
03C01E
03C01E
1FC0FE
1E00F0
1E00F0
1E00F0
ENDCHAR
STARTCHAR 0023
ENCODING 35
SWIDTH 675 0
DWIDTH 45 0
BBX 37 43 4 -1
BITMAP
03F800FE00
03F800FE00
03F800FE00
03F800FE00
03F800FE00
03F800FE00
03F800FE00
03F800FE00
03F800FE00
03F800FE00
03F800FE00
03F800FE00
FFFFFFFFF8
FFFFFFFFF8
FFFFFFFFF8
FFFFFFFFF8
FFFFFFFFF8
FFFFFFFFF8
FFFFFFFFF8
03F800FE00
03F800FE00
03F800FE00
03F800FE00
03F800FE00
03F800FE00
03F800FE00
03F800FE00
03F800FE00
03F800FE00
03F800FE00
FFFFFFFFF8
FFFFFFFFF8
FFFFFFFFF8
FFFFFFFFF8
FFFFFFFFF8
FFFFFFFFF8
FFFFFFFFF8
03F800FE00
03F800FE00
03F800FE00
03F800FE00
03F800FE00
03F800FE00
ENDCHAR
STARTCHAR 0024
ENCODING 36
SWIDTH 585 0
DWIDTH 39 0
BBX 31 55 4 -7
BITMAP
0007E000
0007E000
0007E000
0007E000
0007E000
0007E000
03FFFF80
03FFFF80
03FFFF80
03FFFF80
03FFFF80
03FFFF80
FFFFFFFE
FE0000FE
FE0000FE
FE0000FE
FE0000FE
FE0000FE
FE0000FE
FE000000
FE000000
FE000000
FE000000
FE000000
FFFFFF80
03FFFF80
03FFFF80
03FFFF80
03FFFF80
03FFFF80
03FFFFFE
000000FE
000000FE
000000FE
000000FE
000000FE
FE0000FE
FE0000FE
FE0000FE
FE0000FE
FE0000FE
FE0000FE
FFFFFFFE
03FFFF80
03FFFF80
03FFFF80
03FFFF80
03FFFF80
03FFFF80
0007E000
0007E000
0007E000
0007E000
0007E000
0007E000
ENDCHAR
STARTCHAR 0025
ENCODING 37
SWIDTH 870 0
DWIDTH 58 0
BBX 50 43 4 -1
BITMAP
03F8000000FC00
03F8000000FC00
03F8000000FC00
03F8000000FC00
03F8000000FC00
03F8000000FC00
FFFFE0003FFC00
FFFFE0003F0000
FFFFE0003F0000
FFFFE0003F0000
FFFFE0003F0000
FFFFE0003F0000
FFFFE00FFF0000
03F8000FC00000
03F8000FC00000
03F8000FC00000
03F8000FC00000
03F8000FC00000
03F803FFC00000
000003F0000000
000003F0000000
000003F0000000
000003F0000000
000003F0000000
0001FFF007F000
0001FC0007F000
0001FC0007F000
0001FC0007F000
0001FC0007F000
0001FC0007F000
007FFC01FFFFC0
007F0001FFFFC0
007F0001FFFFC0
007F0001FFFFC0
007F0001FFFFC0
007F0001FFFFC0
1FFF0001FFFFC0
1FC0000007F000
1FC0000007F000
1FC0000007F000
1FC0000007F000
1FC0000007F000
1FC0000007F000
ENDCHAR
STARTCHAR 0026
ENCODING 38
SWIDTH 675 0
DWIDTH 45 0
BBX 37 43 4 -1
BITMAP
03FFFF8000
03FFFF8000
03FFFF8000
03FFFF8000
03FFFF8000
03FFFF8000
FFFFFFFE00
FE0000FE00
FE0000FE00
FE0000FE00
FE0000FE00
FE0000FE00
FFF83FFE00
03F83F8000
03F83F8000
03F83F8000
03F83F8000
03F83F8000
03FFFF8000
000FE00000
000FE00000
000FE00000
000FE00000
000FE00000
03FFFF8000
03F83F8000
03F83F8000
03F83F8000
03F83F8000
03F83F8000
FFF83FFE00
FE0000FE00
FE0000FE00
FE0000FE00
FE0000FE00
FE0000FE00
FFFFFFFFF8
03FFFF83F8
03FFFF83F8
03FFFF83F8
03FFFF83F8
03FFFF83F8
03FFFF83F8
ENDCHAR
STARTCHAR 0027
ENCODING 39
SWIDTH 270 0
DWIDTH 18 0
BBX 10 13 4 29
BITMAP
FE00
FE00
FE00
FE00
FE00
FE00
FFC0
03C0
03C0
1FC0
1E00
1E00
1E00
ENDCHAR
STARTCHAR 0028
ENCODING 40
SWIDTH 375 0
DWIDTH 25 0
BBX 19 61 4 -11
BITMAP
000FE0
000FE0
000FE0
000FE0
000FE0
000FE0
000FE0
000FE0
000FE0
000FE0
000FE0
000FE0
03F800
03F800
03F800
03F800
03F800
03F800
03F800
03F800
03F800
03F800
03F800
03F800
FE0000
FE0000
FE0000
FE0000
FE0000
FE0000
FE0000
FE0000
FE0000
FE0000
FE0000
FE0000
03F800
03F800
03F800
03F800
03F800
03F800
03F800
03F800
03F800
03F800
03F800
03F800
000FE0
000FE0
000FE0
000FE0
000FE0
000FE0
000FE0
000FE0
000FE0
000FE0
000FE0
000FE0
000FE0
ENDCHAR
STARTCHAR 0029
ENCODING 41
SWIDTH 375 0
DWIDTH 25 0
BBX 19 61 2 -11
BITMAP
FE0000
FE0000
FE0000
FE0000
FE0000
FE0000
FE0000
FE0000
FE0000
FE0000
FE0000
FE0000
03F800
03F800
03F800
03F800
03F800
03F800
03F800
03F800
03F800
03F800
03F800
03F800
000FE0
000FE0
000FE0
000FE0
000FE0
000FE0
000FE0
000FE0
000FE0
000FE0
000FE0
000FE0
03F800
03F800
03F800
03F800
03F800
03F800
03F800
03F800
03F800
03F800
03F800
03F800
FE0000
FE0000
FE0000
FE0000
FE0000
FE0000
FE0000
FE0000
FE0000
FE0000
FE0000
FE0000
FE0000
ENDCHAR
STARTCHAR 002A
ENCODING 42
SWIDTH 270 0
DWIDTH 18 0
BBX 10 13 4 29
BITMAP
1E00
1E00
1E00
FFC0
FFC0
FFC0
FFC0
1E00
1E00
FFC0
F3C0
F3C0
F3C0
ENDCHAR
STARTCHAR 002B
ENCODING 43
SWIDTH 600 0
DWIDTH 40 0
BBX 31 31 4 6
BITMAP
0007E000
0007E000
0007E000
0007E000
0007E000
0007E000
0007E000
0007E000
0007E000
0007E000
0007E000
0007E000
0007E000
FFFFFFFE
FFFFFFFE
FFFFFFFE
FFFFFFFE
FFFFFFFE
FFFFFFFE
FFFFFFFE
0007E000
0007E000
0007E000
0007E000
0007E000
0007E000
0007E000
0007E000
0007E000
0007E000
0007E000
ENDCHAR
STARTCHAR 002C
ENCODING 44
SWIDTH 270 0
DWIDTH 18 0
BBX 10 13 4 -6
BITMAP
FE00
FE00
FE00
FE00
FE00
FE00
FFC0
03C0
03C0
1FC0
1E00
1E00
1E00
ENDCHAR
STARTCHAR 002D
ENCODING 45
SWIDTH 330 0
DWIDTH 22 0
BBX 18 7 2 13
BITMAP
FFFFC0
FFFFC0
FFFFC0
FFFFC0
FFFFC0
FFFFC0
FFFFC0
ENDCHAR
STARTCHAR 002E
ENCODING 46
SWIDTH 225 0
DWIDTH 15 0
BBX 7 7 4 0
BITMAP
FE
FE
FE
FE
FE
FE
FE
ENDCHAR
STARTCHAR 002F
ENCODING 47
SWIDTH 525 0
DWIDTH 35 0
BBX 27 43 4 -1
BITMAP
000007E0
00000FC0
00000FC0
00001F80
00001F80
00003F00
00003F00
00007E00
00007E00
0000FC00
0000FC00
0001F800
0001F800
0003F000
0003F000
0007E000
0007E000
000FC000
000FC000
000F8000
001F8000
001F0000
003F0000
003E0000
007E0000
007E0000
00FC0000
00FC0000
01F80000
01F80000
03F00000
03F00000
07E00000
07E00000
0FC00000
0FC00000
1F800000
1F800000
3F000000
3F000000
7E000000
7E000000
FC000000
ENDCHAR
STARTCHAR 0030
ENCODING 48
SWIDTH 585 0
DWIDTH 39 0
BBX 31 43 4 -1
BITMAP
03FFFF80
03FFFF80
03FFFF80
03FFFF80
03FFFF80
03FFFF80
FFFFFFFE
FE0000FE
FE0000FE
FE0000FE
FE0000FE
FE0000FE
FE0000FE
FE0000FE
FE0000FE
FE0000FE
FE0000FE
FE0000FE
FE0000FE
FE0000FE
FE0000FE
FE0000FE
FE0000FE
FE0000FE
FE0000FE
FE0000FE
FE0000FE
FE0000FE
FE0000FE
FE0000FE
FE0000FE
FE0000FE
FE0000FE
FE0000FE
FE0000FE
FE0000FE
FFFFFFFE
03FFFF80
03FFFF80
03FFFF80
03FFFF80
03FFFF80
03FFFF80
ENDCHAR
STARTCHAR 0031
ENCODING 49
SWIDTH 405 0
DWIDTH 27 0
BBX 19 43 4 -1
BITMAP
03F800
03F800
03F800
03F800
03F800
03F800
FFFFE0
FE0FE0
FE0FE0
FE0FE0
FE0FE0
FE0FE0
FE0FE0
000FE0
000FE0
000FE0
000FE0
000FE0
000FE0
000FE0
000FE0
000FE0
000FE0
000FE0
000FE0
000FE0
000FE0
000FE0
000FE0
000FE0
000FE0
000FE0
000FE0
000FE0
000FE0
000FE0
000FE0
000FE0
000FE0
000FE0
000FE0
000FE0
000FE0
ENDCHAR
STARTCHAR 0032
ENCODING 50
SWIDTH 585 0
DWIDTH 39 0
BBX 31 43 4 -1
BITMAP
03FFFF80
03FFFF80
03FFFF80
03FFFF80
03FFFF80
03FFFF80
FFFFFFFE
FE0000FE
FE0000FE
FE0000FE
FE0000FE
FE0000FE
FE0000FE
000000FE
000000FE
000000FE
000000FE
000000FE
03FFFFFE
03FFFF80
03FFFF80
03FFFF80
03FFFF80
03FFFF80
FFFFFF80
FE000000
FE000000
FE000000
FE000000
FE000000
FE0000FE
FE0000FE
FE0000FE
FE0000FE
FE0000FE
FE0000FE
FFFFFFFE
03FFFF80
03FFFF80
03FFFF80
03FFFF80
03FFFF80
03FFFF80
ENDCHAR
STARTCHAR 0033
ENCODING 51
SWIDTH 585 0
DWIDTH 39 0
BBX 31 43 4 -1
BITMAP
03FFFF80
03FFFF80
03FFFF80
03FFFF80
03FFFF80
03FFFF80
FFFFFFFE
FE0000FE
FE0000FE
FE0000FE
FE0000FE
FE0000FE
FE0000FE
000000FE
000000FE
000000FE
000000FE
000000FE
03FFFFFE
03FFFF80
03FFFF80
03FFFF80
03FFFF80
03FFFF80
03FFFFFE
000000FE
000000FE
000000FE
000000FE
000000FE
FE0000FE
FE0000FE
FE0000FE
FE0000FE
FE0000FE
FE0000FE
FFFFFFFE
03FFFF80
03FFFF80
03FFFF80
03FFFF80
03FFFF80
03FFFF80
ENDCHAR
STARTCHAR 0034
ENCODING 52
SWIDTH 585 0
DWIDTH 39 0
BBX 31 43 4 -1
BITMAP
00003FFE
00003FFE
00003FFE
00003FFE
00003FFE
00003FFE
000FFFFE
000FE0FE
000FE0FE
000FE0FE
000FE0FE
000FE0FE
03FFE0FE
03F800FE
03F800FE
03F800FE
03F800FE
03F800FE
FFF800FE
FE0000FE
FE0000FE
FE0000FE
FE0000FE
FE0000FE
FFFFFFFE
FFFFFFFE
FFFFFFFE
FFFFFFFE
FFFFFFFE
FFFFFFFE
FFFFFFFE
000000FE
000000FE
000000FE
000000FE
000000FE
000000FE
000000FE
000000FE
000000FE
000000FE
000000FE
000000FE
ENDCHAR
STARTCHAR 0035
ENCODING 53
SWIDTH 585 0
DWIDTH 39 0
BBX 31 43 4 -1
BITMAP
03FFFF80
03FFFF80
03FFFF80
03FFFF80
03FFFF80
03FFFF80
FFFFFFFE
FE0000FE
FE0000FE
FE0000FE
FE0000FE
FE0000FE
FE0000FE
FE0000FE
FE0000FE
FE0000FE
FE0000FE
FE0000FE
FFF800FE
03F80000
03F80000
03F80000
03F80000
03F80000
03FFFF80
000FFF80
000FFF80
000FFF80
000FFF80
000FFF80
FE0FFFFE
FE0000FE
FE0000FE
FE0000FE
FE0000FE
FE0000FE
FFFFFFFE
03FFFF80
03FFFF80
03FFFF80
03FFFF80
03FFFF80
03FFFF80
ENDCHAR
STARTCHAR 0036
ENCODING 54
SWIDTH 585 0
DWIDTH 39 0
BBX 31 43 4 -1
BITMAP
03FFFF80
03FFFF80
03FFFF80
03FFFF80
03FFFF80
03FFFF80
FFFFFFFE
FE0000FE
FE0000FE
FE0000FE
FE0000FE
FE0000FE
FE0000FE
FE000000
FE000000
FE000000
FE000000
FE000000
FFFFFF80
FFFFFF80
FFFFFF80
FFFFFF80
FFFFFF80
FFFFFF80
FFFFFFFE
FE0000FE
FE0000FE
FE0000FE
FE0000FE
FE0000FE
FE0000FE
FE0000FE
FE0000FE
FE0000FE
FE0000FE
FE0000FE
FFFFFFFE
03FFFF80
03FFFF80
03FFFF80
03FFFF80
03FFFF80
03FFFF80
ENDCHAR
STARTCHAR 0037
ENCODING 55
SWIDTH 585 0
DWIDTH 39 0
BBX 31 43 4 -1
BITMAP
03FFFF80
03FFFF80
03FFFF80
03FFFF80
03FFFF80
03FFFF80
FFFFFFFE
FE0000FE
FE0000FE
FE0000FE
FE0000FE
FE0000FE
FE0000FE
000000FE
000000FE
000000FE
000000FE
000000FE
000000FE
000000FE
000000FE
000000FE
000000FE
000000FE
000000FE
000000FE
000000FE
000000FE
000000FE
000000FE
000000FE
000000FE
000000FE
000000FE
000000FE
000000FE
000000FE
000000FE
000000FE
000000FE
000000FE
000000FE
000000FE
ENDCHAR
STARTCHAR 0038
ENCODING 56
SWIDTH 585 0
DWIDTH 39 0
BBX 31 43 4 -1
BITMAP
03FFFF80
03FFFF80
03FFFF80
03FFFF80
03FFFF80
03FFFF80
FFFFFFFE
FE0000FE
FE0000FE
FE0000FE
FE0000FE
FE0000FE
FE0000FE
FE0000FE
FE0000FE
FE0000FE
FE0000FE
FE0000FE
FFFFFFFE
03FFFF80
03FFFF80
03FFFF80
03FFFF80
03FFFF80
FFFFFFFE
FE0000FE
FE0000FE
FE0000FE
FE0000FE
FE0000FE
FE0000FE
FE0000FE
FE0000FE
FE0000FE
FE0000FE
FE0000FE
FFFFFFFE
03FFFF80
03FFFF80
03FFFF80
03FFFF80
03FFFF80
03FFFF80
ENDCHAR
STARTCHAR 0039
ENCODING 57
SWIDTH 585 0
DWIDTH 39 0
BBX 31 43 4 -1
BITMAP
03FFFF80
03FFFF80
03FFFF80
03FFFF80
03FFFF80
03FFFF80
FFFFFFFE
FE0000FE
FE0000FE
FE0000FE
FE0000FE
FE0000FE
FE0000FE
FE0000FE
FE0000FE
FE0000FE
FE0000FE
FE0000FE
FFFFFFFE
03FFFFFE
03FFFFFE
03FFFFFE
03FFFFFE
03FFFFFE
03FFFFFE
000000FE
000000FE
000000FE
000000FE
000000FE
FE0000FE
FE0000FE
FE0000FE
FE0000FE
FE0000FE
FE0000FE
FFFFFFFE
03FFFF80
03FFFF80
03FFFF80
03FFFF80
03FFFF80
03FFFF80
ENDCHAR
STARTCHAR 003A
ENCODING 58
SWIDTH 225 0
DWIDTH 15 0
BBX 7 19 4 5
BITMAP
FE
FE
FE
FE
FE
FE
FE
00
00
00
00
00
FE
FE
FE
FE
FE
FE
FE
ENDCHAR
STARTCHAR 003B
ENCODING 59
SWIDTH 270 0
DWIDTH 18 0
BBX 10 25 4 -1
BITMAP
FE00
FE00
FE00
FE00
FE00
FE00
FE00
0000
0000
0000
0000
0000
FE00
FE00
FE00
FE00
FE00
FE00
FFC0
03C0
03C0
1FC0
1E00
1E00
1E00
ENDCHAR
STARTCHAR 003C
ENCODING 60
SWIDTH 600 0
DWIDTH 40 0
BBX 31 55 4 -7
BITMAP
0000007E
0000007E
0000007E
0000007E
0000007E
0000007E
00001FFE
00001F80
00001F80
00001F80
00001F80
00001F80
0007FF80
0007E000
0007E000
0007E000
0007E000
0007E000
01FFE000
01F80000
01F80000
01F80000
01F80000
01F80000
FFF80000
FE000000
FE000000
FE000000
FE000000
FE000000
FFF80000
01F80000
01F80000
01F80000
01F80000
01F80000
01FFE000
0007E000
0007E000
0007E000
0007E000
0007E000
0007FF80
00001F80
00001F80
00001F80
00001F80
00001F80
00001FFE
0000007E
0000007E
0000007E
0000007E
0000007E
0000007E
ENDCHAR
STARTCHAR 003D
ENCODING 61
SWIDTH 600 0
DWIDTH 40 0
BBX 26 17 7 9
BITMAP
FFFFFFC0
FFFFFFC0
FFFFFFC0
FFFFFFC0
FFFFFFC0
FFFFFFC0
FFFFFFC0
00000000
00000000
00000000
FFFFFFC0
FFFFFFC0
FFFFFFC0
FFFFFFC0
FFFFFFC0
FFFFFFC0
FFFFFFC0
ENDCHAR
STARTCHAR 003E
ENCODING 62
SWIDTH 600 0
DWIDTH 40 0
BBX 31 55 4 -7
BITMAP
FE000000
FE000000
FE000000
FE000000
FE000000
FE000000
FFF80000
01F80000
01F80000
01F80000
01F80000
01F80000
01FFE000
0007E000
0007E000
0007E000
0007E000
0007E000
0007FF80
00001F80
00001F80
00001F80
00001F80
00001F80
00001FFE
0000007E
0000007E
0000007E
0000007E
0000007E
00001FFE
00001F80
00001F80
00001F80
00001F80
00001F80
0007FF80
0007E000
0007E000
0007E000
0007E000
0007E000
01FFE000
01F80000
01F80000
01F80000
01F80000
01F80000
FFF80000
FE000000
FE000000
FE000000
FE000000
FE000000
FE000000
ENDCHAR
STARTCHAR 003F
ENCODING 63
SWIDTH 585 0
DWIDTH 39 0
BBX 31 43 4 -1
BITMAP
03FFFF80
03FFFF80
03FFFF80
03FFFF80
03FFFF80
03FFFF80
FFFFFFFE
FE0000FE
FE0000FE
FE0000FE
FE0000FE
FE0000FE
FE0000FE
FE0000FE
FE0000FE
FE0000FE
FE0000FE
FE0000FE
FE0FFFFE
000FFF80
000FFF80
000FFF80
000FFF80
000FFF80
000FFF80
000FE000
000FE000
000FE000
000FE000
000FE000
000FE000
00000000
00000000
00000000
00000000
00000000
000FE000
000FE000
000FE000
000FE000
000FE000
000FE000
000FE000
ENDCHAR
STARTCHAR 0040
ENCODING 64
SWIDTH 585 0
DWIDTH 39 0
BBX 31 28 4 4
BITMAP
03FFFC00
03FFFC00
03FFFC00
1FFFFF80
1E000780
1E000780
FE0007F0
F00000F0
F00000F0
F03FE0FE
F03FE01E
F1FFFC1E
F1E01C1E
F1E01C1E
F1E01C1E
F1E01CFE
F1E01CF0
F1E01CF0
F1E01CF0
F03FE780
F03FE780
FE3FE780
1E000000
1E000000
1FFFE000
03FFE000
03FFE000
03FFE000
ENDCHAR
STARTCHAR 0041
ENCODING 65
SWIDTH 585 0
DWIDTH 39 0
BBX 31 43 4 -1
BITMAP
000FE000
000FE000
000FE000
000FE000
000FE000
000FE000
03FFFF80
03F83F80
03F83F80
03F83F80
03F83F80
03F83F80
FFF83FFE
FE0000FE
FE0000FE
FE0000FE
FE0000FE
FE0000FE
FE0000FE
FE0000FE
FE0000FE
FE0000FE
FE0000FE
FE0000FE
FFFFFFFE
FFFFFFFE
FFFFFFFE
FFFFFFFE
FFFFFFFE
FFFFFFFE
FFFFFFFE
FE0000FE
FE0000FE
FE0000FE
FE0000FE
FE0000FE
FE0000FE
FE0000FE
FE0000FE
FE0000FE
FE0000FE
FE0000FE
FE0000FE
ENDCHAR
STARTCHAR 0042
ENCODING 66
SWIDTH 585 0
DWIDTH 39 0
BBX 31 43 4 -1
BITMAP
03FFFF80
03FFFF80
03FFFF80
03FFFF80
03FFFF80
03FFFF80
FFFFFFFE
FE0000FE
FE0000FE
FE0000FE
FE0000FE
FE0000FE
FE0000FE
FE0000FE
FE0000FE
FE0000FE
FE0000FE
FE0000FE
FE0FFFFE
FE0FFF80
FE0FFF80
FE0FFF80
FE0FFF80
FE0FFF80
FE0FFFFE
FE0000FE
FE0000FE
FE0000FE
FE0000FE
FE0000FE
FE0000FE
FE0000FE
FE0000FE
FE0000FE
FE0000FE
FE0000FE
FFFFFFFE
03FFFF80
03FFFF80
03FFFF80
03FFFF80
03FFFF80
03FFFF80
ENDCHAR
STARTCHAR 0043
ENCODING 67
SWIDTH 585 0
DWIDTH 39 0
BBX 31 43 4 -1
BITMAP
03FFFF80
03FFFF80
03FFFF80
03FFFF80
03FFFF80
03FFFF80
FFFFFFFE
FE0000FE
FE0000FE
FE0000FE
FE0000FE
FE0000FE
FE0000FE
FE0000FE
FE0000FE
FE0000FE
FE0000FE
FE0000FE
FE0000FE
FE000000
FE000000
FE000000
FE000000
FE000000
FE0000FE
FE0000FE
FE0000FE
FE0000FE
FE0000FE
FE0000FE
FE0000FE
FE0000FE
FE0000FE
FE0000FE
FE0000FE
FE0000FE
FFFFFFFE
03FFFF80
03FFFF80
03FFFF80
03FFFF80
03FFFF80
03FFFF80
ENDCHAR
STARTCHAR 0044
ENCODING 68
SWIDTH 585 0
DWIDTH 39 0
BBX 31 43 4 -1
BITMAP
FFFFE000
FFFFE000
FFFFE000
FFFFE000
FFFFE000
FFFFE000
FFFFFF80
FE003F80
FE003F80
FE003F80
FE003F80
FE003F80
FE003FFE
FE0000FE
FE0000FE
FE0000FE
FE0000FE
FE0000FE
FE0000FE
FE0000FE
FE0000FE
FE0000FE
FE0000FE
FE0000FE
FE0000FE
FE0000FE
FE0000FE
FE0000FE
FE0000FE
FE0000FE
FE003FFE
FE003F80
FE003F80
FE003F80
FE003F80
FE003F80
FFFFFF80
FFFFE000
FFFFE000
FFFFE000
FFFFE000
FFFFE000
FFFFE000
ENDCHAR
STARTCHAR 0045
ENCODING 69
SWIDTH 585 0
DWIDTH 39 0
BBX 31 43 4 -1
BITMAP
03FFFF80
03FFFF80
03FFFF80
03FFFF80
03FFFF80
03FFFF80
FFFFFFFE
FE0000FE
FE0000FE
FE0000FE
FE0000FE
FE0000FE
FE0000FE
FE000000
FE000000
FE000000
FE000000
FE000000
FFFFE000
FFFFE000
FFFFE000
FFFFE000
FFFFE000
FFFFE000
FFFFE000
FE000000
FE000000
FE000000
FE000000
FE000000
FE0000FE
FE0000FE
FE0000FE
FE0000FE
FE0000FE
FE0000FE
FFFFFFFE
03FFFF80
03FFFF80
03FFFF80
03FFFF80
03FFFF80
03FFFF80
ENDCHAR
STARTCHAR 0046
ENCODING 70
SWIDTH 585 0
DWIDTH 39 0
BBX 31 43 4 -1
BITMAP
FFFFFF80
FFFFFF80
FFFFFF80
FFFFFF80
FFFFFF80
FFFFFF80
FFFFFFFE
FE0000FE
FE0000FE
FE0000FE
FE0000FE
FE0000FE
FE0000FE
FE000000
FE000000
FE000000
FE000000
FE000000
FFFFE000
FFFFE000
FFFFE000
FFFFE000
FFFFE000
FFFFE000
FFFFE000
FE000000
FE000000
FE000000
FE000000
FE000000
FE000000
FE000000
FE000000
FE000000
FE000000
FE000000
FE000000
FE000000
FE000000
FE000000
FE000000
FE000000
FE000000
ENDCHAR
STARTCHAR 0047
ENCODING 71
SWIDTH 585 0
DWIDTH 39 0
BBX 31 43 4 -1
BITMAP
03FFFF80
03FFFF80
03FFFF80
03FFFF80
03FFFF80
03FFFF80
FFFFFFFE
FE0000FE
FE0000FE
FE0000FE
FE0000FE
FE0000FE
FE0000FE
FE0000FE
FE0000FE
FE0000FE
FE0000FE
FE0000FE
FE0FE0FE
FE0FE000
FE0FE000
FE0FE000
FE0FE000
FE0FE000
FE0FFFFE
FE003FFE
FE003FFE
FE003FFE
FE003FFE
FE003FFE
FE003FFE
FE0000FE
FE0000FE
FE0000FE
FE0000FE
FE0000FE
FFFFFFFE
03FFFF80
03FFFF80
03FFFF80
03FFFF80
03FFFF80
03FFFF80
ENDCHAR
STARTCHAR 0048
ENCODING 72
SWIDTH 585 0
DWIDTH 39 0
BBX 31 43 4 -1
BITMAP
FE0000FE
FE0000FE
FE0000FE
FE0000FE
FE0000FE
FE0000FE
FE0000FE
FE0000FE
FE0000FE
FE0000FE
FE0000FE
FE0000FE
FE0FE0FE
FE0FE0FE
FE0FE0FE
FE0FE0FE
FE0FE0FE
FE0FE0FE
FFFFFFFE
FFFFFFFE
FFFFFFFE
FFFFFFFE
FFFFFFFE
FFFFFFFE
FFFFFFFE
FE0000FE
FE0000FE
FE0000FE
FE0000FE
FE0000FE
FE0000FE
FE0000FE
FE0000FE
FE0000FE
FE0000FE
FE0000FE
FE0000FE
FE0000FE
FE0000FE
FE0000FE
FE0000FE
FE0000FE
FE0000FE
ENDCHAR
STARTCHAR 0049
ENCODING 73
SWIDTH 405 0
DWIDTH 27 0
BBX 19 43 4 -1
BITMAP
FFFFE0
FFFFE0
FFFFE0
FFFFE0
FFFFE0
FFFFE0
FFFFE0
03F800
03F800
03F800
03F800
03F800
03F800
03F800
03F800
03F800
03F800
03F800
03F800
03F800
03F800
03F800
03F800
03F800
03F800
03F800
03F800
03F800
03F800
03F800
03F800
03F800
03F800
03F800
03F800
03F800
FFFFE0
FFFFE0
FFFFE0
FFFFE0
FFFFE0
FFFFE0
FFFFE0
ENDCHAR
STARTCHAR 004A
ENCODING 74
SWIDTH 585 0
DWIDTH 39 0
BBX 31 43 4 -1
BITMAP
03FFFF80
03FFFF80
03FFFF80
03FFFF80
03FFFF80
03FFFF80
03FFFFFE
000000FE
000000FE
000000FE
000000FE
000000FE
000000FE
000000FE
000000FE
000000FE
000000FE
000000FE
000000FE
000000FE
000000FE
000000FE
000000FE
000000FE
FE0000FE
FE0000FE
FE0000FE
FE0000FE
FE0000FE
FE0000FE
FE0000FE
FE0000FE
FE0000FE
FE0000FE
FE0000FE
FE0000FE
FFFFFFFE
03FFFF80
03FFFF80
03FFFF80
03FFFF80
03FFFF80
03FFFF80
ENDCHAR
STARTCHAR 004B
ENCODING 75
SWIDTH 585 0
DWIDTH 39 0
BBX 31 43 4 -1
BITMAP
03F800FE
03F800FE
03F800FE
03F800FE
03F800FE
03F800FE
FFF83FFE
FE003F80
FE003F80
FE003F80
FE003F80
FE003F80
FE0FFF80
FE0FE000
FE0FE000
FE0FE000
FE0FE000
FE0FE000
FFFFE000
FFF80000
FFF80000
FFF80000
FFF80000
FFF80000
FFFFE000
FE0FE000
FE0FE000
FE0FE000
FE0FE000
FE0FE000
FE0FFF80
FE003F80
FE003F80
FE003F80
FE003F80
FE003F80
FE003FFE
FE0000FE
FE0000FE
FE0000FE
FE0000FE
FE0000FE
FE0000FE
ENDCHAR
STARTCHAR 004C
ENCODING 76
SWIDTH 585 0
DWIDTH 39 0
BBX 31 43 4 -1
BITMAP
FE000000
FE000000
FE000000
FE000000
FE000000
FE000000
FE000000
FE000000
FE000000
FE000000
FE000000
FE000000
FE000000
FE000000
FE000000
FE000000
FE000000
FE000000
FE000000
FE000000
FE000000
FE000000
FE000000
FE000000
FE000000
FE000000
FE000000
FE000000
FE000000
FE000000
FE0000FE
FE0000FE
FE0000FE
FE0000FE
FE0000FE
FE0000FE
FFFFFFFE
03FFFF80
03FFFF80
03FFFF80
03FFFF80
03FFFF80
03FFFF80
ENDCHAR
STARTCHAR 004D
ENCODING 77
SWIDTH 765 0
DWIDTH 51 0
BBX 43 43 4 -1
BITMAP
03F80003F800
03F80003F800
03F80003F800
03F80003F800
03F80003F800
03F80003F800
FFFFE0FFFFE0
FE0FE0FE0FE0
FE0FE0FE0FE0
FE0FE0FE0FE0
FE0FE0FE0FE0
FE0FE0FE0FE0
FE0FE0FE0FE0
FE0FE0FE0FE0
FE0FE0FE0FE0
FE0FE0FE0FE0
FE0FE0FE0FE0
FE0FE0FE0FE0
FE0FFFFE0FE0
FE003F800FE0
FE003F800FE0
FE003F800FE0
FE003F800FE0
FE003F800FE0
FE003F800FE0
FE003F800FE0
FE003F800FE0
FE003F800FE0
FE003F800FE0
FE003F800FE0
FE003F800FE0
FE003F800FE0
FE003F800FE0
FE003F800FE0
FE003F800FE0
FE003F800FE0
FE003F800FE0
FE0000000FE0
FE0000000FE0
FE0000000FE0
FE0000000FE0
FE0000000FE0
FE0000000FE0
ENDCHAR
STARTCHAR 004E
ENCODING 78
SWIDTH 585 0
DWIDTH 39 0
BBX 31 43 4 -1
BITMAP
FE0000FE
FE0000FE
FE0000FE
FE0000FE
FE0000FE
FE0000FE
FFF800FE
FFF800FE
FFF800FE
FFF800FE
FFF800FE
FFF800FE
FFFFE0FE
FE0FE0FE
FE0FE0FE
FE0FE0FE
FE0FE0FE
FE0FE0FE
FE0FE0FE
FE0FE0FE
FE0FE0FE
FE0FE0FE
FE0FE0FE
FE0FE0FE
FE0FE0FE
FE0FE0FE
FE0FE0FE
FE0FE0FE
FE0FE0FE
FE0FE0FE
FE0FFFFE
FE003FFE
FE003FFE
FE003FFE
FE003FFE
FE003FFE
FE003FFE
FE0000FE
FE0000FE
FE0000FE
FE0000FE
FE0000FE
FE0000FE
ENDCHAR
STARTCHAR 004F
ENCODING 79
SWIDTH 585 0
DWIDTH 39 0
BBX 31 43 4 -1
BITMAP
03FFFF80
03FFFF80
03FFFF80
03FFFF80
03FFFF80
03FFFF80
FFFFFFFE
FE0000FE
FE0000FE
FE0000FE
FE0000FE
FE0000FE
FE0000FE
FE0000FE
FE0000FE
FE0000FE
FE0000FE
FE0000FE
FE0000FE
FE0000FE
FE0000FE
FE0000FE
FE0000FE
FE0000FE
FE0000FE
FE0000FE
FE0000FE
FE0000FE
FE0000FE
FE0000FE
FE0000FE
FE0000FE
FE0000FE
FE0000FE
FE0000FE
FE0000FE
FFFFFFFE
03FFFF80
03FFFF80
03FFFF80
03FFFF80
03FFFF80
03FFFF80
ENDCHAR
STARTCHAR 0050
ENCODING 80
SWIDTH 585 0
DWIDTH 39 0
BBX 31 43 4 -1
BITMAP
03FFFF80
03FFFF80
03FFFF80
03FFFF80
03FFFF80
03FFFF80
FFFFFFFE
FE0000FE
FE0000FE
FE0000FE
FE0000FE
FE0000FE
FE0000FE
FE0000FE
FE0000FE
FE0000FE
FE0000FE
FE0000FE
FE0000FE
FE0000FE
FE0000FE
FE0000FE
FE0000FE
FE0000FE
FFFFFFFE
FFFFFF80
FFFFFF80
FFFFFF80
FFFFFF80
FFFFFF80
FFFFFF80
FE000000
FE000000
FE000000
FE000000
FE000000
FE000000
FE000000
FE000000
FE000000
FE000000
FE000000
FE000000
ENDCHAR
STARTCHAR 0051
ENCODING 81
SWIDTH 585 0
DWIDTH 39 0
BBX 31 55 4 -13
BITMAP
03FFFF80
03FFFF80
03FFFF80
03FFFF80
03FFFF80
03FFFF80
FFFFFFFE
FE0000FE
FE0000FE
FE0000FE
FE0000FE
FE0000FE
FE0000FE
FE0000FE
FE0000FE
FE0000FE
FE0000FE
FE0000FE
FE0000FE
FE0000FE
FE0000FE
FE0000FE
FE0000FE
FE0000FE
FE0000FE
FE0000FE
FE0000FE
FE0000FE
FE0000FE
FE0000FE
FE0000FE
FE0000FE
FE0000FE
FE0000FE
FE0000FE
FE0000FE
FFFFFFFE
03FFFF80
03FFFF80
03FFFF80
03FFFF80
03FFFF80
03FFFF80
000FE000
000FE000
000FE000
000FE000
000FE000
000FFF80
00003F80
00003F80
00003F80
00003F80
00003F80
00003F80
ENDCHAR
STARTCHAR 0052
ENCODING 82
SWIDTH 585 0
DWIDTH 39 0
BBX 31 43 4 -1
BITMAP
03FFFF80
03FFFF80
03FFFF80
03FFFF80
03FFFF80
03FFFF80
FFFFFFFE
FE0000FE
FE0000FE
FE0000FE
FE0000FE
FE0000FE
FE0000FE
FE0000FE
FE0000FE
FE0000FE
FE0000FE
FE0000FE
FE0000FE
FE0000FE
FE0000FE
FE0000FE
FE0000FE
FE0000FE
FFFFFFFE
FFFFFF80
FFFFFF80
FFFFFF80
FFFFFF80
FFFFFF80
FFFFFF80
FE01FC00
FE01FC00
FE01FC00
FE01FC00
FE01FC00
FE01FFF0
FE0007F0
FE0007F0
FE0007F0
FE0007F0
FE0007F0
FE0007F0
ENDCHAR
STARTCHAR 0053
ENCODING 83
SWIDTH 585 0
DWIDTH 39 0
BBX 31 43 4 -1
BITMAP
03FFFF80
03FFFF80
03FFFF80
03FFFF80
03FFFF80
03FFFF80
FFFFFFFE
FE0000FE
FE0000FE
FE0000FE
FE0000FE
FE0000FE
FE0000FE
FE000000
FE000000
FE000000
FE000000
FE000000
FFFFFF80
03FFFF80
03FFFF80
03FFFF80
03FFFF80
03FFFF80
03FFFFFE
000000FE
000000FE
000000FE
000000FE
000000FE
FE0000FE
FE0000FE
FE0000FE
FE0000FE
FE0000FE
FE0000FE
FFFFFFFE
03FFFF80
03FFFF80
03FFFF80
03FFFF80
03FFFF80
03FFFF80
ENDCHAR
STARTCHAR 0054
ENCODING 84
SWIDTH 585 0
DWIDTH 39 0
BBX 31 43 4 -1
BITMAP
03FFFF80
03FFFF80
03FFFF80
03FFFF80
03FFFF80
03FFFF80
FFFFFFFE
FE0FE0FE
FE0FE0FE
FE0FE0FE
FE0FE0FE
FE0FE0FE
FE0FE0FE
000FE000
000FE000
000FE000
000FE000
000FE000
000FE000
000FE000
000FE000
000FE000
000FE000
000FE000
000FE000
000FE000
000FE000
000FE000
000FE000
000FE000
000FE000
000FE000
000FE000
000FE000
000FE000
000FE000
000FE000
000FE000
000FE000
000FE000
000FE000
000FE000
000FE000
ENDCHAR
STARTCHAR 0055
ENCODING 85
SWIDTH 585 0
DWIDTH 39 0
BBX 31 43 4 -1
BITMAP
FE0000FE
FE0000FE
FE0000FE
FE0000FE
FE0000FE
FE0000FE
FE0000FE
FE0000FE
FE0000FE
FE0000FE
FE0000FE
FE0000FE
FE0000FE
FE0000FE
FE0000FE
FE0000FE
FE0000FE
FE0000FE
FE0000FE
FE0000FE
FE0000FE
FE0000FE
FE0000FE
FE0000FE
FE0000FE
FE0000FE
FE0000FE
FE0000FE
FE0000FE
FE0000FE
FE0000FE
FE0000FE
FE0000FE
FE0000FE
FE0000FE
FE0000FE
FFFFFFFE
03FFFF80
03FFFF80
03FFFF80
03FFFF80
03FFFF80
03FFFF80
ENDCHAR
STARTCHAR 0056
ENCODING 86
SWIDTH 585 0
DWIDTH 39 0
BBX 31 43 4 -1
BITMAP
FE0000FE
FE0000FE
FE0000FE
FE0000FE
FE0000FE
FE0000FE
FE0000FE
FE0000FE
FE0000FE
FE0000FE
FE0000FE
FE0000FE
FE0000FE
FE0000FE
FE0000FE
FE0000FE
FE0000FE
FE0000FE
FE0000FE
FE0000FE
FE0000FE
FE0000FE
FE0000FE
FE0000FE
FFF83FFE
03F83F80
03F83F80
03F83F80
03F83F80
03F83F80
03F83F80
03F83F80
03F83F80
03F83F80
03F83F80
03F83F80
03FFFF80
000FE000
000FE000
000FE000
000FE000
000FE000
000FE000
ENDCHAR
STARTCHAR 0057
ENCODING 87
SWIDTH 765 0
DWIDTH 51 0
BBX 43 43 4 -1
BITMAP
FE0000000FE0
FE0000000FE0
FE0000000FE0
FE0000000FE0
FE0000000FE0
FE0000000FE0
FE003F800FE0
FE003F800FE0
FE003F800FE0
FE003F800FE0
FE003F800FE0
FE003F800FE0
FE003F800FE0
FE003F800FE0
FE003F800FE0
FE003F800FE0
FE003F800FE0
FE003F800FE0
FE003F800FE0
FE003F800FE0
FE003F800FE0
FE003F800FE0
FE003F800FE0
FE003F800FE0
FE0FFFFE0FE0
FE0FE0FE0FE0
FE0FE0FE0FE0
FE0FE0FE0FE0
FE0FE0FE0FE0
FE0FE0FE0FE0
FE0FE0FE0FE0
FE0FE0FE0FE0
FE0FE0FE0FE0
FE0FE0FE0FE0
FE0FE0FE0FE0
FE0FE0FE0FE0
FFFFE0FFFFE0
03F80003F800
03F80003F800
03F80003F800
03F80003F800
03F80003F800
03F80003F800
ENDCHAR
STARTCHAR 0058
ENCODING 88
SWIDTH 585 0
DWIDTH 39 0
BBX 31 43 4 -1
BITMAP
FE0000FE
FE0000FE
FE0000FE
FE0000FE
FE0000FE
FE0000FE
FFF83FFE
03F83F80
03F83F80
03F83F80
03F83F80
03F83F80
03F83F80
03F83F80
03F83F80
03F83F80
03F83F80
03F83F80
03FFFF80
000FE000
000FE000
000FE000
000FE000
000FE000
03FFFF80
03F83F80
03F83F80
03F83F80
03F83F80
03F83F80
03F83F80
03F83F80
03F83F80
03F83F80
03F83F80
03F83F80
FFF83FFE
FE0000FE
FE0000FE
FE0000FE
FE0000FE
FE0000FE
FE0000FE
ENDCHAR
STARTCHAR 0059
ENCODING 89
SWIDTH 585 0
DWIDTH 39 0
BBX 31 43 4 -1
BITMAP
FE0000FE
FE0000FE
FE0000FE
FE0000FE
FE0000FE
FE0000FE
FE0000FE
FE0000FE
FE0000FE
FE0000FE
FE0000FE
FE0000FE
FFF83FFE
03F83F80
03F83F80
03F83F80
03F83F80
03F83F80
03FFFF80
000FE000
000FE000
000FE000
000FE000
000FE000
000FE000
000FE000
000FE000
000FE000
000FE000
000FE000
000FE000
000FE000
000FE000
000FE000
000FE000
000FE000
000FE000
000FE000
000FE000
000FE000
000FE000
000FE000
000FE000
ENDCHAR
STARTCHAR 005A
ENCODING 90
SWIDTH 585 0
DWIDTH 39 0
BBX 31 43 4 -1
BITMAP
FFFFFF80
FFFFFF80
FFFFFF80
FFFFFF80
FFFFFF80
FFFFFF80
FFFFFFFE
FE0000FE
FE0000FE
FE0000FE
FE0000FE
FE0000FE
FE0000FE
000000FE
000000FE
000000FE
000000FE
000000FE
03FFFFFE
03FFFF80
03FFFF80
03FFFF80
03FFFF80
03FFFF80
FFFFFF80
FE000000
FE000000
FE000000
FE000000
FE000000
FE0000FE
FE0000FE
FE0000FE
FE0000FE
FE0000FE
FE0000FE
FFFFFFFE
03FFFFFE
03FFFFFE
03FFFFFE
03FFFFFE
03FFFFFE
03FFFFFE
ENDCHAR
STARTCHAR 005B
ENCODING 91
SWIDTH 375 0
DWIDTH 25 0
BBX 19 49 4 -4
BITMAP
03FFE0
03FFE0
03FFE0
03FFE0
03FFE0
03FFE0
FFFFE0
FE0000
FE0000
FE0000
FE0000
FE0000
FE0000
FE0000
FE0000
FE0000
FE0000
FE0000
FE0000
FE0000
FE0000
FE0000
FE0000
FE0000
FE0000
FE0000
FE0000
FE0000
FE0000
FE0000
FE0000
FE0000
FE0000
FE0000
FE0000
FE0000
FE0000
FE0000
FE0000
FE0000
FE0000
FE0000
FFFFE0
03FFE0
03FFE0
03FFE0
03FFE0
03FFE0
03FFE0
ENDCHAR
STARTCHAR 005C
ENCODING 92
SWIDTH 525 0
DWIDTH 35 0
BBX 27 43 4 -1
BITMAP
FC000000
7E000000
7E000000
3F000000
3F000000
1F800000
1F800000
0FC00000
0FC00000
07E00000
07E00000
03F00000
03F00000
01F80000
01F80000
00FC0000
00FC0000
007E0000
007E0000
003F0000
003F0000
001F8000
001F8000
000FC000
000FC000
0007E000
0007E000
0003F000
0003F000
0001F800
0001F800
0000FC00
0000FC00
00007E00
00007E00
00003F00
00003F00
00001F80
00001F80
00000FC0
00000FC0
000007E0
000007E0
ENDCHAR
STARTCHAR 005D
ENCODING 93
SWIDTH 375 0
DWIDTH 25 0
BBX 19 49 2 -4
BITMAP
FFF800
FFF800
FFF800
FFF800
FFF800
FFF800
FFFFE0
000FE0
000FE0
000FE0
000FE0
000FE0
000FE0
000FE0
000FE0
000FE0
000FE0
000FE0
000FE0
000FE0
000FE0
000FE0
000FE0
000FE0
000FE0
000FE0
000FE0
000FE0
000FE0
000FE0
000FE0
000FE0
000FE0
000FE0
000FE0
000FE0
000FE0
000FE0
000FE0
000FE0
000FE0
000FE0
FFFFE0
FFF800
FFF800
FFF800
FFF800
FFF800
FFF800
ENDCHAR
STARTCHAR 005E
ENCODING 94
SWIDTH 270 0
DWIDTH 18 0
BBX 10 7 4 35
BITMAP
1E00
1E00
1E00
FFC0
F3C0
F3C0
F3C0
ENDCHAR
STARTCHAR 005F
ENCODING 95
SWIDTH 435 0
DWIDTH 29 0
BBX 21 7 4 0
BITMAP
FFFFF8
FFFFF8
FFFFF8
FFFFF8
FFFFF8
FFFFF8
FFFFF8
ENDCHAR
STARTCHAR 0060
ENCODING 96
SWIDTH 270 0
DWIDTH 18 0
BBX 10 10 4 35
BITMAP
F000
F000
F000
FE00
1E00
1E00
1FC0
03C0
03C0
03C0
ENDCHAR
STARTCHAR 0061
ENCODING 97
SWIDTH 675 0
DWIDTH 45 0
BBX 37 31 4 -1
BITMAP
03FFFF8000
03FFFF8000
03FFFF8000
03FFFF8000
03FFFF8000
03FFFF8000
FFFFFFFE00
FE0000FE00
FE0000FE00
FE0000FE00
FE0000FE00
FE0000FE00
FE0000FE00
FE0000FE00
FE0000FE00
FE0000FE00
FE0000FE00
FE0000FE00
FE0000FE00
FE0000FE00
FE0000FE00
FE0000FE00
FE0000FE00
FE0000FE00
FFFFFFFFF8
03FFFF83F8
03FFFF83F8
03FFFF83F8
03FFFF83F8
03FFFF83F8
03FFFF83F8
ENDCHAR
STARTCHAR 0062
ENCODING 98
SWIDTH 585 0
DWIDTH 39 0
BBX 31 43 4 -1
BITMAP
FE000000
FE000000
FE000000
FE000000
FE000000
FE000000
FE000000
FE000000
FE000000
FE000000
FE000000
FE000000
FFFFFF80
FFFFFF80
FFFFFF80
FFFFFF80
FFFFFF80
FFFFFF80
FFFFFFFE
FE0000FE
FE0000FE
FE0000FE
FE0000FE
FE0000FE
FE0000FE
FE0000FE
FE0000FE
FE0000FE
FE0000FE
FE0000FE
FE0000FE
FE0000FE
FE0000FE
FE0000FE
FE0000FE
FE0000FE
FFFFFFFE
03FFFF80
03FFFF80
03FFFF80
03FFFF80
03FFFF80
03FFFF80
ENDCHAR
STARTCHAR 0063
ENCODING 99
SWIDTH 585 0
DWIDTH 39 0
BBX 31 31 4 -1
BITMAP
03FFFF80
03FFFF80
03FFFF80
03FFFF80
03FFFF80
03FFFF80
FFFFFFFE
FE0000FE
FE0000FE
FE0000FE
FE0000FE
FE0000FE
FE0000FE
FE000000
FE000000
FE000000
FE000000
FE000000
FE0000FE
FE0000FE
FE0000FE
FE0000FE
FE0000FE
FE0000FE
FFFFFFFE
03FFFF80
03FFFF80
03FFFF80
03FFFF80
03FFFF80
03FFFF80
ENDCHAR
STARTCHAR 0064
ENCODING 100
SWIDTH 585 0
DWIDTH 39 0
BBX 31 43 4 -1
BITMAP
000000FE
000000FE
000000FE
000000FE
000000FE
000000FE
000000FE
000000FE
000000FE
000000FE
000000FE
000000FE
03FFFFFE
03FFFFFE
03FFFFFE
03FFFFFE
03FFFFFE
03FFFFFE
FFFFFFFE
FE0000FE
FE0000FE
FE0000FE
FE0000FE
FE0000FE
FE0000FE
FE0000FE
FE0000FE
FE0000FE
FE0000FE
FE0000FE
FE0000FE
FE0000FE
FE0000FE
FE0000FE
FE0000FE
FE0000FE
FFFFFFFE
03FFFF80
03FFFF80
03FFFF80
03FFFF80
03FFFF80
03FFFF80
ENDCHAR
STARTCHAR 0065
ENCODING 101
SWIDTH 585 0
DWIDTH 39 0
BBX 31 31 4 -1
BITMAP
03FFFF80
03FFFF80
03FFFF80
03FFFF80
03FFFF80
03FFFF80
FFFFFFFE
FE0000FE
FE0000FE
FE0000FE
FE0000FE
FE0000FE
FFFFE0FE
FFFFE000
FFFFE000
FFFFE000
FFFFE000
FFFFE000
FFFFE0FE
FE0000FE
FE0000FE
FE0000FE
FE0000FE
FE0000FE
FFFFFFFE
03FFFF80
03FFFF80
03FFFF80
03FFFF80
03FFFF80
03FFFF80
ENDCHAR
STARTCHAR 0066
ENCODING 102
SWIDTH 585 0
DWIDTH 39 0
BBX 31 43 4 -1
BITMAP
03FFFF80
03FFFF80
03FFFF80
03FFFF80
03FFFF80
03FFFF80
FFFFFFFE
FE0000FE
FE0000FE
FE0000FE
FE0000FE
FE0000FE
FE0000FE
FE000000
FE000000
FE000000
FE000000
FE000000
FFFFE000
FFFFE000
FFFFE000
FFFFE000
FFFFE000
FFFFE000
FFFFE000
FE000000
FE000000
FE000000
FE000000
FE000000
FE000000
FE000000
FE000000
FE000000
FE000000
FE000000
FE000000
FE000000
FE000000
FE000000
FE000000
FE000000
FE000000
ENDCHAR
STARTCHAR 0067
ENCODING 103
SWIDTH 585 0
DWIDTH 39 0
BBX 31 43 4 -13
BITMAP
03FFFF80
03FFFF80
03FFFF80
03FFFF80
03FFFF80
03FFFF80
FFFFFFFE
FE0000FE
FE0000FE
FE0000FE
FE0000FE
FE0000FE
FE0000FE
FE0000FE
FE0000FE
FE0000FE
FE0000FE
FE0000FE
FFFFFFFE
03FFFFFE
03FFFFFE
03FFFFFE
03FFFFFE
03FFFFFE
03FFFFFE
000000FE
000000FE
000000FE
000000FE
000000FE
FE0000FE
FE0000FE
FE0000FE
FE0000FE
FE0000FE
FE0000FE
FFFFFFFE
03FFFF80
03FFFF80
03FFFF80
03FFFF80
03FFFF80
03FFFF80
ENDCHAR
STARTCHAR 0068
ENCODING 104
SWIDTH 585 0
DWIDTH 39 0
BBX 31 43 4 -1
BITMAP
FE000000
FE000000
FE000000
FE000000
FE000000
FE000000
FE000000
FE000000
FE000000
FE000000
FE000000
FE000000
FE0FFF80
FE0FFF80
FE0FFF80
FE0FFF80
FE0FFF80
FE0FFF80
FFFFFFFE
FFF800FE
FFF800FE
FFF800FE
FFF800FE
FFF800FE
FFF800FE
FE0000FE
FE0000FE
FE0000FE
FE0000FE
FE0000FE
FE0000FE
FE0000FE
FE0000FE
FE0000FE
FE0000FE
FE0000FE
FE0000FE
FE0000FE
FE0000FE
FE0000FE
FE0000FE
FE0000FE
FE0000FE
ENDCHAR
STARTCHAR 0069
ENCODING 105
SWIDTH 225 0
DWIDTH 15 0
BBX 7 43 4 -1
BITMAP
FE
FE
FE
FE
FE
FE
FE
00
00
00
00
00
FE
FE
FE
FE
FE
FE
FE
FE
FE
FE
FE
FE
FE
FE
FE
FE
FE
FE
FE
FE
FE
FE
FE
FE
FE
FE
FE
FE
FE
FE
FE
ENDCHAR
STARTCHAR 006A
ENCODING 106
SWIDTH 495 0
DWIDTH 33 0
BBX 25 31 4 -1
BITMAP
00003F80
00003F80
00003F80
00003F80
00003F80
00003F80
00003F80
00003F80
00003F80
00003F80
00003F80
00003F80
00003F80
00003F80
00003F80
00003F80
00003F80
00003F80
FE003F80
FE003F80
FE003F80
FE003F80
FE003F80
FE003F80
FFFFFF80
03FFE000
03FFE000
03FFE000
03FFE000
03FFE000
03FFE000
ENDCHAR
STARTCHAR 006B
ENCODING 107
SWIDTH 585 0
DWIDTH 39 0
BBX 31 43 4 -1
BITMAP
FE000000
FE000000
FE000000
FE000000
FE000000
FE000000
FE000000
FE000000
FE000000
FE000000
FE000000
FE000000
FE0000FE
FE0000FE
FE0000FE
FE0000FE
FE0000FE
FE0000FE
FE0FFFFE
FE0FFF80
FE0FFF80
FE0FFF80
FE0FFF80
FE0FFF80
FFFFFF80
FFF80000
FFF80000
FFF80000
FFF80000
FFF80000
FFFFFF80
FE0FFF80
FE0FFF80
FE0FFF80
FE0FFF80
FE0FFF80
FE0FFFFE
FE0000FE
FE0000FE
FE0000FE
FE0000FE
FE0000FE
FE0000FE
ENDCHAR
STARTCHAR 006C
ENCODING 108
SWIDTH 225 0
DWIDTH 15 0
BBX 7 43 4 -1
BITMAP
FE
FE
FE
FE
FE
FE
FE
FE
FE
FE
FE
FE
FE
FE
FE
FE
FE
FE
FE
FE
FE
FE
FE
FE
FE
FE
FE
FE
FE
FE
FE
FE
FE
FE
FE
FE
FE
FE
FE
FE
FE
FE
FE
ENDCHAR
STARTCHAR 006D
ENCODING 109
SWIDTH 765 0
DWIDTH 51 0
BBX 43 31 4 -1
BITMAP
FFFFE0FFF800
FFFFE0FFF800
FFFFE0FFF800
FFFFE0FFF800
FFFFE0FFF800
FFFFE0FFF800
FFFFFFFFFFE0
FE003F800FE0
FE003F800FE0
FE003F800FE0
FE003F800FE0
FE003F800FE0
FE003F800FE0
FE003F800FE0
FE003F800FE0
FE003F800FE0
FE003F800FE0
FE003F800FE0
FE003F800FE0
FE003F800FE0
FE003F800FE0
FE003F800FE0
FE003F800FE0
FE003F800FE0
FE003F800FE0
FE003F800FE0
FE003F800FE0
FE003F800FE0
FE003F800FE0
FE003F800FE0
FE003F800FE0
ENDCHAR
STARTCHAR 006E
ENCODING 110
SWIDTH 585 0
DWIDTH 39 0
BBX 31 31 4 -1
BITMAP
FFFFFF80
FFFFFF80
FFFFFF80
FFFFFF80
FFFFFF80
FFFFFF80
FFFFFFFE
FE0000FE
FE0000FE
FE0000FE
FE0000FE
FE0000FE
FE0000FE
FE0000FE
FE0000FE
FE0000FE
FE0000FE
FE0000FE
FE0000FE
FE0000FE
FE0000FE
FE0000FE
FE0000FE
FE0000FE
FE0000FE
FE0000FE
FE0000FE
FE0000FE
FE0000FE
FE0000FE
FE0000FE
ENDCHAR
STARTCHAR 006F
ENCODING 111
SWIDTH 585 0
DWIDTH 39 0
BBX 31 31 4 -1
BITMAP
03FFFF80
03FFFF80
03FFFF80
03FFFF80
03FFFF80
03FFFF80
FFFFFFFE
FE0000FE
FE0000FE
FE0000FE
FE0000FE
FE0000FE
FE0000FE
FE0000FE
FE0000FE
FE0000FE
FE0000FE
FE0000FE
FE0000FE
FE0000FE
FE0000FE
FE0000FE
FE0000FE
FE0000FE
FFFFFFFE
03FFFF80
03FFFF80
03FFFF80
03FFFF80
03FFFF80
03FFFF80
ENDCHAR
STARTCHAR 0070
ENCODING 112
SWIDTH 585 0
DWIDTH 39 0
BBX 31 43 4 -13
BITMAP
03FFFF80
03FFFF80
03FFFF80
03FFFF80
03FFFF80
03FFFF80
FFFFFFFE
FE0000FE
FE0000FE
FE0000FE
FE0000FE
FE0000FE
FE0000FE
FE0000FE
FE0000FE
FE0000FE
FE0000FE
FE0000FE
FE0000FE
FE0000FE
FE0000FE
FE0000FE
FE0000FE
FE0000FE
FFFFFFFE
FFFFFF80
FFFFFF80
FFFFFF80
FFFFFF80
FFFFFF80
FFFFFF80
FE000000
FE000000
FE000000
FE000000
FE000000
FE000000
FE000000
FE000000
FE000000
FE000000
FE000000
FE000000
ENDCHAR
STARTCHAR 0071
ENCODING 113
SWIDTH 585 0
DWIDTH 39 0
BBX 31 43 4 -13
BITMAP
03FFFF80
03FFFF80
03FFFF80
03FFFF80
03FFFF80
03FFFF80
FFFFFFFE
FE0000FE
FE0000FE
FE0000FE
FE0000FE
FE0000FE
FE0000FE
FE0000FE
FE0000FE
FE0000FE
FE0000FE
FE0000FE
FE0000FE
FE0000FE
FE0000FE
FE0000FE
FE0000FE
FE0000FE
FFFFFFFE
03FFFFFE
03FFFFFE
03FFFFFE
03FFFFFE
03FFFFFE
03FFFFFE
000000FE
000000FE
000000FE
000000FE
000000FE
000000FE
000000FE
000000FE
000000FE
000000FE
000000FE
000000FE
ENDCHAR
STARTCHAR 0072
ENCODING 114
SWIDTH 585 0
DWIDTH 39 0
BBX 31 31 4 -1
BITMAP
03FFFF80
03FFFF80
03FFFF80
03FFFF80
03FFFF80
03FFFF80
FFFFFFFE
FE0000FE
FE0000FE
FE0000FE
FE0000FE
FE0000FE
FE0000FE
FE000000
FE000000
FE000000
FE000000
FE000000
FE000000
FE000000
FE000000
FE000000
FE000000
FE000000
FE000000
FE000000
FE000000
FE000000
FE000000
FE000000
FE000000
ENDCHAR
STARTCHAR 0073
ENCODING 115
SWIDTH 585 0
DWIDTH 39 0
BBX 31 31 4 -1
BITMAP
03FFFFFE
03FFFFFE
03FFFFFE
03FFFFFE
03FFFFFE
03FFFFFE
FFFFFFFE
FE000000
FE000000
FE000000
FE000000
FE000000
FFFFFF80
03FFFF80
03FFFF80
03FFFF80
03FFFF80
03FFFF80
03FFFFFE
000000FE
000000FE
000000FE
000000FE
000000FE
FFFFFFFE
FFFFFF80
FFFFFF80
FFFFFF80
FFFFFF80
FFFFFF80
FFFFFF80
ENDCHAR
STARTCHAR 0074
ENCODING 116
SWIDTH 675 0
DWIDTH 45 0
BBX 37 43 4 -1
BITMAP
03F8000000
03F8000000
03F8000000
03F8000000
03F8000000
03F8000000
03F8000000
03F8000000
03F8000000
03F8000000
03F8000000
03F8000000
FFFFFFFE00
FFFFFFFE00
FFFFFFFE00
FFFFFFFE00
FFFFFFFE00
FFFFFFFE00
FFFFFFFE00
03F8000000
03F8000000
03F8000000
03F8000000
03F8000000
03F8000000
03F8000000
03F8000000
03F8000000
03F8000000
03F8000000
03F80003F8
03F80003F8
03F80003F8
03F80003F8
03F80003F8
03F80003F8
03FFFFFFF8
000FFFFE00
000FFFFE00
000FFFFE00
000FFFFE00
000FFFFE00
000FFFFE00
ENDCHAR
STARTCHAR 0075
ENCODING 117
SWIDTH 585 0
DWIDTH 39 0
BBX 31 31 4 -1
BITMAP
FE0000FE
FE0000FE
FE0000FE
FE0000FE
FE0000FE
FE0000FE
FE0000FE
FE0000FE
FE0000FE
FE0000FE
FE0000FE
FE0000FE
FE0000FE
FE0000FE
FE0000FE
FE0000FE
FE0000FE
FE0000FE
FE0000FE
FE0000FE
FE0000FE
FE0000FE
FE0000FE
FE0000FE
FFFFFFFE
03FFFF80
03FFFF80
03FFFF80
03FFFF80
03FFFF80
03FFFF80
ENDCHAR
STARTCHAR 0076
ENCODING 118
SWIDTH 570 0
DWIDTH 38 0
BBX 31 31 3 -1
BITMAP
FE00007E
FE00007E
FE00007E
FE00007E
FE00007E
FE00007E
FE00007E
FE00007E
FE00007E
FE00007E
FE00007E
FE00007E
FFF81FFE
03F81F80
03F81F80
03F81F80
03F81F80
03F81F80
03F81F80
03F81F80
03F81F80
03F81F80
03F81F80
03F81F80
03FFFF80
000FE000
000FE000
000FE000
000FE000
000FE000
000FE000
ENDCHAR
STARTCHAR 0077
ENCODING 119
SWIDTH 765 0
DWIDTH 51 0
BBX 43 31 4 -1
BITMAP
FE003F800FE0
FE003F800FE0
FE003F800FE0
FE003F800FE0
FE003F800FE0
FE003F800FE0
FE003F800FE0
FE003F800FE0
FE003F800FE0
FE003F800FE0
FE003F800FE0
FE003F800FE0
FE003F800FE0
FE003F800FE0
FE003F800FE0
FE003F800FE0
FE003F800FE0
FE003F800FE0
FE003F800FE0
FE003F800FE0
FE003F800FE0
FE003F800FE0
FE003F800FE0
FE003F800FE0
FFFFFFFFFFE0
FFFFE0FFF800
FFFFE0FFF800
FFFFE0FFF800
FFFFE0FFF800
FFFFE0FFF800
FFFFE0FFF800
ENDCHAR
STARTCHAR 0078
ENCODING 120
SWIDTH 585 0
DWIDTH 39 0
BBX 31 31 4 -1
BITMAP
FE0000FE
FE0000FE
FE0000FE
FE0000FE
FE0000FE
FE0000FE
FFF83FFE
03F83F80
03F83F80
03F83F80
03F83F80
03F83F80
03FFFF80
000FE000
000FE000
000FE000
000FE000
000FE000
03FFFF80
03F83F80
03F83F80
03F83F80
03F83F80
03F83F80
FFF83FFE
FE0000FE
FE0000FE
FE0000FE
FE0000FE
FE0000FE
FE0000FE
ENDCHAR
STARTCHAR 0079
ENCODING 121
SWIDTH 585 0
DWIDTH 39 0
BBX 31 43 4 -13
BITMAP
FE0000FE
FE0000FE
FE0000FE
FE0000FE
FE0000FE
FE0000FE
FE0000FE
FE0000FE
FE0000FE
FE0000FE
FE0000FE
FE0000FE
FE0000FE
FE0000FE
FE0000FE
FE0000FE
FE0000FE
FE0000FE
FFFFFFFE
03FFFFFE
03FFFFFE
03FFFFFE
03FFFFFE
03FFFFFE
03FFFFFE
000000FE
000000FE
000000FE
000000FE
000000FE
FE0000FE
FE0000FE
FE0000FE
FE0000FE
FE0000FE
FE0000FE
FFFFFFFE
03FFFF80
03FFFF80
03FFFF80
03FFFF80
03FFFF80
03FFFF80
ENDCHAR
STARTCHAR 007A
ENCODING 122
SWIDTH 585 0
DWIDTH 39 0
BBX 31 31 4 -1
BITMAP
FFFFFFFE
FFFFFFFE
FFFFFFFE
FFFFFFFE
FFFFFFFE
FFFFFFFE
FFFFFFFE
00003F80
00003F80
00003F80
00003F80
00003F80
000FFF80
000FE000
000FE000
000FE000
000FE000
000FE000
03FFE000
03F80000
03F80000
03F80000
03F80000
03F80000
FFFFFFFE
FFFFFFFE
FFFFFFFE
FFFFFFFE
FFFFFFFE
FFFFFFFE
FFFFFFFE
ENDCHAR
STARTCHAR 007B
ENCODING 123
SWIDTH 465 0
DWIDTH 31 0
BBX 25 55 2 -7
BITMAP
000FE000
000FE000
000FE000
000FE000
000FE000
000FE000
03FFFF80
03F83F80
03F83F80
03F83F80
03F83F80
03F83F80
03F83F80
03F80000
03F80000
03F80000
03F80000
03F80000
03F80000
03F80000
03F80000
03F80000
03F80000
03F80000
FFF80000
FE000000
FE000000
FE000000
FE000000
FE000000
FFF80000
03F80000
03F80000
03F80000
03F80000
03F80000
03F80000
03F80000
03F80000
03F80000
03F80000
03F80000
03F83F80
03F83F80
03F83F80
03F83F80
03F83F80
03F83F80
03FFFF80
000FE000
000FE000
000FE000
000FE000
000FE000
000FE000
ENDCHAR
STARTCHAR 007C
ENCODING 124
SWIDTH 225 0
DWIDTH 15 0
BBX 7 43 4 -1
BITMAP
FE
FE
FE
FE
FE
FE
FE
FE
FE
FE
FE
FE
FE
FE
FE
FE
FE
FE
FE
FE
FE
FE
FE
FE
FE
FE
FE
FE
FE
FE
FE
FE
FE
FE
FE
FE
FE
FE
FE
FE
FE
FE
FE
ENDCHAR
STARTCHAR 007D
ENCODING 125
SWIDTH 465 0
DWIDTH 31 0
BBX 25 55 2 -7
BITMAP
03F80000
03F80000
03F80000
03F80000
03F80000
03F80000
FFFFE000
FE0FE000
FE0FE000
FE0FE000
FE0FE000
FE0FE000
FE0FE000
000FE000
000FE000
000FE000
000FE000
000FE000
000FE000
000FE000
000FE000
000FE000
000FE000
000FE000
000FFF80
00003F80
00003F80
00003F80
00003F80
00003F80
000FFF80
000FE000
000FE000
000FE000
000FE000
000FE000
000FE000
000FE000
000FE000
000FE000
000FE000
000FE000
FE0FE000
FE0FE000
FE0FE000
FE0FE000
FE0FE000
FE0FE000
FFFFE000
03F80000
03F80000
03F80000
03F80000
03F80000
03F80000
ENDCHAR
STARTCHAR 007E
ENCODING 126
SWIDTH 600 0
DWIDTH 40 0
BBX 16 7 12 13
BITMAP
FFCF
FFCF
FFCF
FFFF
F3FF
F3FF
F3FF
ENDCHAR
STARTCHAR 00A0
ENCODING 160
SWIDTH 195 0
DWIDTH 13 0
BBX 0 0 0 0
BITMAP
ENDCHAR
STARTCHAR 00A1
ENCODING 161
SWIDTH 225 0
DWIDTH 15 0
BBX 7 43 4 -1
BITMAP
FE
FE
FE
FE
FE
FE
FE
00
00
00
00
00
FE
FE
FE
FE
FE
FE
FE
FE
FE
FE
FE
FE
FE
FE
FE
FE
FE
FE
FE
FE
FE
FE
FE
FE
FE
FE
FE
FE
FE
FE
FE
ENDCHAR
STARTCHAR 00A2
ENCODING 162
SWIDTH 585 0
DWIDTH 39 0
BBX 31 44 4 0
BITMAP
000FE000
000FE000
000FE000
000FE000
000FE000
000FE000
000FE000
03FFFF80
03FFFF80
03FFFF80
03FFFF80
03FFFF80
03FFFF80
FE0000FE
FE0000FE
FE0000FE
FE0000FE
FE0000FE
FE0000FE
FE000000
FE000000
FE000000
FE000000
FE000000
FE000000
FE0000FE
FE0000FE
FE0000FE
FE0000FE
FE0000FE
FE0000FE
03FFFF80
03FFFF80
03FFFF80
03FFFF80
03FFFF80
03FFFF80
000FE000
000FE000
000FE000
000FE000
000FE000
000FE000
000FE000
ENDCHAR
STARTCHAR 00A3
ENCODING 163
SWIDTH 675 0
DWIDTH 45 0
BBX 37 43 4 -1
BITMAP
000FFFFE00
000FFFFE00
000FFFFE00
000FFFFE00
000FFFFE00
000FFFFE00
03FFFFFFF8
03F80003F8
03F80003F8
03F80003F8
03F80003F8
03F80003F8
03F80003F8
03F8000000
03F8000000
03F8000000
03F8000000
03F8000000
03FFFF8000
03FFFF8000
03FFFF8000
03FFFF8000
03FFFF8000
03FFFF8000
03FFFF8000
03F8000000
03F8000000
03F8000000
03F8000000
03F8000000
03F80003F8
03F80003F8
03F80003F8
03F80003F8
03F80003F8
03F80003F8
FFFFFFFFF8
FFFFFFFE00
FFFFFFFE00
FFFFFFFE00
FFFFFFFE00
FFFFFFFE00
FFFFFFFE00
ENDCHAR
STARTCHAR 00A4
ENCODING 164
SWIDTH 450 0
DWIDTH 30 0
BBX 22 22 4 9
BITMAP
F0003C
F0003C
F0003C
03FF00
03FF00
03FF00
1E01E0
1E01E0
1E01E0
1E01E0
1E01E0
1E01E0
1E01E0
1E01E0
1E01E0
1FFFE0
03FF00
03FF00
F3FF3C
F0003C
F0003C
F0003C
ENDCHAR
STARTCHAR 00A5
ENCODING 165
SWIDTH 585 0
DWIDTH 39 0
BBX 31 43 4 -1
BITMAP
FE0000FE
FE0000FE
FE0000FE
FE0000FE
FE0000FE
FE0000FE
FE0000FE
FE0000FE
FE0000FE
FE0000FE
FE0000FE
FE0000FE
FFF83FFE
03F83F80
03F83F80
03F83F80
03F83F80
03F83F80
03FFFF80
000FE000
000FE000
000FE000
03FFFF80
03FFFF80
03FFFF80
03FFFF80
03FFFF80
03FFFF80
000FE000
000FE000
000FE000
03FFFF80
03FFFF80
03FFFF80
03FFFF80
03FFFF80
03FFFF80
000FE000
000FE000
000FE000
000FE000
000FE000
000FE000
ENDCHAR
STARTCHAR 00A7
ENCODING 167
SWIDTH 585 0
DWIDTH 39 0
BBX 31 43 4 -1
BITMAP
03FFFF80
03FFFF80
03FFFF80
03FFFF80
03FFFF80
03FFFF80
FFFFFFFE
FE0000FE
FE0000FE
FE0000FE
FE0000FE
FE0000FE
FE0000FE
FE000000
FE000000
FE000000
FE000000
FE000000
FFFFFF80
03FFFF80
03FFFF80
03FFFF80
03FFFF80
03FFFF80
FFFFFFFE
FFFFFFFE
FFFFFFFE
FFFFFFFE
FFFFFFFE
FFFFFFFE
FFFFFFFE
FE000000
FE000000
FE000000
FE000000
FE000000
FFFFFFFE
03FFFFFE
03FFFFFE
03FFFFFE
03FFFFFE
03FFFFFE
03FFFFFE
ENDCHAR
STARTCHAR 00A8
ENCODING 168
SWIDTH 300 0
DWIDTH 20 0
BBX 21 7 -1 32
BITMAP
FE01F8
FE01F8
FE01F8
FE01F8
FE01F8
FE01F8
FE01F8
ENDCHAR
STARTCHAR 00A9
ENCODING 169
SWIDTH 405 0
DWIDTH 27 0
BBX 18 17 5 24
BITMAP
1FFC00
1FFC00
1FFC00
E003C0
E003C0
E1E3C0
E1E3C0
E633C0
E603C0
E633C0
E7F3C0
E1E3C0
E003C0
E003C0
1FFC00
1FFC00
1FFC00
ENDCHAR
STARTCHAR 00AA
ENCODING 170
SWIDTH 405 0
DWIDTH 27 0
BBX 19 21 4 21
BITMAP
1FF000
1FF000
1FF000
FFFF00
E00F00
E00F00
E00F00
E00F00
E00F00
E00F00
E00F00
E00F00
FFFFE0
1FF1E0
1FF1E0
1FF1E0
000000
1FF000
1FF000
1FF000
1FF000
ENDCHAR
STARTCHAR 00AB
ENCODING 171
SWIDTH 870 0
DWIDTH 58 0
BBX 52 55 2 -7
BITMAP
000000FE0007F0
000000FE0007F0
000000FE0007F0
000000FE0007F0
000000FE0007F0
000000FE0007F0
00003FFE01FFF0
00003F8001FC00
00003F8001FC00
00003F8001FC00
00003F8001FC00
00003F8001FC00
000FFF807FFC00
000FE0007F0000
000FE0007F0000
000FE0007F0000
000FE0007F0000
000FE0007F0000
03FFE01FFF0000
03F8001FC00000
03F8001FC00000
03F8001FC00000
03F8001FC00000
03F8001FC00000
FFF807FFC00000
FE0007F0000000
FE0007F0000000
FE0007F0000000
FE0007F0000000
FE0007F0000000
FFF807FFC00000
03F8001FC00000
03F8001FC00000
03F8001FC00000
03F8001FC00000
03F8001FC00000
03FFE01FFF0000
000FE0007F0000
000FE0007F0000
000FE0007F0000
000FE0007F0000
000FE0007F0000
000FFF807FFC00
00003F8001FC00
00003F8001FC00
00003F8001FC00
00003F8001FC00
00003F8001FC00
00003FFE01FFF0
000000FE0007F0
000000FE0007F0
000000FE0007F0
000000FE0007F0
000000FE0007F0
000000FE0007F0
ENDCHAR
STARTCHAR 00AC
ENCODING 172
SWIDTH 600 0
DWIDTH 40 0
BBX 26 13 7 13
BITMAP
FFFFFFC0
FFFFFFC0
FFFFFFC0
FFFFFFC0
FFFFFFC0
FFFFFFC0
FFFFFFC0
00001FC0
00001FC0
00001FC0
00001FC0
00001FC0
00001FC0
ENDCHAR
STARTCHAR 00AE
ENCODING 174
SWIDTH 405 0
DWIDTH 27 0
BBX 18 17 5 24
BITMAP
1FFC00
1FFC00
1FFC00
E003C0
E003C0
E003C0
E003C0
E1C3C0
E223C0
E203C0
E203C0
E003C0
E003C0
E003C0
1FFC00
1FFC00
1FFC00
ENDCHAR
STARTCHAR 00AF
ENCODING 175
SWIDTH 300 0
DWIDTH 20 0
BBX 19 7 1 36
BITMAP
FFFFE0
FFFFE0
FFFFE0
FFFFE0
FFFFE0
FFFFE0
FFFFE0
ENDCHAR
STARTCHAR 00B0
ENCODING 176
SWIDTH 315 0
DWIDTH 21 0
BBX 13 13 4 26
BITMAP
3FC0
3FC0
3FC0
E038
E038
E038
E038
E038
E038
E038
3FC0
3FC0
3FC0
ENDCHAR
STARTCHAR 00B1
ENCODING 177
SWIDTH 600 0
DWIDTH 40 0
BBX 26 33 7 0
BITMAP
007F8000
007F8000
007F8000
007F8000
007F8000
007F8000
007F8000
007F8000
FFFFFFC0
FFFFFFC0
FFFFFFC0
FFFFFFC0
FFFFFFC0
FFFFFFC0
FFFFFFC0
007F8000
007F8000
007F8000
007F8000
007F8000
007F8000
007F8000
007F8000
00000000
00000000
00000000
00000000
FFFFFFC0
FFFFFFC0
FFFFFFC0
FFFFFFC0
FFFFFFC0
FFFFFFC0
ENDCHAR
STARTCHAR 00B2
ENCODING 178
SWIDTH 360 0
DWIDTH 24 0
BBX 16 22 4 20
BITMAP
1FF8
1FF8
1FF8
FFFF
F00F
F00F
F00F
000F
000F
1FFF
1FF8
1FF8
FFF8
F000
F000
F000
F00F
F00F
F00F
1FF8
1FF8
1FF8
ENDCHAR
STARTCHAR 00B3
ENCODING 179
SWIDTH 360 0
DWIDTH 24 0
BBX 16 22 4 20
BITMAP
1FF8
1FF8
1FF8
FFFF
F00F
F00F
F00F
000F
000F
1FFF
1FF8
1FF8
1FFF
000F
000F
F00F
F00F
F00F
FFFF
1FF8
1FF8
1FF8
ENDCHAR
STARTCHAR 00B4
ENCODING 180
SWIDTH 300 0
DWIDTH 20 0
BBX 10 10 4 36
BITMAP
03C0
03C0
03C0
1FC0
1E00
1E00
FE00
F000
F000
F000
ENDCHAR
STARTCHAR 00B5
ENCODING 181
SWIDTH 585 0
DWIDTH 39 0
BBX 31 43 4 -13
BITMAP
FE0000FE
FE0000FE
FE0000FE
FE0000FE
FE0000FE
FE0000FE
FE0000FE
FE0000FE
FE0000FE
FE0000FE
FE0000FE
FE0000FE
FE0000FE
FE0000FE
FE0000FE
FE0000FE
FE0000FE
FE0000FE
FE0000FE
FE0000FE
FE0000FE
FE0000FE
FE0000FE
FE0000FE
FFFFFFFE
FFFFFF80
FFFFFF80
FFFFFF80
FFFFFF80
FFFFFF80
FFFFFF80
FE000000
FE000000
FE000000
FE000000
FE000000
FE000000
FE000000
FE000000
FE000000
FE000000
FE000000
FE000000
ENDCHAR
STARTCHAR 00B6
ENCODING 182
SWIDTH 765 0
DWIDTH 51 0
BBX 43 55 4 -13
BITMAP
03FFFFFFFFE0
03FFFFFFFFE0
03FFFFFFFFE0
03FFFFFFFFE0
03FFFFFFFFE0
03FFFFFFFFE0
FFFFFFFFFFE0
FFFFFFF00F00
FFFFFFF00F00
FFFFFFF00F00
FFFFFFF00F00
FFFFFFF00F00
FFFFFFF00F00
FFFFFFF00F00
FFFFFFF00F00
FFFFFFF00F00
FFFFFFF00F00
FFFFFFF00F00
FFFFFFF00F00
FFFFFFF00F00
FFFFFFF00F00
FFFFFFF00F00
FFFFFFF00F00
FFFFFFF00F00
FFFFFFF00F00
03FFFFF00F00
03FFFFF00F00
03FFFFF00F00
03FFFFF00F00
03FFFFF00F00
03FFFFF00F00
000000F00F00
000000F00F00
000000F00F00
000000F00F00
000000F00F00
000000F00F00
000000F00F00
000000F00F00
000000F00F00
000000F00F00
000000F00F00
000000F00F00
000000F00F00
000000F00F00
000000F00F00
000000F00F00
000000F00F00
000000F00F00
000000F00F00
000000F00F00
000000F00F00
000000F00F00
000000F00F00
000000F00F00
ENDCHAR
STARTCHAR 00B7
ENCODING 183
SWIDTH 225 0
DWIDTH 15 0
BBX 7 6 4 18
BITMAP
FE
FE
FE
FE
FE
FE
ENDCHAR
STARTCHAR 00B8
ENCODING 184
SWIDTH 300 0
DWIDTH 20 0
BBX 16 15 3 -13
BITMAP
03C0
03C0
03C0
03C0
03C0
03C0
0078
0078
0078
F00F
F00F
F00F
1FF8
1FF8
1FF8
ENDCHAR
STARTCHAR 00B9
ENCODING 185
SWIDTH 270 0
DWIDTH 18 0
BBX 10 22 4 20
BITMAP
1E00
1E00
1E00
FFC0
F3C0
F3C0
F3C0
03C0
03C0
03C0
03C0
03C0
03C0
03C0
03C0
03C0
03C0
03C0
03C0
03C0
03C0
03C0
ENDCHAR
STARTCHAR 00BA
ENCODING 186
SWIDTH 360 0
DWIDTH 24 0
BBX 16 21 4 21
BITMAP
1FF0
1FF0
1FF0
E00F
E00F
E00F
E00F
E00F
E00F
E00F
E00F
E00F
1FF0
1FF0
1FF0
0000
0000
1FF0
1FF0
1FF0
1FF0
ENDCHAR
STARTCHAR 00BB
ENCODING 187
SWIDTH 855 0
DWIDTH 57 0
BBX 52 55 1 -7
BITMAP
FC0007F0000000
FC0007F0000000
FC0007F0000000
FC0007F0000000
FC0007F0000000
FC0007F0000000
FFF007FFC00000
03F0001FC00000
03F0001FC00000
03F0001FC00000
03F0001FC00000
03F0001FC00000
03FFE01FFF0000
000FE0007F0000
000FE0007F0000
000FE0007F0000
000FE0007F0000
000FE0007F0000
000FFF807FFC00
00003F8001FC00
00003F8001FC00
00003F8001FC00
00003F8001FC00
00003F8001FC00
00003FFE01FFF0
000000FE0007F0
000000FE0007F0
000000FE0007F0
000000FE0007F0
000000FE0007F0
00003FFE01FFF0
00003F8001FC00
00003F8001FC00
00003F8001FC00
00003F8001FC00
00003F8001FC00
000FFF807FFC00
000FE0007F0000
000FE0007F0000
000FE0007F0000
000FE0007F0000
000FE0007F0000
03FFE01FFF0000
03F0001FC00000
03F0001FC00000
03F0001FC00000
03F0001FC00000
03F0001FC00000
FFF007FFC00000
FC0007F0000000
FC0007F0000000
FC0007F0000000
FC0007F0000000
FC0007F0000000
FC0007F0000000
ENDCHAR
STARTCHAR 00BC
ENCODING 188
SWIDTH 870 0
DWIDTH 58 0
BBX 50 43 4 -1
BITMAP
1E000000FC0000
1E000000FC0000
1E000000FC0000
FFC00000FC0000
F3C00000FC0000
F3C0003FFC0000
F3C0003FFC0000
03C0003FFC0000
03C0003FFC0000
03C0003FFC0000
03C0003FFC0000
03C0003F000000
03C0003F000000
03C0003F000000
03C0003F000000
03C0003F000000
03C007E0000000
03C007E0000000
03C007E0000000
03C007E0000000
03C007E0000000
03C0FFE0001FC0
0000FFE0001FC0
0000FFE0001FC0
0000FFE000F1C0
0000FFE000F1C0
0000FFE000F1C0
0000FC000781C0
0000FC000781C0
0000FC000781C0
0000FC003C01C0
0000FC003C01C0
003F00003C01C0
003F00003FFFC0
003F00003FFFC0
003F00003FFFC0
003F00003FFFC0
003F00000001C0
003F00000001C0
003F00000001C0
003F00000001C0
003F00000001C0
003F00000001C0
ENDCHAR
STARTCHAR 00BD
ENCODING 189
SWIDTH 810 0
DWIDTH 54 0
BBX 46 43 4 -1
BITMAP
1E00000FC000
1E00000FC000
1E00000FC000
FFC0000FC000
F3C0000FC000
F3C001FFC000
F3C001FFC000
03C001FFC000
03C001FFC000
03C001FFC000
03C001FFC000
03C001F80000
03C001F80000
03C001F80000
03C001F80000
03C001F80000
03C03F000000
03C03F007FE0
03C03F007FE0
03C03F007FE0
03C03F03FFFC
03CFFF03C01C
000FFF03C01C
000FFF03C01C
000FFF00001C
000FFF00001C
000FFF007FFC
000FC0007FE0
000FC0007FE0
000FC0007FE0
000FC003C000
000FC003C000
01F80003C000
01F80003C01C
01F80003C01C
01F80003C01C
01F80003C01C
01F80003C01C
01F80003C01C
01F80003FFFC
01F800007FE0
01F800007FE0
01F800007FE0
ENDCHAR
STARTCHAR 00BE
ENCODING 190
SWIDTH 960 0
DWIDTH 64 0
BBX 56 43 4 -1
BITMAP
1FF8000007E000
1FF8000007E000
1FF8000007E000
FFFF000007E000
F00F000007E000
F00F0000FFE000
F00F0000FFE000
000F0000FFE000
000F0000FFE000
1FFF0000FFE000
1FF80000FFE000
1FF80000FC0000
1FFF0000FC0000
000F0000FC0000
000F0000FC0000
F00F0000FC0000
F00F003F000000
F00F003F000000
FFFF003F000000
1FF8003F000000
1FF8003F000000
1FF807FF00007F
000007FF00007F
000007FF00007F
000007FF00038F
000007FF00038F
000007FF00038F
000007E0001C0F
000007E0001C0F
000007E0001C0F
000007E001E00F
000007E001E00F
0000FC0001E00F
0000FC0001FFFF
0000FC0001FFFF
0000FC0001FFFF
0000FC0001FFFF
0000FC0000000F
0000FC0000000F
0000FC0000000F
0000FC0000000F
0000FC0000000F
0000FC0000000F
ENDCHAR
STARTCHAR 00BF
ENCODING 191
SWIDTH 585 0
DWIDTH 39 0
BBX 31 43 4 -1
BITMAP
000FE000
000FE000
000FE000
000FE000
000FE000
000FE000
000FE000
00000000
00000000
00000000
00000000
00000000
000FE000
000FE000
000FE000
000FE000
000FE000
000FE000
03FFE000
03FFE000
03FFE000
03FFE000
03FFE000
03FFE000
FFFFE0FE
FE0000FE
FE0000FE
FE0000FE
FE0000FE
FE0000FE
FE0000FE
FE0000FE
FE0000FE
FE0000FE
FE0000FE
FE0000FE
FFFFFFFE
03FFFF80
03FFFF80
03FFFF80
03FFFF80
03FFFF80
03FFFF80
ENDCHAR
STARTCHAR 00C0
ENCODING 192
SWIDTH 585 0
DWIDTH 39 0
BBX 31 58 4 -1
BITMAP
00E00000
00E00000
00E00000
00FC0000
001C0000
001C0000
001F8000
00038000
00038000
00038000
00000000
00000000
00000000
00000000
00000000
000FE000
000FE000
000FE000
000FE000
000FE000
000FE000
03FFFF80
03F83F80
03F83F80
03F83F80
03F83F80
03F83F80
FFF83FFE
FE0000FE
FE0000FE
FE0000FE
FE0000FE
FE0000FE
FE0000FE
FE0000FE
FE0000FE
FE0000FE
FE0000FE
FE0000FE
FFFFFFFE
FFFFFFFE
FFFFFFFE
FFFFFFFE
FFFFFFFE
FFFFFFFE
FFFFFFFE
FE0000FE
FE0000FE
FE0000FE
FE0000FE
FE0000FE
FE0000FE
FE0000FE
FE0000FE
FE0000FE
FE0000FE
FE0000FE
FE0000FE
ENDCHAR
STARTCHAR 00C1
ENCODING 193
SWIDTH 585 0
DWIDTH 39 0
BBX 31 58 4 -1
BITMAP
0000E000
0000E000
0000E000
0007E000
00070000
00070000
003F0000
00380000
00380000
00380000
00000000
00000000
00000000
00000000
00000000
000FE000
000FE000
000FE000
000FE000
000FE000
000FE000
03FFFF80
03F83F80
03F83F80
03F83F80
03F83F80
03F83F80
FFF83FFE
FE0000FE
FE0000FE
FE0000FE
FE0000FE
FE0000FE
FE0000FE
FE0000FE
FE0000FE
FE0000FE
FE0000FE
FE0000FE
FFFFFFFE
FFFFFFFE
FFFFFFFE
FFFFFFFE
FFFFFFFE
FFFFFFFE
FFFFFFFE
FE0000FE
FE0000FE
FE0000FE
FE0000FE
FE0000FE
FE0000FE
FE0000FE
FE0000FE
FE0000FE
FE0000FE
FE0000FE
FE0000FE
ENDCHAR
STARTCHAR 00C2
ENCODING 194
SWIDTH 585 0
DWIDTH 39 0
BBX 31 55 4 -1
BITMAP
00038000
00038000
00038000
001FF000
001C7000
001C7000
001C7000
00000000
00000000
00000000
00000000
00000000
000FE000
000FE000
000FE000
000FE000
000FE000
000FE000
03FFFF80
03F83F80
03F83F80
03F83F80
03F83F80
03F83F80
FFF83FFE
FE0000FE
FE0000FE
FE0000FE
FE0000FE
FE0000FE
FE0000FE
FE0000FE
FE0000FE
FE0000FE
FE0000FE
FE0000FE
FFFFFFFE
FFFFFFFE
FFFFFFFE
FFFFFFFE
FFFFFFFE
FFFFFFFE
FFFFFFFE
FE0000FE
FE0000FE
FE0000FE
FE0000FE
FE0000FE
FE0000FE
FE0000FE
FE0000FE
FE0000FE
FE0000FE
FE0000FE
FE0000FE
ENDCHAR
STARTCHAR 00C3
ENCODING 195
SWIDTH 585 0
DWIDTH 39 0
BBX 31 55 4 -1
BITMAP
01FF9E00
01FF9E00
01FF9E00
01FFFE00
01E7FE00
01E7FE00
01E7FE00
00000000
00000000
00000000
00000000
00000000
000FE000
000FE000
000FE000
000FE000
000FE000
000FE000
03FFFF80
03F83F80
03F83F80
03F83F80
03F83F80
03F83F80
FFF83FFE
FE0000FE
FE0000FE
FE0000FE
FE0000FE
FE0000FE
FE0000FE
FE0000FE
FE0000FE
FE0000FE
FE0000FE
FE0000FE
FFFFFFFE
FFFFFFFE
FFFFFFFE
FFFFFFFE
FFFFFFFE
FFFFFFFE
FFFFFFFE
FE0000FE
FE0000FE
FE0000FE
FE0000FE
FE0000FE
FE0000FE
FE0000FE
FE0000FE
FE0000FE
FE0000FE
FE0000FE
FE0000FE
ENDCHAR
STARTCHAR 00C4
ENCODING 196
SWIDTH 585 0
DWIDTH 39 0
BBX 31 55 4 -1
BITMAP
07F00FC0
07F00FC0
07F00FC0
07F00FC0
07F00FC0
07F00FC0
07F00FC0
00000000
00000000
00000000
00000000
00000000
000FE000
000FE000
000FE000
000FE000
000FE000
000FE000
03FFFF80
03F83F80
03F83F80
03F83F80
03F83F80
03F83F80
FFF83FFE
FE0000FE
FE0000FE
FE0000FE
FE0000FE
FE0000FE
FE0000FE
FE0000FE
FE0000FE
FE0000FE
FE0000FE
FE0000FE
FFFFFFFE
FFFFFFFE
FFFFFFFE
FFFFFFFE
FFFFFFFE
FFFFFFFE
FFFFFFFE
FE0000FE
FE0000FE
FE0000FE
FE0000FE
FE0000FE
FE0000FE
FE0000FE
FE0000FE
FE0000FE
FE0000FE
FE0000FE
FE0000FE
ENDCHAR
STARTCHAR 00C5
ENCODING 197
SWIDTH 585 0
DWIDTH 39 0
BBX 31 55 4 -1
BITMAP
000FE000
000FE000
000FE000
000C6000
000C6000
000FE000
000FE000
00000000
00000000
00000000
00000000
00000000
000FE000
000FE000
000FE000
000FE000
000FE000
000FE000
03FFFF80
03F83F80
03F83F80
03F83F80
03F83F80
03F83F80
FFF83FFE
FE0000FE
FE0000FE
FE0000FE
FE0000FE
FE0000FE
FE0000FE
FE0000FE
FE0000FE
FE0000FE
FE0000FE
FE0000FE
FFFFFFFE
FFFFFFFE
FFFFFFFE
FFFFFFFE
FFFFFFFE
FFFFFFFE
FFFFFFFE
FE0000FE
FE0000FE
FE0000FE
FE0000FE
FE0000FE
FE0000FE
FE0000FE
FE0000FE
FE0000FE
FE0000FE
FE0000FE
FE0000FE
ENDCHAR
STARTCHAR 00C6
ENCODING 198
SWIDTH 945 0
DWIDTH 63 0
BBX 55 43 4 -1
BITMAP
000FE003FFFF80
000FE003FFFF80
000FE003FFFF80
000FE003FFFF80
000FE003FFFF80
000FE003FFFF80
03FFFFFFFFFFFE
03F83FFE0000FE
03F83FFE0000FE
03F83FFE0000FE
03F83FFE0000FE
03F83FFE0000FE
FFF83FFE0000FE
FE0000FE000000
FE0000FE000000
FE0000FE000000
FE0000FE000000
FE0000FE000000
FE0000FFFFE000
FE0000FFFFE000
FE0000FFFFE000
FE0000FFFFE000
FE0000FFFFE000
FE0000FFFFE000
FFFFFFFFFFE000
FFFFFFFE000000
FFFFFFFE000000
FFFFFFFE000000
FFFFFFFE000000
FFFFFFFE000000
FFFFFFFE0000FE
FE0000FE0000FE
FE0000FE0000FE
FE0000FE0000FE
FE0000FE0000FE
FE0000FE0000FE
FE0000FFFFFFFE
FE0000FFFFFF80
FE0000FFFFFF80
FE0000FFFFFF80
FE0000FFFFFF80
FE0000FFFFFF80
FE0000FFFFFF80
ENDCHAR
STARTCHAR 00C7
ENCODING 199
SWIDTH 585 0
DWIDTH 39 0
BBX 31 55 4 -13
BITMAP
03FFFF80
03FFFF80
03FFFF80
03FFFF80
03FFFF80
03FFFF80
FFFFFFFE
FE0000FE
FE0000FE
FE0000FE
FE0000FE
FE0000FE
FE0000FE
FE0000FE
FE0000FE
FE0000FE
FE0000FE
FE0000FE
FE0000FE
FE000000
FE000000
FE000000
FE000000
FE000000
FE0000FE
FE0000FE
FE0000FE
FE0000FE
FE0000FE
FE0000FE
FE0000FE
FE0000FE
FE0000FE
FE0000FE
FE0000FE
FE0000FE
FFFFFFFE
03FFFF80
03FFFF80
03FFFF80
03FFFF80
03FFFF80
03FFFF80
00038000
00038000
00038000
00007000
00007000
00007000
00E00E00
00E00E00
00E00E00
001FF000
001FF000
001FF000
ENDCHAR
STARTCHAR 00C8
ENCODING 200
SWIDTH 585 0
DWIDTH 39 0
BBX 31 58 4 -1
BITMAP
00E00000
00E00000
00E00000
00FC0000
001C0000
001C0000
001F8000
00038000
00038000
00038000
00000000
00000000
00000000
00000000
00000000
03FFFF80
03FFFF80
03FFFF80
03FFFF80
03FFFF80
03FFFF80
FFFFFFFE
FE0000FE
FE0000FE
FE0000FE
FE0000FE
FE0000FE
FE0000FE
FE000000
FE000000
FE000000
FE000000
FE000000
FFFFE000
FFFFE000
FFFFE000
FFFFE000
FFFFE000
FFFFE000
FFFFE000
FE000000
FE000000
FE000000
FE000000
FE000000
FE0000FE
FE0000FE
FE0000FE
FE0000FE
FE0000FE
FE0000FE
FFFFFFFE
03FFFF80
03FFFF80
03FFFF80
03FFFF80
03FFFF80
03FFFF80
ENDCHAR
STARTCHAR 00C9
ENCODING 201
SWIDTH 585 0
DWIDTH 39 0
BBX 31 58 4 -1
BITMAP
0000E000
0000E000
0000E000
0007E000
00070000
00070000
003F0000
00380000
00380000
00380000
00000000
00000000
00000000
00000000
00000000
03FFFF80
03FFFF80
03FFFF80
03FFFF80
03FFFF80
03FFFF80
FFFFFFFE
FE0000FE
FE0000FE
FE0000FE
FE0000FE
FE0000FE
FE0000FE
FE000000
FE000000
FE000000
FE000000
FE000000
FFFFE000
FFFFE000
FFFFE000
FFFFE000
FFFFE000
FFFFE000
FFFFE000
FE000000
FE000000
FE000000
FE000000
FE000000
FE0000FE
FE0000FE
FE0000FE
FE0000FE
FE0000FE
FE0000FE
FFFFFFFE
03FFFF80
03FFFF80
03FFFF80
03FFFF80
03FFFF80
03FFFF80
ENDCHAR
STARTCHAR 00CA
ENCODING 202
SWIDTH 585 0
DWIDTH 39 0
BBX 31 55 4 -1
BITMAP
00038000
00038000
00038000
001FF000
001C7000
001C7000
001C7000
00000000
00000000
00000000
00000000
00000000
03FFFF80
03FFFF80
03FFFF80
03FFFF80
03FFFF80
03FFFF80
FFFFFFFE
FE0000FE
FE0000FE
FE0000FE
FE0000FE
FE0000FE
FE0000FE
FE000000
FE000000
FE000000
FE000000
FE000000
FFFFE000
FFFFE000
FFFFE000
FFFFE000
FFFFE000
FFFFE000
FFFFE000
FE000000
FE000000
FE000000
FE000000
FE000000
FE0000FE
FE0000FE
FE0000FE
FE0000FE
FE0000FE
FE0000FE
FFFFFFFE
03FFFF80
03FFFF80
03FFFF80
03FFFF80
03FFFF80
03FFFF80
ENDCHAR
STARTCHAR 00CB
ENCODING 203
SWIDTH 585 0
DWIDTH 39 0
BBX 31 55 4 -1
BITMAP
07F00FC0
07F00FC0
07F00FC0
07F00FC0
07F00FC0
07F00FC0
07F00FC0
00000000
00000000
00000000
00000000
00000000
03FFFF80
03FFFF80
03FFFF80
03FFFF80
03FFFF80
03FFFF80
FFFFFFFE
FE0000FE
FE0000FE
FE0000FE
FE0000FE
FE0000FE
FE0000FE
FE000000
FE000000
FE000000
FE000000
FE000000
FFFFE000
FFFFE000
FFFFE000
FFFFE000
FFFFE000
FFFFE000
FFFFE000
FE000000
FE000000
FE000000
FE000000
FE000000
FE0000FE
FE0000FE
FE0000FE
FE0000FE
FE0000FE
FE0000FE
FFFFFFFE
03FFFF80
03FFFF80
03FFFF80
03FFFF80
03FFFF80
03FFFF80
ENDCHAR
STARTCHAR 00CC
ENCODING 204
SWIDTH 405 0
DWIDTH 27 0
BBX 19 58 4 -1
BITMAP
380000
380000
380000
3F0000
070000
070000
07E000
00E000
00E000
00E000
000000
000000
000000
000000
000000
FFFFE0
FFFFE0
FFFFE0
FFFFE0
FFFFE0
FFFFE0
FFFFE0
03F800
03F800
03F800
03F800
03F800
03F800
03F800
03F800
03F800
03F800
03F800
03F800
03F800
03F800
03F800
03F800
03F800
03F800
03F800
03F800
03F800
03F800
03F800
03F800
03F800
03F800
03F800
03F800
03F800
FFFFE0
FFFFE0
FFFFE0
FFFFE0
FFFFE0
FFFFE0
FFFFE0
ENDCHAR
STARTCHAR 00CD
ENCODING 205
SWIDTH 405 0
DWIDTH 27 0
BBX 19 58 4 -1
BITMAP
003800
003800
003800
01F800
01C000
01C000
0FC000
0E0000
0E0000
0E0000
000000
000000
000000
000000
000000
FFFFE0
FFFFE0
FFFFE0
FFFFE0
FFFFE0
FFFFE0
FFFFE0
03F800
03F800
03F800
03F800
03F800
03F800
03F800
03F800
03F800
03F800
03F800
03F800
03F800
03F800
03F800
03F800
03F800
03F800
03F800
03F800
03F800
03F800
03F800
03F800
03F800
03F800
03F800
03F800
03F800
FFFFE0
FFFFE0
FFFFE0
FFFFE0
FFFFE0
FFFFE0
FFFFE0
ENDCHAR
STARTCHAR 00CE
ENCODING 206
SWIDTH 405 0
DWIDTH 27 0
BBX 19 55 4 -1
BITMAP
00E000
00E000
00E000
07FC00
071C00
071C00
071C00
000000
000000
000000
000000
000000
FFFFE0
FFFFE0
FFFFE0
FFFFE0
FFFFE0
FFFFE0
FFFFE0
03F800
03F800
03F800
03F800
03F800
03F800
03F800
03F800
03F800
03F800
03F800
03F800
03F800
03F800
03F800
03F800
03F800
03F800
03F800
03F800
03F800
03F800
03F800
03F800
03F800
03F800
03F800
03F800
03F800
FFFFE0
FFFFE0
FFFFE0
FFFFE0
FFFFE0
FFFFE0
FFFFE0
ENDCHAR
STARTCHAR 00CF
ENCODING 207
SWIDTH 405 0
DWIDTH 27 0
BBX 21 55 3 -1
BITMAP
FE03F8
FE03F8
FE03F8
FE03F8
FE03F8
FE03F8
FE03F8
000000
000000
000000
000000
000000
7FFFF0
7FFFF0
7FFFF0
7FFFF0
7FFFF0
7FFFF0
7FFFF0
01FC00
01FC00
01FC00
01FC00
01FC00
01FC00
01FC00
01FC00
01FC00
01FC00
01FC00
01FC00
01FC00
01FC00
01FC00
01FC00
01FC00
01FC00
01FC00
01FC00
01FC00
01FC00
01FC00
01FC00
01FC00
01FC00
01FC00
01FC00
01FC00
7FFFF0
7FFFF0
7FFFF0
7FFFF0
7FFFF0
7FFFF0
7FFFF0
ENDCHAR
STARTCHAR 00D0
ENCODING 208
SWIDTH 585 0
DWIDTH 39 0
BBX 34 43 1 -1
BITMAP
1FFFFC0000
1FFFFC0000
1FFFFC0000
1FFFFC0000
1FFFFC0000
1FFFFC0000
1FFFFFF000
1FC007F000
1FC007F000
1FC007F000
1FC007F000
1FC007F000
1FC007FFC0
1FC0001FC0
1FC0001FC0
1FC0001FC0
1FC0001FC0
1FC0001FC0
1FC0001FC0
FFFF001FC0
FFFF001FC0
FFFF001FC0
FFFF001FC0
FFFF001FC0
FFFF001FC0
FFFF001FC0
1FC0001FC0
1FC0001FC0
1FC0001FC0
1FC0001FC0
1FC007FFC0
1FC007F000
1FC007F000
1FC007F000
1FC007F000
1FC007F000
1FFFFFF000
1FFFFC0000
1FFFFC0000
1FFFFC0000
1FFFFC0000
1FFFFC0000
1FFFFC0000
ENDCHAR
STARTCHAR 00D1
ENCODING 209
SWIDTH 585 0
DWIDTH 39 0
BBX 31 55 4 -1
BITMAP
01FF9E00
01FF9E00
01FF9E00
01FFFE00
01E7FE00
01E7FE00
01E7FE00
00000000
00000000
00000000
00000000
00000000
FE0000FE
FE0000FE
FE0000FE
FE0000FE
FE0000FE
FE0000FE
FFF800FE
FFF800FE
FFF800FE
FFF800FE
FFF800FE
FFF800FE
FFFFE0FE
FE0FE0FE
FE0FE0FE
FE0FE0FE
FE0FE0FE
FE0FE0FE
FE0FE0FE
FE0FE0FE
FE0FE0FE
FE0FE0FE
FE0FE0FE
FE0FE0FE
FE0FE0FE
FE0FE0FE
FE0FE0FE
FE0FE0FE
FE0FE0FE
FE0FE0FE
FE0FFFFE
FE003FFE
FE003FFE
FE003FFE
FE003FFE
FE003FFE
FE003FFE
FE0000FE
FE0000FE
FE0000FE
FE0000FE
FE0000FE
FE0000FE
ENDCHAR
STARTCHAR 00D2
ENCODING 210
SWIDTH 585 0
DWIDTH 39 0
BBX 31 58 4 -1
BITMAP
00E00000
00E00000
00E00000
00FC0000
001C0000
001C0000
001F8000
00038000
00038000
00038000
00000000
00000000
00000000
00000000
00000000
03FFFF80
03FFFF80
03FFFF80
03FFFF80
03FFFF80
03FFFF80
FFFFFFFE
FE0000FE
FE0000FE
FE0000FE
FE0000FE
FE0000FE
FE0000FE
FE0000FE
FE0000FE
FE0000FE
FE0000FE
FE0000FE
FE0000FE
FE0000FE
FE0000FE
FE0000FE
FE0000FE
FE0000FE
FE0000FE
FE0000FE
FE0000FE
FE0000FE
FE0000FE
FE0000FE
FE0000FE
FE0000FE
FE0000FE
FE0000FE
FE0000FE
FE0000FE
FFFFFFFE
03FFFF80
03FFFF80
03FFFF80
03FFFF80
03FFFF80
03FFFF80
ENDCHAR
STARTCHAR 00D3
ENCODING 211
SWIDTH 585 0
DWIDTH 39 0
BBX 31 58 4 -1
BITMAP
0000E000
0000E000
0000E000
0007E000
00070000
00070000
003F0000
00380000
00380000
00380000
00000000
00000000
00000000
00000000
00000000
03FFFF80
03FFFF80
03FFFF80
03FFFF80
03FFFF80
03FFFF80
FFFFFFFE
FE0000FE
FE0000FE
FE0000FE
FE0000FE
FE0000FE
FE0000FE
FE0000FE
FE0000FE
FE0000FE
FE0000FE
FE0000FE
FE0000FE
FE0000FE
FE0000FE
FE0000FE
FE0000FE
FE0000FE
FE0000FE
FE0000FE
FE0000FE
FE0000FE
FE0000FE
FE0000FE
FE0000FE
FE0000FE
FE0000FE
FE0000FE
FE0000FE
FE0000FE
FFFFFFFE
03FFFF80
03FFFF80
03FFFF80
03FFFF80
03FFFF80
03FFFF80
ENDCHAR
STARTCHAR 00D4
ENCODING 212
SWIDTH 585 0
DWIDTH 39 0
BBX 31 55 4 -1
BITMAP
00038000
00038000
00038000
001FF000
001C7000
001C7000
001C7000
00000000
00000000
00000000
00000000
00000000
03FFFF80
03FFFF80
03FFFF80
03FFFF80
03FFFF80
03FFFF80
FFFFFFFE
FE0000FE
FE0000FE
FE0000FE
FE0000FE
FE0000FE
FE0000FE
FE0000FE
FE0000FE
FE0000FE
FE0000FE
FE0000FE
FE0000FE
FE0000FE
FE0000FE
FE0000FE
FE0000FE
FE0000FE
FE0000FE
FE0000FE
FE0000FE
FE0000FE
FE0000FE
FE0000FE
FE0000FE
FE0000FE
FE0000FE
FE0000FE
FE0000FE
FE0000FE
FFFFFFFE
03FFFF80
03FFFF80
03FFFF80
03FFFF80
03FFFF80
03FFFF80
ENDCHAR
STARTCHAR 00D5
ENCODING 213
SWIDTH 585 0
DWIDTH 39 0
BBX 31 55 4 -1
BITMAP
01FF9E00
01FF9E00
01FF9E00
01FFFE00
01E7FE00
01E7FE00
01E7FE00
00000000
00000000
00000000
00000000
00000000
03FFFF80
03FFFF80
03FFFF80
03FFFF80
03FFFF80
03FFFF80
FFFFFFFE
FE0000FE
FE0000FE
FE0000FE
FE0000FE
FE0000FE
FE0000FE
FE0000FE
FE0000FE
FE0000FE
FE0000FE
FE0000FE
FE0000FE
FE0000FE
FE0000FE
FE0000FE
FE0000FE
FE0000FE
FE0000FE
FE0000FE
FE0000FE
FE0000FE
FE0000FE
FE0000FE
FE0000FE
FE0000FE
FE0000FE
FE0000FE
FE0000FE
FE0000FE
FFFFFFFE
03FFFF80
03FFFF80
03FFFF80
03FFFF80
03FFFF80
03FFFF80
ENDCHAR
STARTCHAR 00D6
ENCODING 214
SWIDTH 585 0
DWIDTH 39 0
BBX 31 55 4 -1
BITMAP
07F00FC0
07F00FC0
07F00FC0
07F00FC0
07F00FC0
07F00FC0
07F00FC0
00000000
00000000
00000000
00000000
00000000
03FFFF80
03FFFF80
03FFFF80
03FFFF80
03FFFF80
03FFFF80
FFFFFFFE
FE0000FE
FE0000FE
FE0000FE
FE0000FE
FE0000FE
FE0000FE
FE0000FE
FE0000FE
FE0000FE
FE0000FE
FE0000FE
FE0000FE
FE0000FE
FE0000FE
FE0000FE
FE0000FE
FE0000FE
FE0000FE
FE0000FE
FE0000FE
FE0000FE
FE0000FE
FE0000FE
FE0000FE
FE0000FE
FE0000FE
FE0000FE
FE0000FE
FE0000FE
FFFFFFFE
03FFFF80
03FFFF80
03FFFF80
03FFFF80
03FFFF80
03FFFF80
ENDCHAR
STARTCHAR 00D7
ENCODING 215
SWIDTH 600 0
DWIDTH 40 0
BBX 28 27 6 7
BITMAP
0C000200
1E000700
3F000F80
7F801FC0
FFC03FF0
3FE07FE0
1FF0FFC0
0FF9FF80
07FFFF00
03FFFE00
01FFFC00
00FFF800
007FF000
007FE000
00FFF000
01FFF800
03FFFC00
07FFFE00
0FFDFF00
1FF8FF80
3FF07FC0
7FE03FE0
3FC01FC0
1F800F80
0F000700
06000200
04000000
ENDCHAR
STARTCHAR 00D8
ENCODING 216
SWIDTH 630 0
DWIDTH 42 0
BBX 33 48 4 -3
BITMAP
0000001F80
0000003F80
0000007F00
01FFFFFF00
01FFFFFE00
01FFFFFE00
01FFFFFC00
01FFFFFC00
01FFFFF800
7FFFFFFF00
7F0007FF00
7F000FFF00
7F000FFF00
7F001FFF00
7F001FFF00
7F003FFF00
7F003FFF00
7F007F7F00
7F007E7F00
7F00FE7F00
7F01FC7F00
7F01FC7F00
7F03F87F00
7F03F87F00
7F07F07F00
7F07F07F00
7F0FE07F00
7F0FC07F00
7F1FC07F00
7F3F807F00
7F3F807F00
7F7F007F00
7F7F007F00
7FFE007F00
7FFE007F00
7FFC007F00
7FF8007F00
7FF8007F00
7FF0007F00
7FFFFFFF00
0FFFFFC000
0FFFFFC000
1FFFFFC000
1FFFFFC000
3FFFFFC000
3FFFFFC000
7F00000000
FE00000000
ENDCHAR
STARTCHAR 00D9
ENCODING 217
SWIDTH 585 0
DWIDTH 39 0
BBX 31 58 4 -1
BITMAP
00E00000
00E00000
00E00000
00FC0000
001C0000
001C0000
001F8000
00038000
00038000
00038000
00000000
00000000
00000000
00000000
00000000
FE0000FE
FE0000FE
FE0000FE
FE0000FE
FE0000FE
FE0000FE
FE0000FE
FE0000FE
FE0000FE
FE0000FE
FE0000FE
FE0000FE
FE0000FE
FE0000FE
FE0000FE
FE0000FE
FE0000FE
FE0000FE
FE0000FE
FE0000FE
FE0000FE
FE0000FE
FE0000FE
FE0000FE
FE0000FE
FE0000FE
FE0000FE
FE0000FE
FE0000FE
FE0000FE
FE0000FE
FE0000FE
FE0000FE
FE0000FE
FE0000FE
FE0000FE
FFFFFFFE
03FFFF80
03FFFF80
03FFFF80
03FFFF80
03FFFF80
03FFFF80
ENDCHAR
STARTCHAR 00DA
ENCODING 218
SWIDTH 585 0
DWIDTH 39 0
BBX 31 58 4 -1
BITMAP
0000E000
0000E000
0000E000
0007E000
00070000
00070000
003F0000
00380000
00380000
00380000
00000000
00000000
00000000
00000000
00000000
FE0000FE
FE0000FE
FE0000FE
FE0000FE
FE0000FE
FE0000FE
FE0000FE
FE0000FE
FE0000FE
FE0000FE
FE0000FE
FE0000FE
FE0000FE
FE0000FE
FE0000FE
FE0000FE
FE0000FE
FE0000FE
FE0000FE
FE0000FE
FE0000FE
FE0000FE
FE0000FE
FE0000FE
FE0000FE
FE0000FE
FE0000FE
FE0000FE
FE0000FE
FE0000FE
FE0000FE
FE0000FE
FE0000FE
FE0000FE
FE0000FE
FE0000FE
FFFFFFFE
03FFFF80
03FFFF80
03FFFF80
03FFFF80
03FFFF80
03FFFF80
ENDCHAR
STARTCHAR 00DB
ENCODING 219
SWIDTH 585 0
DWIDTH 39 0
BBX 31 55 4 -1
BITMAP
00038000
00038000
00038000
001FF000
001C7000
001C7000
001C7000
00000000
00000000
00000000
00000000
00000000
FE0000FE
FE0000FE
FE0000FE
FE0000FE
FE0000FE
FE0000FE
FE0000FE
FE0000FE
FE0000FE
FE0000FE
FE0000FE
FE0000FE
FE0000FE
FE0000FE
FE0000FE
FE0000FE
FE0000FE
FE0000FE
FE0000FE
FE0000FE
FE0000FE
FE0000FE
FE0000FE
FE0000FE
FE0000FE
FE0000FE
FE0000FE
FE0000FE
FE0000FE
FE0000FE
FE0000FE
FE0000FE
FE0000FE
FE0000FE
FE0000FE
FE0000FE
FFFFFFFE
03FFFF80
03FFFF80
03FFFF80
03FFFF80
03FFFF80
03FFFF80
ENDCHAR
STARTCHAR 00DC
ENCODING 220
SWIDTH 585 0
DWIDTH 39 0
BBX 31 55 4 -1
BITMAP
07F00FC0
07F00FC0
07F00FC0
07F00FC0
07F00FC0
07F00FC0
07F00FC0
00000000
00000000
00000000
00000000
00000000
FE0000FE
FE0000FE
FE0000FE
FE0000FE
FE0000FE
FE0000FE
FE0000FE
FE0000FE
FE0000FE
FE0000FE
FE0000FE
FE0000FE
FE0000FE
FE0000FE
FE0000FE
FE0000FE
FE0000FE
FE0000FE
FE0000FE
FE0000FE
FE0000FE
FE0000FE
FE0000FE
FE0000FE
FE0000FE
FE0000FE
FE0000FE
FE0000FE
FE0000FE
FE0000FE
FE0000FE
FE0000FE
FE0000FE
FE0000FE
FE0000FE
FE0000FE
FFFFFFFE
03FFFF80
03FFFF80
03FFFF80
03FFFF80
03FFFF80
03FFFF80
ENDCHAR
STARTCHAR 00DD
ENCODING 221
SWIDTH 585 0
DWIDTH 39 0
BBX 31 58 4 -1
BITMAP
0000E000
0000E000
0000E000
0007E000
00070000
00070000
003F0000
00380000
00380000
00380000
00000000
00000000
00000000
00000000
00000000
FE0000FE
FE0000FE
FE0000FE
FE0000FE
FE0000FE
FE0000FE
FE0000FE
FE0000FE
FE0000FE
FE0000FE
FE0000FE
FE0000FE
FFF83FFE
03F83F80
03F83F80
03F83F80
03F83F80
03F83F80
03FFFF80
000FE000
000FE000
000FE000
000FE000
000FE000
000FE000
000FE000
000FE000
000FE000
000FE000
000FE000
000FE000
000FE000
000FE000
000FE000
000FE000
000FE000
000FE000
000FE000
000FE000
000FE000
000FE000
000FE000
000FE000
ENDCHAR
STARTCHAR 00DE
ENCODING 222
SWIDTH 585 0
DWIDTH 39 0
BBX 31 43 4 -1
BITMAP
FE000000
FE000000
FE000000
FE000000
FE000000
FE000000
FE000000
FFFFFF80
FFFFFF80
FFFFFF80
FFFFFF80
FFFFFF80
FFFFFF80
FE0000FE
FE0000FE
FE0000FE
FE0000FE
FE0000FE
FE0000FE
FE0000FE
FE0000FE
FE0000FE
FE0000FE
FE0000FE
FE0000FE
FE0000FE
FE0000FE
FE0000FE
FE0000FE
FE0000FE
FE0000FE
FFFFFFFE
FFFFFF80
FFFFFF80
FFFFFF80
FFFFFF80
FFFFFF80
FFFFFF80
FE000000
FE000000
FE000000
FE000000
FE000000
ENDCHAR
STARTCHAR 00DF
ENCODING 223
SWIDTH 585 0
DWIDTH 39 0
BBX 31 43 4 -1
BITMAP
FFFFFF80
FFFFFF80
FFFFFF80
FFFFFF80
FFFFFF80
FFFFFF80
FFFFFFFE
FE0000FE
FE0000FE
FE0000FE
FE0000FE
FE0000FE
FE0000FE
FE0000FE
FE0000FE
FE0000FE
FE0000FE
FE0000FE
FE0FFFFE
FE0FFF80
FE0FFF80
FE0FFF80
FE0FFF80
FE0FFF80
FE0FFFFE
FE0000FE
FE0000FE
FE0000FE
FE0000FE
FE0000FE
FE0000FE
FE0000FE
FE0000FE
FE0000FE
FE0000FE
FE0000FE
FE0FFFFE
FE0FFF80
FE0FFF80
FE0FFF80
FE0FFF80
FE0FFF80
FE0FFF80
ENDCHAR
STARTCHAR 00E0
ENCODING 224
SWIDTH 675 0
DWIDTH 45 0
BBX 37 46 4 -1
BITMAP
00F0000000
00F0000000
00F0000000
00FE000000
001E000000
001E000000
001FC00000
0003C00000
0003C00000
0003C00000
0000000000
0000000000
0000000000
0000000000
0000000000
03FFFF8000
03FFFF8000
03FFFF8000
03FFFF8000
03FFFF8000
03FFFF8000
FFFFFFFE00
FE0000FE00
FE0000FE00
FE0000FE00
FE0000FE00
FE0000FE00
FE0000FE00
FE0000FE00
FE0000FE00
FE0000FE00
FE0000FE00
FE0000FE00
FE0000FE00
FE0000FE00
FE0000FE00
FE0000FE00
FE0000FE00
FE0000FE00
FFFFFFFFF8
03FFFF83F8
03FFFF83F8
03FFFF83F8
03FFFF83F8
03FFFF83F8
03FFFF83F8
ENDCHAR
STARTCHAR 00E1
ENCODING 225
SWIDTH 675 0
DWIDTH 45 0
BBX 37 46 4 -1
BITMAP
0000F00000
0000F00000
0000F00000
0007F00000
0007800000
0007800000
003F800000
003C000000
003C000000
003C000000
0000000000
0000000000
0000000000
0000000000
0000000000
03FFFF8000
03FFFF8000
03FFFF8000
03FFFF8000
03FFFF8000
03FFFF8000
FFFFFFFE00
FE0000FE00
FE0000FE00
FE0000FE00
FE0000FE00
FE0000FE00
FE0000FE00
FE0000FE00
FE0000FE00
FE0000FE00
FE0000FE00
FE0000FE00
FE0000FE00
FE0000FE00
FE0000FE00
FE0000FE00
FE0000FE00
FE0000FE00
FFFFFFFFF8
03FFFF83F8
03FFFF83F8
03FFFF83F8
03FFFF83F8
03FFFF83F8
03FFFF83F8
ENDCHAR
STARTCHAR 00E2
ENCODING 226
SWIDTH 675 0
DWIDTH 45 0
BBX 37 43 4 -1
BITMAP
0003C00000
0003C00000
0003C00000
001FF80000
001E780000
001E780000
001E780000
0000000000
0000000000
0000000000
0000000000
0000000000
03FFFF8000
03FFFF8000
03FFFF8000
03FFFF8000
03FFFF8000
03FFFF8000
FFFFFFFE00
FE0000FE00
FE0000FE00
FE0000FE00
FE0000FE00
FE0000FE00
FE0000FE00
FE0000FE00
FE0000FE00
FE0000FE00
FE0000FE00
FE0000FE00
FE0000FE00
FE0000FE00
FE0000FE00
FE0000FE00
FE0000FE00
FE0000FE00
FFFFFFFFF8
03FFFF83F8
03FFFF83F8
03FFFF83F8
03FFFF83F8
03FFFF83F8
03FFFF83F8
ENDCHAR
STARTCHAR 00E3
ENCODING 227
SWIDTH 675 0
DWIDTH 45 0
BBX 37 43 4 -1
BITMAP
01FFCF0000
01FFCF0000
01FFCF0000
01FFFF0000
01E3FF0000
01E3FF0000
01E3FF0000
0000000000
0000000000
0000000000
0000000000
0000000000
03FFFF8000
03FFFF8000
03FFFF8000
03FFFF8000
03FFFF8000
03FFFF8000
FFFFFFFE00
FE0000FE00
FE0000FE00
FE0000FE00
FE0000FE00
FE0000FE00
FE0000FE00
FE0000FE00
FE0000FE00
FE0000FE00
FE0000FE00
FE0000FE00
FE0000FE00
FE0000FE00
FE0000FE00
FE0000FE00
FE0000FE00
FE0000FE00
FFFFFFFFF8
03FFFF83F8
03FFFF83F8
03FFFF83F8
03FFFF83F8
03FFFF83F8
03FFFF83F8
ENDCHAR
STARTCHAR 00E4
ENCODING 228
SWIDTH 675 0
DWIDTH 45 0
BBX 37 43 4 -1
BITMAP
03F80FE000
03F80FE000
03F80FE000
03F80FE000
03F80FE000
03F80FE000
03F80FE000
0000000000
0000000000
0000000000
0000000000
0000000000
03FFFF8000
03FFFF8000
03FFFF8000
03FFFF8000
03FFFF8000
03FFFF8000
FFFFFFFE00
FE0000FE00
FE0000FE00
FE0000FE00
FE0000FE00
FE0000FE00
FE0000FE00
FE0000FE00
FE0000FE00
FE0000FE00
FE0000FE00
FE0000FE00
FE0000FE00
FE0000FE00
FE0000FE00
FE0000FE00
FE0000FE00
FE0000FE00
FFFFFFFFF8
03FFFF83F8
03FFFF83F8
03FFFF83F8
03FFFF83F8
03FFFF83F8
03FFFF83F8
ENDCHAR
STARTCHAR 00E5
ENCODING 229
SWIDTH 675 0
DWIDTH 45 0
BBX 37 43 4 -1
BITMAP
0007E00000
0007E00000
0007E00000
0006600000
0006600000
0007E00000
0007E00000
0000000000
0000000000
0000000000
0000000000
0000000000
03FFFF8000
03FFFF8000
03FFFF8000
03FFFF8000
03FFFF8000
03FFFF8000
FFFFFFFE00
FE0000FE00
FE0000FE00
FE0000FE00
FE0000FE00
FE0000FE00
FE0000FE00
FE0000FE00
FE0000FE00
FE0000FE00
FE0000FE00
FE0000FE00
FE0000FE00
FE0000FE00
FE0000FE00
FE0000FE00
FE0000FE00
FE0000FE00
FFFFFFFFF8
03FFFF83F8
03FFFF83F8
03FFFF83F8
03FFFF83F8
03FFFF83F8
03FFFF83F8
ENDCHAR
STARTCHAR 00E6
ENCODING 230
SWIDTH 1125 0
DWIDTH 75 0
BBX 67 31 4 -1
BITMAP
03FFFF80001FFFF800
03FFFF80001FFFF800
03FFFF80001FFFF800
03FFFF80001FFFF800
03FFFF80001FFFF800
03FFFF80001FFFF800
FFFFFFFE0FFFFFFFE0
FE0000FE0FE00007E0
FE0000FE0FE00007E0
FE0000FE0FE00007E0
FE0000FE0FE00007E0
FE0000FE0FE00007E0
FE0000FE0FFFFE07E0
FE0000FE0FFFFE0000
FE0000FE0FFFFE0000
FE0000FE0FFFFE0000
FE0000FE0FFFFE0000
FE0000FE0FFFFE0000
FE0000FE0FFFFE07E0
FE0000FE0FE00007E0
FE0000FE0FE00007E0
FE0000FE0FE00007E0
FE0000FE0FE00007E0
FE0000FE0FE00007E0
FFFFFFFFFFFFFFFFE0
03FFFF83F81FFFF800
03FFFF83F81FFFF800
03FFFF83F81FFFF800
03FFFF83F81FFFF800
03FFFF83F81FFFF800
03FFFF83F81FFFF800
ENDCHAR
STARTCHAR 00E7
ENCODING 231
SWIDTH 585 0
DWIDTH 39 0
BBX 31 43 4 -13
BITMAP
03FFFF80
03FFFF80
03FFFF80
03FFFF80
03FFFF80
03FFFF80
FFFFFFFE
FE0000FE
FE0000FE
FE0000FE
FE0000FE
FE0000FE
FE0000FE
FE000000
FE000000
FE000000
FE000000
FE000000
FE0000FE
FE0000FE
FE0000FE
FE0000FE
FE0000FE
FE0000FE
FFFFFFFE
03FFFF80
03FFFF80
03FFFF80
03FFFF80
03FFFF80
03FFFF80
00038000
00038000
00038000
00007000
00007000
00007000
00E00E00
00E00E00
00E00E00
001FF000
001FF000
001FF000
ENDCHAR
STARTCHAR 00E8
ENCODING 232
SWIDTH 585 0
DWIDTH 39 0
BBX 31 46 4 -1
BITMAP
00E00000
00E00000
00E00000
00FC0000
001C0000
001C0000
001F8000
00038000
00038000
00038000
00000000
00000000
00000000
00000000
00000000
03FFFF80
03FFFF80
03FFFF80
03FFFF80
03FFFF80
03FFFF80
FFFFFFFE
FE0000FE
FE0000FE
FE0000FE
FE0000FE
FE0000FE
FFFFE0FE
FFFFE000
FFFFE000
FFFFE000
FFFFE000
FFFFE000
FFFFE0FE
FE0000FE
FE0000FE
FE0000FE
FE0000FE
FE0000FE
FFFFFFFE
03FFFF80
03FFFF80
03FFFF80
03FFFF80
03FFFF80
03FFFF80
ENDCHAR
STARTCHAR 00E9
ENCODING 233
SWIDTH 585 0
DWIDTH 39 0
BBX 31 46 4 -1
BITMAP
0000E000
0000E000
0000E000
0007E000
00070000
00070000
003F0000
00380000
00380000
00380000
00000000
00000000
00000000
00000000
00000000
03FFFF80
03FFFF80
03FFFF80
03FFFF80
03FFFF80
03FFFF80
FFFFFFFE
FE0000FE
FE0000FE
FE0000FE
FE0000FE
FE0000FE
FFFFE0FE
FFFFE000
FFFFE000
FFFFE000
FFFFE000
FFFFE000
FFFFE0FE
FE0000FE
FE0000FE
FE0000FE
FE0000FE
FE0000FE
FFFFFFFE
03FFFF80
03FFFF80
03FFFF80
03FFFF80
03FFFF80
03FFFF80
ENDCHAR
STARTCHAR 00EA
ENCODING 234
SWIDTH 585 0
DWIDTH 39 0
BBX 31 43 4 -1
BITMAP
00038000
00038000
00038000
001FF000
001C7000
001C7000
001C7000
00000000
00000000
00000000
00000000
00000000
03FFFF80
03FFFF80
03FFFF80
03FFFF80
03FFFF80
03FFFF80
FFFFFFFE
FE0000FE
FE0000FE
FE0000FE
FE0000FE
FE0000FE
FFFFE0FE
FFFFE000
FFFFE000
FFFFE000
FFFFE000
FFFFE000
FFFFE0FE
FE0000FE
FE0000FE
FE0000FE
FE0000FE
FE0000FE
FFFFFFFE
03FFFF80
03FFFF80
03FFFF80
03FFFF80
03FFFF80
03FFFF80
ENDCHAR
STARTCHAR 00EB
ENCODING 235
SWIDTH 585 0
DWIDTH 39 0
BBX 31 43 4 -1
BITMAP
07F00FC0
07F00FC0
07F00FC0
07F00FC0
07F00FC0
07F00FC0
07F00FC0
00000000
00000000
00000000
00000000
00000000
03FFFF80
03FFFF80
03FFFF80
03FFFF80
03FFFF80
03FFFF80
FFFFFFFE
FE0000FE
FE0000FE
FE0000FE
FE0000FE
FE0000FE
FFFFE0FE
FFFFE000
FFFFE000
FFFFE000
FFFFE000
FFFFE000
FFFFE0FE
FE0000FE
FE0000FE
FE0000FE
FE0000FE
FE0000FE
FFFFFFFE
03FFFF80
03FFFF80
03FFFF80
03FFFF80
03FFFF80
03FFFF80
ENDCHAR
STARTCHAR 00EC
ENCODING 236
SWIDTH 225 0
DWIDTH 15 0
BBX 11 46 0 -1
BITMAP
E000
E000
E000
FC00
1C00
1C00
1F80
0380
0380
0380
0000
0000
0000
0000
0000
0FE0
0FE0
0FE0
0FE0
0FE0
0FE0
0FE0
0FE0
0FE0
0FE0
0FE0
0FE0
0FE0
0FE0
0FE0
0FE0
0FE0
0FE0
0FE0
0FE0
0FE0
0FE0
0FE0
0FE0
0FE0
0FE0
0FE0
0FE0
0FE0
0FE0
0FE0
ENDCHAR
STARTCHAR 00ED
ENCODING 237
SWIDTH 225 0
DWIDTH 15 0
BBX 9 46 2 -1
BITMAP
0380
0380
0380
1F80
1C00
1C00
FC00
E000
E000
E000
0000
0000
0000
0000
0000
3F80
3F80
3F80
3F80
3F80
3F80
3F80
3F80
3F80
3F80
3F80
3F80
3F80
3F80
3F80
3F80
3F80
3F80
3F80
3F80
3F80
3F80
3F80
3F80
3F80
3F80
3F80
3F80
3F80
3F80
3F80
ENDCHAR
STARTCHAR 00EE
ENCODING 238
SWIDTH 225 0
DWIDTH 15 0
BBX 9 43 3 -1
BITMAP
1C00
1C00
1C00
FF80
E380
E380
E380
0000
0000
0000
0000
0000
7F00
7F00
7F00
7F00
7F00
7F00
7F00
7F00
7F00
7F00
7F00
7F00
7F00
7F00
7F00
7F00
7F00
7F00
7F00
7F00
7F00
7F00
7F00
7F00
7F00
7F00
7F00
7F00
7F00
7F00
7F00
ENDCHAR
STARTCHAR 00EF
ENCODING 239
SWIDTH 225 0
DWIDTH 15 0
BBX 17 43 -1 -1
BITMAP
FE3F80
FE3F80
FE3F80
FE3F80
FE3F80
FE3F80
FE3F80
000000
000000
000000
000000
000000
07F000
07F000
07F000
07F000
07F000
07F000
07F000
07F000
07F000
07F000
07F000
07F000
07F000
07F000
07F000
07F000
07F000
07F000
07F000
07F000
07F000
07F000
07F000
07F000
07F000
07F000
07F000
07F000
07F000
07F000
07F000
ENDCHAR
STARTCHAR 00F0
ENCODING 240
SWIDTH 600 0
DWIDTH 40 0
BBX 33 48 4 -1
BITMAP
0000003F80
0000003F80
0000007F00
000000FE00
000000FC00
03FFFFFC00
03FFFFF800
03FFFFF000
03FFFFF000
03FFFFE000
03FFFFC000
FFFFFFFE00
FE003FFE00
FE007FFE00
FE00FEFE00
FE00FEFE00
FE01FCFE00
FE03F8FE00
0007F0FE00
000000FE00
000000FE00
000000FE00
000000FE00
03FFFFFE00
03FFFFFE00
03FFFFFE00
03FFFFFE00
03FFFFFE00
03FFFFFE00
FFFFFFFE00
FE0000FE00
FE0000FE00
FE0000FE00
FE0000FE00
FE0000FE00
FE0000FE00
FE0000FE00
FE0000FE00
FE0000FE00
FE0000FE00
FE0000FE00
FFFFFFFE00
03FFFF8000
03FFFF8000
03FFFF8000
03FFFF8000
03FFFF8000
03FFFF8000
ENDCHAR
STARTCHAR 00F1
ENCODING 241
SWIDTH 585 0
DWIDTH 39 0
BBX 31 43 4 -1
BITMAP
01FF9E00
01FF9E00
01FF9E00
01FFFE00
01E7FE00
01E7FE00
01E7FE00
00000000
00000000
00000000
00000000
00000000
FFFFFF80
FFFFFF80
FFFFFF80
FFFFFF80
FFFFFF80
FFFFFF80
FFFFFFFE
FE0000FE
FE0000FE
FE0000FE
FE0000FE
FE0000FE
FE0000FE
FE0000FE
FE0000FE
FE0000FE
FE0000FE
FE0000FE
FE0000FE
FE0000FE
FE0000FE
FE0000FE
FE0000FE
FE0000FE
FE0000FE
FE0000FE
FE0000FE
FE0000FE
FE0000FE
FE0000FE
FE0000FE
ENDCHAR
STARTCHAR 00F2
ENCODING 242
SWIDTH 585 0
DWIDTH 39 0
BBX 31 46 4 -1
BITMAP
00E00000
00E00000
00E00000
00FC0000
001C0000
001C0000
001F8000
00038000
00038000
00038000
00000000
00000000
00000000
00000000
00000000
03FFFF80
03FFFF80
03FFFF80
03FFFF80
03FFFF80
03FFFF80
FFFFFFFE
FE0000FE
FE0000FE
FE0000FE
FE0000FE
FE0000FE
FE0000FE
FE0000FE
FE0000FE
FE0000FE
FE0000FE
FE0000FE
FE0000FE
FE0000FE
FE0000FE
FE0000FE
FE0000FE
FE0000FE
FFFFFFFE
03FFFF80
03FFFF80
03FFFF80
03FFFF80
03FFFF80
03FFFF80
ENDCHAR
STARTCHAR 00F3
ENCODING 243
SWIDTH 585 0
DWIDTH 39 0
BBX 31 46 4 -1
BITMAP
0000E000
0000E000
0000E000
0007E000
00070000
00070000
003F0000
00380000
00380000
00380000
00000000
00000000
00000000
00000000
00000000
03FFFF80
03FFFF80
03FFFF80
03FFFF80
03FFFF80
03FFFF80
FFFFFFFE
FE0000FE
FE0000FE
FE0000FE
FE0000FE
FE0000FE
FE0000FE
FE0000FE
FE0000FE
FE0000FE
FE0000FE
FE0000FE
FE0000FE
FE0000FE
FE0000FE
FE0000FE
FE0000FE
FE0000FE
FFFFFFFE
03FFFF80
03FFFF80
03FFFF80
03FFFF80
03FFFF80
03FFFF80
ENDCHAR
STARTCHAR 00F4
ENCODING 244
SWIDTH 585 0
DWIDTH 39 0
BBX 31 43 4 -1
BITMAP
00038000
00038000
00038000
001FF000
001C7000
001C7000
001C7000
00000000
00000000
00000000
00000000
00000000
03FFFF80
03FFFF80
03FFFF80
03FFFF80
03FFFF80
03FFFF80
FFFFFFFE
FE0000FE
FE0000FE
FE0000FE
FE0000FE
FE0000FE
FE0000FE
FE0000FE
FE0000FE
FE0000FE
FE0000FE
FE0000FE
FE0000FE
FE0000FE
FE0000FE
FE0000FE
FE0000FE
FE0000FE
FFFFFFFE
03FFFF80
03FFFF80
03FFFF80
03FFFF80
03FFFF80
03FFFF80
ENDCHAR
STARTCHAR 00F5
ENCODING 245
SWIDTH 585 0
DWIDTH 39 0
BBX 31 43 4 -1
BITMAP
01FF9E00
01FF9E00
01FF9E00
01FFFE00
01E7FE00
01E7FE00
01E7FE00
00000000
00000000
00000000
00000000
00000000
03FFFF80
03FFFF80
03FFFF80
03FFFF80
03FFFF80
03FFFF80
FFFFFFFE
FE0000FE
FE0000FE
FE0000FE
FE0000FE
FE0000FE
FE0000FE
FE0000FE
FE0000FE
FE0000FE
FE0000FE
FE0000FE
FE0000FE
FE0000FE
FE0000FE
FE0000FE
FE0000FE
FE0000FE
FFFFFFFE
03FFFF80
03FFFF80
03FFFF80
03FFFF80
03FFFF80
03FFFF80
ENDCHAR
STARTCHAR 00F6
ENCODING 246
SWIDTH 585 0
DWIDTH 39 0
BBX 31 43 4 -1
BITMAP
07F00FC0
07F00FC0
07F00FC0
07F00FC0
07F00FC0
07F00FC0
07F00FC0
00000000
00000000
00000000
00000000
00000000
03FFFF80
03FFFF80
03FFFF80
03FFFF80
03FFFF80
03FFFF80
FFFFFFFE
FE0000FE
FE0000FE
FE0000FE
FE0000FE
FE0000FE
FE0000FE
FE0000FE
FE0000FE
FE0000FE
FE0000FE
FE0000FE
FE0000FE
FE0000FE
FE0000FE
FE0000FE
FE0000FE
FE0000FE
FFFFFFFE
03FFFF80
03FFFF80
03FFFF80
03FFFF80
03FFFF80
03FFFF80
ENDCHAR
STARTCHAR 00F7
ENCODING 247
SWIDTH 600 0
DWIDTH 40 0
BBX 26 29 7 5
BITMAP
003F0000
003F0000
003F0000
003F0000
003F0000
003F0000
003F0000
00000000
00000000
00000000
00000000
FFFFFFC0
FFFFFFC0
FFFFFFC0
FFFFFFC0
FFFFFFC0
FFFFFFC0
FFFFFFC0
00000000
00000000
00000000
00000000
003F0000
003F0000
003F0000
003F0000
003F0000
003F0000
003F0000
ENDCHAR
STARTCHAR 00F8
ENCODING 248
SWIDTH 585 0
DWIDTH 39 0
BBX 36 40 1 -6
BITMAP
00000007F0
0000000FE0
0000001FC0
0000003F80
007FFFFF80
007FFFFF00
007FFFFE00
007FFFFC00
007FFFFC00
007FFFF800
1FFFFFFFC0
1FC007FFC0
1FC00FFFC0
1FC01FDFC0
1FC01F9FC0
1FC03F9FC0
1FC07F1FC0
1FC0FE1FC0
1FC0FE1FC0
1FC1FC1FC0
1FC3F81FC0
1FC3F01FC0
1FC7F01FC0
1FCFE01FC0
1FDFC01FC0
1FDFC01FC0
1FFF801FC0
1FFF001FC0
1FFFFFFFC0
00FFFFF000
01FFFFF000
03FFFFF000
03FFFFF000
07FFFFF000
0FFFFFF000
0FC0000000
1FC0000000
3F80000000
7F00000000
FF00000000
ENDCHAR
STARTCHAR 00F9
ENCODING 249
SWIDTH 585 0
DWIDTH 39 0
BBX 31 46 4 -1
BITMAP
00E00000
00E00000
00E00000
00FC0000
001C0000
001C0000
001F8000
00038000
00038000
00038000
00000000
00000000
00000000
00000000
00000000
FE0000FE
FE0000FE
FE0000FE
FE0000FE
FE0000FE
FE0000FE
FE0000FE
FE0000FE
FE0000FE
FE0000FE
FE0000FE
FE0000FE
FE0000FE
FE0000FE
FE0000FE
FE0000FE
FE0000FE
FE0000FE
FE0000FE
FE0000FE
FE0000FE
FE0000FE
FE0000FE
FE0000FE
FFFFFFFE
03FFFF80
03FFFF80
03FFFF80
03FFFF80
03FFFF80
03FFFF80
ENDCHAR
STARTCHAR 00FA
ENCODING 250
SWIDTH 585 0
DWIDTH 39 0
BBX 31 46 4 -1
BITMAP
0000E000
0000E000
0000E000
0007E000
00070000
00070000
003F0000
00380000
00380000
00380000
00000000
00000000
00000000
00000000
00000000
FE0000FE
FE0000FE
FE0000FE
FE0000FE
FE0000FE
FE0000FE
FE0000FE
FE0000FE
FE0000FE
FE0000FE
FE0000FE
FE0000FE
FE0000FE
FE0000FE
FE0000FE
FE0000FE
FE0000FE
FE0000FE
FE0000FE
FE0000FE
FE0000FE
FE0000FE
FE0000FE
FE0000FE
FFFFFFFE
03FFFF80
03FFFF80
03FFFF80
03FFFF80
03FFFF80
03FFFF80
ENDCHAR
STARTCHAR 00FB
ENCODING 251
SWIDTH 585 0
DWIDTH 39 0
BBX 31 43 4 -1
BITMAP
00038000
00038000
00038000
001FF000
001C7000
001C7000
001C7000
00000000
00000000
00000000
00000000
00000000
FE0000FE
FE0000FE
FE0000FE
FE0000FE
FE0000FE
FE0000FE
FE0000FE
FE0000FE
FE0000FE
FE0000FE
FE0000FE
FE0000FE
FE0000FE
FE0000FE
FE0000FE
FE0000FE
FE0000FE
FE0000FE
FE0000FE
FE0000FE
FE0000FE
FE0000FE
FE0000FE
FE0000FE
FFFFFFFE
03FFFF80
03FFFF80
03FFFF80
03FFFF80
03FFFF80
03FFFF80
ENDCHAR
STARTCHAR 00FC
ENCODING 252
SWIDTH 585 0
DWIDTH 39 0
BBX 31 43 4 -1
BITMAP
07F00FC0
07F00FC0
07F00FC0
07F00FC0
07F00FC0
07F00FC0
07F00FC0
00000000
00000000
00000000
00000000
00000000
FE0000FE
FE0000FE
FE0000FE
FE0000FE
FE0000FE
FE0000FE
FE0000FE
FE0000FE
FE0000FE
FE0000FE
FE0000FE
FE0000FE
FE0000FE
FE0000FE
FE0000FE
FE0000FE
FE0000FE
FE0000FE
FE0000FE
FE0000FE
FE0000FE
FE0000FE
FE0000FE
FE0000FE
FFFFFFFE
03FFFF80
03FFFF80
03FFFF80
03FFFF80
03FFFF80
03FFFF80
ENDCHAR
STARTCHAR 00FD
ENCODING 253
SWIDTH 585 0
DWIDTH 39 0
BBX 31 58 4 -13
BITMAP
0000E000
0000E000
0000E000
0007E000
00070000
00070000
003F0000
00380000
00380000
00380000
00000000
00000000
00000000
00000000
00000000
FE0000FE
FE0000FE
FE0000FE
FE0000FE
FE0000FE
FE0000FE
FE0000FE
FE0000FE
FE0000FE
FE0000FE
FE0000FE
FE0000FE
FE0000FE
FE0000FE
FE0000FE
FE0000FE
FE0000FE
FE0000FE
FFFFFFFE
03FFFFFE
03FFFFFE
03FFFFFE
03FFFFFE
03FFFFFE
03FFFFFE
000000FE
000000FE
000000FE
000000FE
000000FE
FE0000FE
FE0000FE
FE0000FE
FE0000FE
FE0000FE
FE0000FE
FFFFFFFE
03FFFF80
03FFFF80
03FFFF80
03FFFF80
03FFFF80
03FFFF80
ENDCHAR
STARTCHAR 00FE
ENCODING 254
SWIDTH 585 0
DWIDTH 39 0
BBX 31 43 4 -1
BITMAP
FE000000
FE000000
FE000000
FE000000
FE000000
FE000000
FE000000
FE000000
FFFFFF80
FFFFFF80
FFFFFF80
FFFFFF80
FFFFFF80
FFFFFF80
FFFFFFFE
FE0000FE
FE0000FE
FE0000FE
FE0000FE
FE0000FE
FE0000FE
FE0000FE
FE0000FE
FE0000FE
FE0000FE
FE0000FE
FE0000FE
FE0000FE
FE0000FE
FE0000FE
FE0000FE
FE0000FE
FE0000FE
FFFFFF80
FFFFFF80
FFFFFF80
FFFFFF80
FFFFFF80
FFFFFF80
FE000000
FE000000
FE000000
FE000000
ENDCHAR
STARTCHAR 00FF
ENCODING 255
SWIDTH 585 0
DWIDTH 39 0
BBX 31 55 4 -13
BITMAP
07F00FC0
07F00FC0
07F00FC0
07F00FC0
07F00FC0
07F00FC0
07F00FC0
00000000
00000000
00000000
00000000
00000000
FE0000FE
FE0000FE
FE0000FE
FE0000FE
FE0000FE
FE0000FE
FE0000FE
FE0000FE
FE0000FE
FE0000FE
FE0000FE
FE0000FE
FE0000FE
FE0000FE
FE0000FE
FE0000FE
FE0000FE
FE0000FE
FFFFFFFE
03FFFFFE
03FFFFFE
03FFFFFE
03FFFFFE
03FFFFFE
03FFFFFE
000000FE
000000FE
000000FE
000000FE
000000FE
FE0000FE
FE0000FE
FE0000FE
FE0000FE
FE0000FE
FE0000FE
FFFFFFFE
03FFFF80
03FFFF80
03FFFF80
03FFFF80
03FFFF80
03FFFF80
ENDCHAR
STARTCHAR 0100
ENCODING 256
SWIDTH 585 0
DWIDTH 39 0
BBX 31 53 4 -1
BITMAP
03FFFF80
03FFFF80
03FFFF80
03FFFF80
03FFFF80
00000000
00000000
00000000
00000000
00000000
000FE000
000FE000
000FE000
000FE000
000FE000
000FE000
03FFFF80
03F83F80
03F83F80
03F83F80
03F83F80
03F83F80
FFF83FFE
FE0000FE
FE0000FE
FE0000FE
FE0000FE
FE0000FE
FE0000FE
FE0000FE
FE0000FE
FE0000FE
FE0000FE
FE0000FE
FFFFFFFE
FFFFFFFE
FFFFFFFE
FFFFFFFE
FFFFFFFE
FFFFFFFE
FFFFFFFE
FE0000FE
FE0000FE
FE0000FE
FE0000FE
FE0000FE
FE0000FE
FE0000FE
FE0000FE
FE0000FE
FE0000FE
FE0000FE
FE0000FE
ENDCHAR
STARTCHAR 0101
ENCODING 257
SWIDTH 675 0
DWIDTH 45 0
BBX 37 41 4 -1
BITMAP
01FFFFC000
01FFFFC000
01FFFFC000
01FFFFC000
01FFFFC000
0000000000
0000000000
0000000000
0000000000
0000000000
03FFFF8000
03FFFF8000
03FFFF8000
03FFFF8000
03FFFF8000
03FFFF8000
FFFFFFFE00
FE0000FE00
FE0000FE00
FE0000FE00
FE0000FE00
FE0000FE00
FE0000FE00
FE0000FE00
FE0000FE00
FE0000FE00
FE0000FE00
FE0000FE00
FE0000FE00
FE0000FE00
FE0000FE00
FE0000FE00
FE0000FE00
FE0000FE00
FFFFFFFFF8
03FFFF83F8
03FFFF83F8
03FFFF83F8
03FFFF83F8
03FFFF83F8
03FFFF83F8
ENDCHAR
STARTCHAR 0102
ENCODING 258
SWIDTH 585 0
DWIDTH 39 0
BBX 31 55 4 -1
BITMAP
01E00E00
01E00E00
01E00E00
01FFFE00
01FFFE00
01FFFE00
01FFFE00
00000000
00000000
00000000
00000000
00000000
000FE000
000FE000
000FE000
000FE000
000FE000
000FE000
03FFFF80
03F83F80
03F83F80
03F83F80
03F83F80
03F83F80
FFF83FFE
FE0000FE
FE0000FE
FE0000FE
FE0000FE
FE0000FE
FE0000FE
FE0000FE
FE0000FE
FE0000FE
FE0000FE
FE0000FE
FFFFFFFE
FFFFFFFE
FFFFFFFE
FFFFFFFE
FFFFFFFE
FFFFFFFE
FFFFFFFE
FE0000FE
FE0000FE
FE0000FE
FE0000FE
FE0000FE
FE0000FE
FE0000FE
FE0000FE
FE0000FE
FE0000FE
FE0000FE
FE0000FE
ENDCHAR
STARTCHAR 0103
ENCODING 259
SWIDTH 675 0
DWIDTH 45 0
BBX 37 43 4 -1
BITMAP
00F00F0000
00F00F0000
00F00F0000
00FFFF0000
00FFFF0000
00FFFF0000
00FFFF0000
0000000000
0000000000
0000000000
0000000000
0000000000
03FFFF8000
03FFFF8000
03FFFF8000
03FFFF8000
03FFFF8000
03FFFF8000
FFFFFFFE00
FE0000FE00
FE0000FE00
FE0000FE00
FE0000FE00
FE0000FE00
FE0000FE00
FE0000FE00
FE0000FE00
FE0000FE00
FE0000FE00
FE0000FE00
FE0000FE00
FE0000FE00
FE0000FE00
FE0000FE00
FE0000FE00
FE0000FE00
FFFFFFFFF8
03FFFF83F8
03FFFF83F8
03FFFF83F8
03FFFF83F8
03FFFF83F8
03FFFF83F8
ENDCHAR
STARTCHAR 0104
ENCODING 260
SWIDTH 585 0
DWIDTH 39 0
BBX 36 56 4 -14
BITMAP
000FE00000
000FE00000
000FE00000
000FE00000
000FE00000
000FE00000
03FFFF8000
03F83F8000
03F83F8000
03F83F8000
03F83F8000
03F83F8000
FFF83FFE00
FE0000FE00
FE0000FE00
FE0000FE00
FE0000FE00
FE0000FE00
FE0000FE00
FE0000FE00
FE0000FE00
FE0000FE00
FE0000FE00
FE0000FE00
FFFFFFFE00
FFFFFFFE00
FFFFFFFE00
FFFFFFFE00
FFFFFFFE00
FFFFFFFE00
FFFFFFFE00
FE0000FE00
FE0000FE00
FE0000FE00
FE0000FE00
FE0000FE00
FE0000FE00
FE0000FE00
FE0000FE00
FE0000FE00
FE0000FE00
FE0000FE00
FE0000FE00
0000003C00
0000003C00
0000003C00
0000003C00
000001E000
000001E000
000001E000
00000F00F0
00000F00F0
00000F00F0
000001FF80
000001FF80
000001FF80
ENDCHAR
STARTCHAR 0105
ENCODING 261
SWIDTH 675 0
DWIDTH 45 0
BBX 42 43 4 -13
BITMAP
03FFFF800000
03FFFF800000
03FFFF800000
03FFFF800000
03FFFF800000
03FFFF800000
FFFFFFFE0000
FE0000FE0000
FE0000FE0000
FE0000FE0000
FE0000FE0000
FE0000FE0000
FE0000FE0000
FE0000FE0000
FE0000FE0000
FE0000FE0000
FE0000FE0000
FE0000FE0000
FE0000FE0000
FE0000FE0000
FE0000FE0000
FE0000FE0000
FE0000FE0000
FE0000FE0000
FFFFFFFFF800
03FFFF83F800
03FFFF83F800
03FFFF83F800
03FFFF83F800
03FFFF83F800
03FFFF83F800
00000000F000
00000000F000
00000000F000
000000078000
000000078000
000000078000
0000003C03C0
0000003C03C0
0000003C03C0
00000007FE00
00000007FE00
00000007FE00
ENDCHAR
STARTCHAR 0106
ENCODING 262
SWIDTH 585 0
DWIDTH 39 0
BBX 31 58 4 -1
BITMAP
0000E000
0000E000
0000E000
0007E000
00070000
00070000
003F0000
00380000
00380000
00380000
00000000
00000000
00000000
00000000
00000000
03FFFF80
03FFFF80
03FFFF80
03FFFF80
03FFFF80
03FFFF80
FFFFFFFE
FE0000FE
FE0000FE
FE0000FE
FE0000FE
FE0000FE
FE0000FE
FE0000FE
FE0000FE
FE0000FE
FE0000FE
FE0000FE
FE0000FE
FE000000
FE000000
FE000000
FE000000
FE000000
FE0000FE
FE0000FE
FE0000FE
FE0000FE
FE0000FE
FE0000FE
FE0000FE
FE0000FE
FE0000FE
FE0000FE
FE0000FE
FE0000FE
FFFFFFFE
03FFFF80
03FFFF80
03FFFF80
03FFFF80
03FFFF80
03FFFF80
ENDCHAR
STARTCHAR 0107
ENCODING 263
SWIDTH 585 0
DWIDTH 39 0
BBX 31 46 4 -1
BITMAP
0000E000
0000E000
0000E000
0007E000
00070000
00070000
003F0000
00380000
00380000
00380000
00000000
00000000
00000000
00000000
00000000
03FFFF80
03FFFF80
03FFFF80
03FFFF80
03FFFF80
03FFFF80
FFFFFFFE
FE0000FE
FE0000FE
FE0000FE
FE0000FE
FE0000FE
FE0000FE
FE000000
FE000000
FE000000
FE000000
FE000000
FE0000FE
FE0000FE
FE0000FE
FE0000FE
FE0000FE
FE0000FE
FFFFFFFE
03FFFF80
03FFFF80
03FFFF80
03FFFF80
03FFFF80
03FFFF80
ENDCHAR
STARTCHAR 0108
ENCODING 264
SWIDTH 585 0
DWIDTH 39 0
BBX 31 55 4 -1
BITMAP
00038000
00038000
00038000
001FF000
001C7000
001C7000
001C7000
00000000
00000000
00000000
00000000
00000000
03FFFF80
03FFFF80
03FFFF80
03FFFF80
03FFFF80
03FFFF80
FFFFFFFE
FE0000FE
FE0000FE
FE0000FE
FE0000FE
FE0000FE
FE0000FE
FE0000FE
FE0000FE
FE0000FE
FE0000FE
FE0000FE
FE0000FE
FE000000
FE000000
FE000000
FE000000
FE000000
FE0000FE
FE0000FE
FE0000FE
FE0000FE
FE0000FE
FE0000FE
FE0000FE
FE0000FE
FE0000FE
FE0000FE
FE0000FE
FE0000FE
FFFFFFFE
03FFFF80
03FFFF80
03FFFF80
03FFFF80
03FFFF80
03FFFF80
ENDCHAR
STARTCHAR 0109
ENCODING 265
SWIDTH 585 0
DWIDTH 39 0
BBX 31 43 4 -1
BITMAP
00038000
00038000
00038000
001FF000
001C7000
001C7000
001C7000
00000000
00000000
00000000
00000000
00000000
03FFFF80
03FFFF80
03FFFF80
03FFFF80
03FFFF80
03FFFF80
FFFFFFFE
FE0000FE
FE0000FE
FE0000FE
FE0000FE
FE0000FE
FE0000FE
FE000000
FE000000
FE000000
FE000000
FE000000
FE0000FE
FE0000FE
FE0000FE
FE0000FE
FE0000FE
FE0000FE
FFFFFFFE
03FFFF80
03FFFF80
03FFFF80
03FFFF80
03FFFF80
03FFFF80
ENDCHAR
STARTCHAR 010A
ENCODING 266
SWIDTH 585 0
DWIDTH 39 0
BBX 31 55 4 -1
BITMAP
000FE000
000FE000
000FE000
000FE000
000FE000
000FE000
000FE000
00000000
00000000
00000000
00000000
00000000
03FFFF80
03FFFF80
03FFFF80
03FFFF80
03FFFF80
03FFFF80
FFFFFFFE
FE0000FE
FE0000FE
FE0000FE
FE0000FE
FE0000FE
FE0000FE
FE0000FE
FE0000FE
FE0000FE
FE0000FE
FE0000FE
FE0000FE
FE000000
FE000000
FE000000
FE000000
FE000000
FE0000FE
FE0000FE
FE0000FE
FE0000FE
FE0000FE
FE0000FE
FE0000FE
FE0000FE
FE0000FE
FE0000FE
FE0000FE
FE0000FE
FFFFFFFE
03FFFF80
03FFFF80
03FFFF80
03FFFF80
03FFFF80
03FFFF80
ENDCHAR
STARTCHAR 010B
ENCODING 267
SWIDTH 585 0
DWIDTH 39 0
BBX 31 43 4 -1
BITMAP
000FE000
000FE000
000FE000
000FE000
000FE000
000FE000
000FE000
00000000
00000000
00000000
00000000
00000000
03FFFF80
03FFFF80
03FFFF80
03FFFF80
03FFFF80
03FFFF80
FFFFFFFE
FE0000FE
FE0000FE
FE0000FE
FE0000FE
FE0000FE
FE0000FE
FE000000
FE000000
FE000000
FE000000
FE000000
FE0000FE
FE0000FE
FE0000FE
FE0000FE
FE0000FE
FE0000FE
FFFFFFFE
03FFFF80
03FFFF80
03FFFF80
03FFFF80
03FFFF80
03FFFF80
ENDCHAR
STARTCHAR 010C
ENCODING 268
SWIDTH 585 0
DWIDTH 39 0
BBX 31 55 4 -1
BITMAP
001C7000
001C7000
001C7000
001FF000
00038000
00038000
00038000
00000000
00000000
00000000
00000000
00000000
03FFFF80
03FFFF80
03FFFF80
03FFFF80
03FFFF80
03FFFF80
FFFFFFFE
FE0000FE
FE0000FE
FE0000FE
FE0000FE
FE0000FE
FE0000FE
FE0000FE
FE0000FE
FE0000FE
FE0000FE
FE0000FE
FE0000FE
FE000000
FE000000
FE000000
FE000000
FE000000
FE0000FE
FE0000FE
FE0000FE
FE0000FE
FE0000FE
FE0000FE
FE0000FE
FE0000FE
FE0000FE
FE0000FE
FE0000FE
FE0000FE
FFFFFFFE
03FFFF80
03FFFF80
03FFFF80
03FFFF80
03FFFF80
03FFFF80
ENDCHAR
STARTCHAR 010D
ENCODING 269
SWIDTH 585 0
DWIDTH 39 0
BBX 31 43 4 -1
BITMAP
001C7000
001C7000
001C7000
001FF000
00038000
00038000
00038000
00000000
00000000
00000000
00000000
00000000
03FFFF80
03FFFF80
03FFFF80
03FFFF80
03FFFF80
03FFFF80
FFFFFFFE
FE0000FE
FE0000FE
FE0000FE
FE0000FE
FE0000FE
FE0000FE
FE000000
FE000000
FE000000
FE000000
FE000000
FE0000FE
FE0000FE
FE0000FE
FE0000FE
FE0000FE
FE0000FE
FFFFFFFE
03FFFF80
03FFFF80
03FFFF80
03FFFF80
03FFFF80
03FFFF80
ENDCHAR
STARTCHAR 010E
ENCODING 270
SWIDTH 585 0
DWIDTH 39 0
BBX 31 55 4 -1
BITMAP
00E3C000
00E3C000
00E3C000
00FFC000
001E0000
001E0000
001E0000
00000000
00000000
00000000
00000000
00000000
FFFFE000
FFFFE000
FFFFE000
FFFFE000
FFFFE000
FFFFE000
FFFFFF80
FE003F80
FE003F80
FE003F80
FE003F80
FE003F80
FE003FFE
FE0000FE
FE0000FE
FE0000FE
FE0000FE
FE0000FE
FE0000FE
FE0000FE
FE0000FE
FE0000FE
FE0000FE
FE0000FE
FE0000FE
FE0000FE
FE0000FE
FE0000FE
FE0000FE
FE0000FE
FE003FFE
FE003F80
FE003F80
FE003F80
FE003F80
FE003F80
FFFFFF80
FFFFE000
FFFFE000
FFFFE000
FFFFE000
FFFFE000
FFFFE000
ENDCHAR
STARTCHAR 010F
ENCODING 271
SWIDTH 585 0
DWIDTH 39 0
BBX 42 43 4 -1
BITMAP
000000FEFE00
000000FEFE00
000000FEFE00
000000FEFE00
000000FEFE00
000000FEFE00
000000FEFFC0
000000FE03C0
000000FE03C0
000000FE1FC0
000000FE1E00
000000FE1E00
03FFFFFE1E00
03FFFFFE0000
03FFFFFE0000
03FFFFFE0000
03FFFFFE0000
03FFFFFE0000
FFFFFFFE0000
FE0000FE0000
FE0000FE0000
FE0000FE0000
FE0000FE0000
FE0000FE0000
FE0000FE0000
FE0000FE0000
FE0000FE0000
FE0000FE0000
FE0000FE0000
FE0000FE0000
FE0000FE0000
FE0000FE0000
FE0000FE0000
FE0000FE0000
FE0000FE0000
FE0000FE0000
FFFFFFFE0000
03FFFF800000
03FFFF800000
03FFFF800000
03FFFF800000
03FFFF800000
03FFFF800000
ENDCHAR
STARTCHAR 0110
ENCODING 272
SWIDTH 585 0
DWIDTH 39 0
BBX 34 43 1 -1
BITMAP
1FFFFC0000
1FFFFC0000
1FFFFC0000
1FFFFC0000
1FFFFC0000
1FFFFC0000
1FFFFFF000
1FC007F000
1FC007F000
1FC007F000
1FC007F000
1FC007F000
1FC007FFC0
1FC0001FC0
1FC0001FC0
1FC0001FC0
1FC0001FC0
1FC0001FC0
1FC0001FC0
FFFF001FC0
FFFF001FC0
FFFF001FC0
FFFF001FC0
FFFF001FC0
FFFF001FC0
FFFF001FC0
1FC0001FC0
1FC0001FC0
1FC0001FC0
1FC0001FC0
1FC007FFC0
1FC007F000
1FC007F000
1FC007F000
1FC007F000
1FC007F000
1FFFFFF000
1FFFFC0000
1FFFFC0000
1FFFFC0000
1FFFFC0000
1FFFFC0000
1FFFFC0000
ENDCHAR
STARTCHAR 0111
ENCODING 273
SWIDTH 585 0
DWIDTH 39 0
BBX 33 43 4 -1
BITMAP
000000FE00
000000FE00
001FFFFF80
001FFFFF80
001FFFFF80
001FFFFF80
001FFFFF80
001FFFFF80
001FFFFF80
000000FE00
000000FE00
000000FE00
03FFFFFE00
03FFFFFE00
03FFFFFE00
03FFFFFE00
03FFFFFE00
03FFFFFE00
FFFFFFFE00
FE0000FE00
FE0000FE00
FE0000FE00
FE0000FE00
FE0000FE00
FE0000FE00
FE0000FE00
FE0000FE00
FE0000FE00
FE0000FE00
FE0000FE00
FE0000FE00
FE0000FE00
FE0000FE00
FE0000FE00
FE0000FE00
FE0000FE00
FFFFFFFE00
03FFFF8000
03FFFF8000
03FFFF8000
03FFFF8000
03FFFF8000
03FFFF8000
ENDCHAR
STARTCHAR 0112
ENCODING 274
SWIDTH 585 0
DWIDTH 39 0
BBX 31 53 4 -1
BITMAP
03FFFF80
03FFFF80
03FFFF80
03FFFF80
03FFFF80
00000000
00000000
00000000
00000000
00000000
03FFFF80
03FFFF80
03FFFF80
03FFFF80
03FFFF80
03FFFF80
FFFFFFFE
FE0000FE
FE0000FE
FE0000FE
FE0000FE
FE0000FE
FE0000FE
FE000000
FE000000
FE000000
FE000000
FE000000
FFFFE000
FFFFE000
FFFFE000
FFFFE000
FFFFE000
FFFFE000
FFFFE000
FE000000
FE000000
FE000000
FE000000
FE000000
FE0000FE
FE0000FE
FE0000FE
FE0000FE
FE0000FE
FE0000FE
FFFFFFFE
03FFFF80
03FFFF80
03FFFF80
03FFFF80
03FFFF80
03FFFF80
ENDCHAR
STARTCHAR 0113
ENCODING 275
SWIDTH 585 0
DWIDTH 39 0
BBX 31 41 4 -1
BITMAP
03FFFF80
03FFFF80
03FFFF80
03FFFF80
03FFFF80
00000000
00000000
00000000
00000000
00000000
03FFFF80
03FFFF80
03FFFF80
03FFFF80
03FFFF80
03FFFF80
FFFFFFFE
FE0000FE
FE0000FE
FE0000FE
FE0000FE
FE0000FE
FFFFE0FE
FFFFE000
FFFFE000
FFFFE000
FFFFE000
FFFFE000
FFFFE0FE
FE0000FE
FE0000FE
FE0000FE
FE0000FE
FE0000FE
FFFFFFFE
03FFFF80
03FFFF80
03FFFF80
03FFFF80
03FFFF80
03FFFF80
ENDCHAR
STARTCHAR 0114
ENCODING 276
SWIDTH 585 0
DWIDTH 39 0
BBX 31 55 4 -1
BITMAP
01E00E00
01E00E00
01E00E00
01FFFE00
01FFFE00
01FFFE00
01FFFE00
00000000
00000000
00000000
00000000
00000000
03FFFF80
03FFFF80
03FFFF80
03FFFF80
03FFFF80
03FFFF80
FFFFFFFE
FE0000FE
FE0000FE
FE0000FE
FE0000FE
FE0000FE
FE0000FE
FE000000
FE000000
FE000000
FE000000
FE000000
FFFFE000
FFFFE000
FFFFE000
FFFFE000
FFFFE000
FFFFE000
FFFFE000
FE000000
FE000000
FE000000
FE000000
FE000000
FE0000FE
FE0000FE
FE0000FE
FE0000FE
FE0000FE
FE0000FE
FFFFFFFE
03FFFF80
03FFFF80
03FFFF80
03FFFF80
03FFFF80
03FFFF80
ENDCHAR
STARTCHAR 0115
ENCODING 277
SWIDTH 585 0
DWIDTH 39 0
BBX 31 43 4 -1
BITMAP
01E00E00
01E00E00
01E00E00
01FFFE00
01FFFE00
01FFFE00
01FFFE00
00000000
00000000
00000000
00000000
00000000
03FFFF80
03FFFF80
03FFFF80
03FFFF80
03FFFF80
03FFFF80
FFFFFFFE
FE0000FE
FE0000FE
FE0000FE
FE0000FE
FE0000FE
FFFFE0FE
FFFFE000
FFFFE000
FFFFE000
FFFFE000
FFFFE000
FFFFE0FE
FE0000FE
FE0000FE
FE0000FE
FE0000FE
FE0000FE
FFFFFFFE
03FFFF80
03FFFF80
03FFFF80
03FFFF80
03FFFF80
03FFFF80
ENDCHAR
STARTCHAR 0116
ENCODING 278
SWIDTH 585 0
DWIDTH 39 0
BBX 31 55 4 -1
BITMAP
000FE000
000FE000
000FE000
000FE000
000FE000
000FE000
000FE000
00000000
00000000
00000000
00000000
00000000
03FFFF80
03FFFF80
03FFFF80
03FFFF80
03FFFF80
03FFFF80
FFFFFFFE
FE0000FE
FE0000FE
FE0000FE
FE0000FE
FE0000FE
FE0000FE
FE000000
FE000000
FE000000
FE000000
FE000000
FFFFE000
FFFFE000
FFFFE000
FFFFE000
FFFFE000
FFFFE000
FFFFE000
FE000000
FE000000
FE000000
FE000000
FE000000
FE0000FE
FE0000FE
FE0000FE
FE0000FE
FE0000FE
FE0000FE
FFFFFFFE
03FFFF80
03FFFF80
03FFFF80
03FFFF80
03FFFF80
03FFFF80
ENDCHAR
STARTCHAR 0117
ENCODING 279
SWIDTH 585 0
DWIDTH 39 0
BBX 31 43 4 -1
BITMAP
000FE000
000FE000
000FE000
000FE000
000FE000
000FE000
000FE000
00000000
00000000
00000000
00000000
00000000
03FFFF80
03FFFF80
03FFFF80
03FFFF80
03FFFF80
03FFFF80
FFFFFFFE
FE0000FE
FE0000FE
FE0000FE
FE0000FE
FE0000FE
FFFFE0FE
FFFFE000
FFFFE000
FFFFE000
FFFFE000
FFFFE000
FFFFE0FE
FE0000FE
FE0000FE
FE0000FE
FE0000FE
FE0000FE
FFFFFFFE
03FFFF80
03FFFF80
03FFFF80
03FFFF80
03FFFF80
03FFFF80
ENDCHAR
STARTCHAR 0118
ENCODING 280
SWIDTH 585 0
DWIDTH 39 0
BBX 31 56 4 -14
BITMAP
03FFFF80
03FFFF80
03FFFF80
03FFFF80
03FFFF80
03FFFF80
FFFFFFFE
FE0000FE
FE0000FE
FE0000FE
FE0000FE
FE0000FE
FE0000FE
FE000000
FE000000
FE000000
FE000000
FE000000
FFFFE000
FFFFE000
FFFFE000
FFFFE000
FFFFE000
FFFFE000
FFFFE000
FE000000
FE000000
FE000000
FE000000
FE000000
FE0000FE
FE0000FE
FE0000FE
FE0000FE
FE0000FE
FE0000FE
FFFFFFFE
03FFFF80
03FFFF80
03FFFF80
03FFFF80
03FFFF80
03FFFF80
00038000
00038000
00038000
00038000
001C0000
001C0000
001C0000
00E00E00
00E00E00
00E00E00
001FF000
001FF000
001FF000
ENDCHAR
STARTCHAR 0119
ENCODING 281
SWIDTH 585 0
DWIDTH 39 0
BBX 31 43 4 -13
BITMAP
03FFFF80
03FFFF80
03FFFF80
03FFFF80
03FFFF80
03FFFF80
FFFFFFFE
FE0000FE
FE0000FE
FE0000FE
FE0000FE
FE0000FE
FFFFE0FE
FFFFE000
FFFFE000
FFFFE000
FFFFE000
FFFFE000
FFFFE0FE
FE0000FE
FE0000FE
FE0000FE
FE0000FE
FE0000FE
FFFFFFFE
03FFFF80
03FFFF80
03FFFF80
03FFFF80
03FFFF80
03FFFF80
00038000
00038000
00038000
001C0000
001C0000
001C0000
00E00F00
00E00F00
00E00F00
001FF800
001FF800
001FF800
ENDCHAR
STARTCHAR 011A
ENCODING 282
SWIDTH 585 0
DWIDTH 39 0
BBX 31 55 4 -1
BITMAP
001C7000
001C7000
001C7000
001FF000
00038000
00038000
00038000
00000000
00000000
00000000
00000000
00000000
03FFFF80
03FFFF80
03FFFF80
03FFFF80
03FFFF80
03FFFF80
FFFFFFFE
FE0000FE
FE0000FE
FE0000FE
FE0000FE
FE0000FE
FE0000FE
FE000000
FE000000
FE000000
FE000000
FE000000
FFFFE000
FFFFE000
FFFFE000
FFFFE000
FFFFE000
FFFFE000
FFFFE000
FE000000
FE000000
FE000000
FE000000
FE000000
FE0000FE
FE0000FE
FE0000FE
FE0000FE
FE0000FE
FE0000FE
FFFFFFFE
03FFFF80
03FFFF80
03FFFF80
03FFFF80
03FFFF80
03FFFF80
ENDCHAR
STARTCHAR 011B
ENCODING 283
SWIDTH 585 0
DWIDTH 39 0
BBX 31 43 4 -1
BITMAP
001C7000
001C7000
001C7000
001FF000
00038000
00038000
00038000
00000000
00000000
00000000
00000000
00000000
03FFFF80
03FFFF80
03FFFF80
03FFFF80
03FFFF80
03FFFF80
FFFFFFFE
FE0000FE
FE0000FE
FE0000FE
FE0000FE
FE0000FE
FFFFE0FE
FFFFE000
FFFFE000
FFFFE000
FFFFE000
FFFFE000
FFFFE0FE
FE0000FE
FE0000FE
FE0000FE
FE0000FE
FE0000FE
FFFFFFFE
03FFFF80
03FFFF80
03FFFF80
03FFFF80
03FFFF80
03FFFF80
ENDCHAR
STARTCHAR 011C
ENCODING 284
SWIDTH 585 0
DWIDTH 39 0
BBX 31 55 4 -1
BITMAP
00038000
00038000
00038000
001FF000
001C7000
001C7000
001C7000
00000000
00000000
00000000
00000000
00000000
03FFFF80
03FFFF80
03FFFF80
03FFFF80
03FFFF80
03FFFF80
FFFFFFFE
FE0000FE
FE0000FE
FE0000FE
FE0000FE
FE0000FE
FE0000FE
FE0000FE
FE0000FE
FE0000FE
FE0000FE
FE0000FE
FE0FE0FE
FE0FE000
FE0FE000
FE0FE000
FE0FE000
FE0FE000
FE0FFFFE
FE003FFE
FE003FFE
FE003FFE
FE003FFE
FE003FFE
FE003FFE
FE0000FE
FE0000FE
FE0000FE
FE0000FE
FE0000FE
FFFFFFFE
03FFFF80
03FFFF80
03FFFF80
03FFFF80
03FFFF80
03FFFF80
ENDCHAR
STARTCHAR 011D
ENCODING 285
SWIDTH 585 0
DWIDTH 39 0
BBX 31 55 4 -13
BITMAP
00038000
00038000
00038000
001FF000
001C7000
001C7000
001C7000
00000000
00000000
00000000
00000000
00000000
03FFFF80
03FFFF80
03FFFF80
03FFFF80
03FFFF80
03FFFF80
FFFFFFFE
FE0000FE
FE0000FE
FE0000FE
FE0000FE
FE0000FE
FE0000FE
FE0000FE
FE0000FE
FE0000FE
FE0000FE
FE0000FE
FFFFFFFE
03FFFFFE
03FFFFFE
03FFFFFE
03FFFFFE
03FFFFFE
03FFFFFE
000000FE
000000FE
000000FE
000000FE
000000FE
FE0000FE
FE0000FE
FE0000FE
FE0000FE
FE0000FE
FE0000FE
FFFFFFFE
03FFFF80
03FFFF80
03FFFF80
03FFFF80
03FFFF80
03FFFF80
ENDCHAR
STARTCHAR 011E
ENCODING 286
SWIDTH 585 0
DWIDTH 39 0
BBX 31 55 4 -1
BITMAP
01E00E00
01E00E00
01E00E00
01FFFE00
01FFFE00
01FFFE00
01FFFE00
00000000
00000000
00000000
00000000
00000000
03FFFF80
03FFFF80
03FFFF80
03FFFF80
03FFFF80
03FFFF80
FFFFFFFE
FE0000FE
FE0000FE
FE0000FE
FE0000FE
FE0000FE
FE0000FE
FE0000FE
FE0000FE
FE0000FE
FE0000FE
FE0000FE
FE0FE0FE
FE0FE000
FE0FE000
FE0FE000
FE0FE000
FE0FE000
FE0FFFFE
FE003FFE
FE003FFE
FE003FFE
FE003FFE
FE003FFE
FE003FFE
FE0000FE
FE0000FE
FE0000FE
FE0000FE
FE0000FE
FFFFFFFE
03FFFF80
03FFFF80
03FFFF80
03FFFF80
03FFFF80
03FFFF80
ENDCHAR
STARTCHAR 011F
ENCODING 287
SWIDTH 585 0
DWIDTH 39 0
BBX 31 55 4 -13
BITMAP
01E00E00
01E00E00
01E00E00
01FFFE00
01FFFE00
01FFFE00
01FFFE00
00000000
00000000
00000000
00000000
00000000
03FFFF80
03FFFF80
03FFFF80
03FFFF80
03FFFF80
03FFFF80
FFFFFFFE
FE0000FE
FE0000FE
FE0000FE
FE0000FE
FE0000FE
FE0000FE
FE0000FE
FE0000FE
FE0000FE
FE0000FE
FE0000FE
FFFFFFFE
03FFFFFE
03FFFFFE
03FFFFFE
03FFFFFE
03FFFFFE
03FFFFFE
000000FE
000000FE
000000FE
000000FE
000000FE
FE0000FE
FE0000FE
FE0000FE
FE0000FE
FE0000FE
FE0000FE
FFFFFFFE
03FFFF80
03FFFF80
03FFFF80
03FFFF80
03FFFF80
03FFFF80
ENDCHAR
STARTCHAR 0120
ENCODING 288
SWIDTH 585 0
DWIDTH 39 0
BBX 31 55 4 -1
BITMAP
000FE000
000FE000
000FE000
000FE000
000FE000
000FE000
000FE000
00000000
00000000
00000000
00000000
00000000
03FFFF80
03FFFF80
03FFFF80
03FFFF80
03FFFF80
03FFFF80
FFFFFFFE
FE0000FE
FE0000FE
FE0000FE
FE0000FE
FE0000FE
FE0000FE
FE0000FE
FE0000FE
FE0000FE
FE0000FE
FE0000FE
FE0FE0FE
FE0FE000
FE0FE000
FE0FE000
FE0FE000
FE0FE000
FE0FFFFE
FE003FFE
FE003FFE
FE003FFE
FE003FFE
FE003FFE
FE003FFE
FE0000FE
FE0000FE
FE0000FE
FE0000FE
FE0000FE
FFFFFFFE
03FFFF80
03FFFF80
03FFFF80
03FFFF80
03FFFF80
03FFFF80
ENDCHAR
STARTCHAR 0121
ENCODING 289
SWIDTH 585 0
DWIDTH 39 0
BBX 31 55 4 -13
BITMAP
000FE000
000FE000
000FE000
000FE000
000FE000
000FE000
000FE000
00000000
00000000
00000000
00000000
00000000
03FFFF80
03FFFF80
03FFFF80
03FFFF80
03FFFF80
03FFFF80
FFFFFFFE
FE0000FE
FE0000FE
FE0000FE
FE0000FE
FE0000FE
FE0000FE
FE0000FE
FE0000FE
FE0000FE
FE0000FE
FE0000FE
FFFFFFFE
03FFFFFE
03FFFFFE
03FFFFFE
03FFFFFE
03FFFFFE
03FFFFFE
000000FE
000000FE
000000FE
000000FE
000000FE
FE0000FE
FE0000FE
FE0000FE
FE0000FE
FE0000FE
FE0000FE
FFFFFFFE
03FFFF80
03FFFF80
03FFFF80
03FFFF80
03FFFF80
03FFFF80
ENDCHAR
STARTCHAR 0122
ENCODING 290
SWIDTH 585 0
DWIDTH 39 0
BBX 31 58 4 -16
BITMAP
03FFFF80
03FFFF80
03FFFF80
03FFFF80
03FFFF80
03FFFF80
FFFFFFFE
FE0000FE
FE0000FE
FE0000FE
FE0000FE
FE0000FE
FE0000FE
FE0000FE
FE0000FE
FE0000FE
FE0000FE
FE0000FE
FE0FE0FE
FE0FE000
FE0FE000
FE0FE000
FE0FE000
FE0FE000
FE0FFFFE
FE003FFE
FE003FFE
FE003FFE
FE003FFE
FE003FFE
FE003FFE
FE0000FE
FE0000FE
FE0000FE
FE0000FE
FE0000FE
FFFFFFFE
03FFFF80
03FFFF80
03FFFF80
03FFFF80
03FFFF80
03FFFF80
00000000
00000000
00000000
000FC000
000FC000
000FC000
000FC000
000FC000
000FC000
00003800
00003800
00003800
0001C000
0001C000
0001C000
ENDCHAR
STARTCHAR 0123
ENCODING 291
SWIDTH 585 0
DWIDTH 39 0
BBX 31 61 4 -13
BITMAP
00038000
00038000
00038000
001F8000
001C0000
001C0000
001FF000
0003F000
0003F000
0003F000
0003F000
0003F000
0003F000
00000000
00000000
00000000
00000000
00000000
03FFFF80
03FFFF80
03FFFF80
03FFFF80
03FFFF80
03FFFF80
FFFFFFFE
FE0000FE
FE0000FE
FE0000FE
FE0000FE
FE0000FE
FE0000FE
FE0000FE
FE0000FE
FE0000FE
FE0000FE
FE0000FE
FFFFFFFE
03FFFFFE
03FFFFFE
03FFFFFE
03FFFFFE
03FFFFFE
03FFFFFE
000000FE
000000FE
000000FE
000000FE
000000FE
FE0000FE
FE0000FE
FE0000FE
FE0000FE
FE0000FE
FE0000FE
FFFFFFFE
03FFFF80
03FFFF80
03FFFF80
03FFFF80
03FFFF80
03FFFF80
ENDCHAR
STARTCHAR 0124
ENCODING 292
SWIDTH 585 0
DWIDTH 39 0
BBX 31 55 4 -1
BITMAP
00038000
00038000
00038000
001FF000
001C7000
001C7000
001C7000
00000000
00000000
00000000
00000000
00000000
FE0000FE
FE0000FE
FE0000FE
FE0000FE
FE0000FE
FE0000FE
FE0000FE
FE0000FE
FE0000FE
FE0000FE
FE0000FE
FE0000FE
FE0FE0FE
FE0FE0FE
FE0FE0FE
FE0FE0FE
FE0FE0FE
FE0FE0FE
FFFFFFFE
FFFFFFFE
FFFFFFFE
FFFFFFFE
FFFFFFFE
FFFFFFFE
FFFFFFFE
FE0000FE
FE0000FE
FE0000FE
FE0000FE
FE0000FE
FE0000FE
FE0000FE
FE0000FE
FE0000FE
FE0000FE
FE0000FE
FE0000FE
FE0000FE
FE0000FE
FE0000FE
FE0000FE
FE0000FE
FE0000FE
ENDCHAR
STARTCHAR 0125
ENCODING 293
SWIDTH 585 0
DWIDTH 39 0
BBX 31 55 4 -1
BITMAP
00038000
00038000
00038000
001FF000
001C7000
001C7000
001C7000
00000000
00000000
00000000
00000000
00000000
FE000000
FE000000
FE000000
FE000000
FE000000
FE000000
FE000000
FE000000
FE000000
FE000000
FE000000
FE000000
FE0FFF80
FE0FFF80
FE0FFF80
FE0FFF80
FE0FFF80
FE0FFF80
FFFFFFFE
FFF800FE
FFF800FE
FFF800FE
FFF800FE
FFF800FE
FFF800FE
FE0000FE
FE0000FE
FE0000FE
FE0000FE
FE0000FE
FE0000FE
FE0000FE
FE0000FE
FE0000FE
FE0000FE
FE0000FE
FE0000FE
FE0000FE
FE0000FE
FE0000FE
FE0000FE
FE0000FE
FE0000FE
ENDCHAR
STARTCHAR 0126
ENCODING 294
SWIDTH 585 0
DWIDTH 39 0
BBX 31 43 4 -1
BITMAP
FE0000FE
FE0000FE
FFFFFFFE
FFFFFFFE
FFFFFFFE
FFFFFFFE
FFFFFFFE
FFFFFFFE
FFFFFFFE
FE0000FE
FE0000FE
FE0000FE
FE0FE0FE
FE0FE0FE
FE0FE0FE
FE0FE0FE
FE0FE0FE
FE0FE0FE
FFFFFFFE
FFFFFFFE
FFFFFFFE
FFFFFFFE
FFFFFFFE
FFFFFFFE
FFFFFFFE
FE0000FE
FE0000FE
FE0000FE
FE0000FE
FE0000FE
FE0000FE
FE0000FE
FE0000FE
FE0000FE
FE0000FE
FE0000FE
FE0000FE
FE0000FE
FE0000FE
FE0000FE
FE0000FE
FE0000FE
FE0000FE
ENDCHAR
STARTCHAR 0127
ENCODING 295
SWIDTH 585 0
DWIDTH 39 0
BBX 33 43 2 -1
BITMAP
3F80000000
3F80000000
FFFE000000
FFFE000000
FFFE000000
FFFE000000
FFFE000000
FFFE000000
FFFE000000
3F80000000
3F80000000
3F80000000
3F83FFE000
3F83FFE000
3F83FFE000
3F83FFE000
3F83FFE000
3F83FFE000
3FFFFFFF80
3FFE003F80
3FFE003F80
3FFE003F80
3FFE003F80
3FFE003F80
3FFE003F80
3F80003F80
3F80003F80
3F80003F80
3F80003F80
3F80003F80
3F80003F80
3F80003F80
3F80003F80
3F80003F80
3F80003F80
3F80003F80
3F80003F80
3F80003F80
3F80003F80
3F80003F80
3F80003F80
3F80003F80
3F80003F80
ENDCHAR
STARTCHAR 0128
ENCODING 296
SWIDTH 405 0
DWIDTH 27 0
BBX 19 55 4 -1
BITMAP
7FE780
7FE780
7FE780
7FFF80
79FF80
79FF80
79FF80
000000
000000
000000
000000
000000
FFFFE0
FFFFE0
FFFFE0
FFFFE0
FFFFE0
FFFFE0
FFFFE0
03F800
03F800
03F800
03F800
03F800
03F800
03F800
03F800
03F800
03F800
03F800
03F800
03F800
03F800
03F800
03F800
03F800
03F800
03F800
03F800
03F800
03F800
03F800
03F800
03F800
03F800
03F800
03F800
03F800
FFFFE0
FFFFE0
FFFFE0
FFFFE0
FFFFE0
FFFFE0
FFFFE0
ENDCHAR
STARTCHAR 0129
ENCODING 297
SWIDTH 225 0
DWIDTH 15 0
BBX 16 43 -1 -1
BITMAP
FFCF
FFCF
FFCF
FFFF
E3FF
E3FF
E3FF
0000
0000
0000
0000
0000
07F0
07F0
07F0
07F0
07F0
07F0
07F0
07F0
07F0
07F0
07F0
07F0
07F0
07F0
07F0
07F0
07F0
07F0
07F0
07F0
07F0
07F0
07F0
07F0
07F0
07F0
07F0
07F0
07F0
07F0
07F0
ENDCHAR
STARTCHAR 012A
ENCODING 298
SWIDTH 405 0
DWIDTH 27 0
BBX 19 53 4 -1
BITMAP
FFFFE0
FFFFE0
FFFFE0
FFFFE0
FFFFE0
000000
000000
000000
000000
000000
FFFFE0
FFFFE0
FFFFE0
FFFFE0
FFFFE0
FFFFE0
FFFFE0
03F800
03F800
03F800
03F800
03F800
03F800
03F800
03F800
03F800
03F800
03F800
03F800
03F800
03F800
03F800
03F800
03F800
03F800
03F800
03F800
03F800
03F800
03F800
03F800
03F800
03F800
03F800
03F800
03F800
FFFFE0
FFFFE0
FFFFE0
FFFFE0
FFFFE0
FFFFE0
FFFFE0
ENDCHAR
STARTCHAR 012B
ENCODING 299
SWIDTH 225 0
DWIDTH 15 0
BBX 19 41 -2 -1
BITMAP
FFFFE0
FFFFE0
FFFFE0
FFFFE0
FFFFE0
000000
000000
000000
000000
000000
03F800
03F800
03F800
03F800
03F800
03F800
03F800
03F800
03F800
03F800
03F800
03F800
03F800
03F800
03F800
03F800
03F800
03F800
03F800
03F800
03F800
03F800
03F800
03F800
03F800
03F800
03F800
03F800
03F800
03F800
03F800
ENDCHAR
STARTCHAR 012C
ENCODING 300
SWIDTH 405 0
DWIDTH 27 0
BBX 19 55 4 -1
BITMAP
780380
780380
780380
7FFF80
7FFF80
7FFF80
7FFF80
000000
000000
000000
000000
000000
FFFFE0
FFFFE0
FFFFE0
FFFFE0
FFFFE0
FFFFE0
FFFFE0
03F800
03F800
03F800
03F800
03F800
03F800
03F800
03F800
03F800
03F800
03F800
03F800
03F800
03F800
03F800
03F800
03F800
03F800
03F800
03F800
03F800
03F800
03F800
03F800
03F800
03F800
03F800
03F800
03F800
FFFFE0
FFFFE0
FFFFE0
FFFFE0
FFFFE0
FFFFE0
FFFFE0
ENDCHAR
STARTCHAR 012D
ENCODING 301
SWIDTH 225 0
DWIDTH 15 0
BBX 16 44 -1 -1
BITMAP
F007
F007
F007
FFFF
FFFF
FFFF
FFFF
0000
0000
0000
0000
0000
0000
07F0
07F0
07F0
07F0
07F0
07F0
07F0
07F0
07F0
07F0
07F0
07F0
07F0
07F0
07F0
07F0
07F0
07F0
07F0
07F0
07F0
07F0
07F0
07F0
07F0
07F0
07F0
07F0
07F0
07F0
07F0
ENDCHAR
STARTCHAR 012E
ENCODING 302
SWIDTH 405 0
DWIDTH 27 0
BBX 19 56 4 -14
BITMAP
FFFFE0
FFFFE0
FFFFE0
FFFFE0
FFFFE0
FFFFE0
FFFFE0
03F800
03F800
03F800
03F800
03F800
03F800
03F800
03F800
03F800
03F800
03F800
03F800
03F800
03F800
03F800
03F800
03F800
03F800
03F800
03F800
03F800
03F800
03F800
03F800
03F800
03F800
03F800
03F800
03F800
FFFFE0
FFFFE0
FFFFE0
FFFFE0
FFFFE0
FFFFE0
FFFFE0
01E000
01E000
01E000
01E000
0F0000
0F0000
0F0000
780780
780780
780780
0FFC00
0FFC00
0FFC00
ENDCHAR
STARTCHAR 012F
ENCODING 303
SWIDTH 225 0
DWIDTH 15 0
BBX 16 56 -1 -14
BITMAP
07F0
07F0
07F0
07F0
07F0
07F0
07F0
0000
0000
0000
0000
0000
07F0
07F0
07F0
07F0
07F0
07F0
07F0
07F0
07F0
07F0
07F0
07F0
07F0
07F0
07F0
07F0
07F0
07F0
07F0
07F0
07F0
07F0
07F0
07F0
07F0
07F0
07F0
07F0
07F0
07F0
07F0
01C0
01C0
01C0
01C0
0E00
0E00
0E00
F007
F007
F007
0FF8
0FF8
0FF8
ENDCHAR
STARTCHAR 0130
ENCODING 304
SWIDTH 405 0
DWIDTH 27 0
BBX 19 55 4 -1
BITMAP
03F800
03F800
03F800
03F800
03F800
03F800
03F800
000000
000000
000000
000000
000000
FFFFE0
FFFFE0
FFFFE0
FFFFE0
FFFFE0
FFFFE0
FFFFE0
03F800
03F800
03F800
03F800
03F800
03F800
03F800
03F800
03F800
03F800
03F800
03F800
03F800
03F800
03F800
03F800
03F800
03F800
03F800
03F800
03F800
03F800
03F800
03F800
03F800
03F800
03F800
03F800
03F800
FFFFE0
FFFFE0
FFFFE0
FFFFE0
FFFFE0
FFFFE0
FFFFE0
ENDCHAR
STARTCHAR 0131
ENCODING 305
SWIDTH 225 0
DWIDTH 15 0
BBX 7 31 4 -1
BITMAP
FE
FE
FE
FE
FE
FE
FE
FE
FE
FE
FE
FE
FE
FE
FE
FE
FE
FE
FE
FE
FE
FE
FE
FE
FE
FE
FE
FE
FE
FE
FE
ENDCHAR
STARTCHAR 0132
ENCODING 306
SWIDTH 990 0
DWIDTH 66 0
BBX 58 43 4 -1
BITMAP
FFFFE0007FFFF000
FFFFE0007FFFF000
FFFFE0007FFFF000
FFFFE0007FFFF000
FFFFE0007FFFF000
FFFFE0007FFFF000
FFFFE0007FFFFFC0
03F8000000001FC0
03F8000000001FC0
03F8000000001FC0
03F8000000001FC0
03F8000000001FC0
03F8000000001FC0
03F8000000001FC0
03F8000000001FC0
03F8000000001FC0
03F8000000001FC0
03F8000000001FC0
03F8000000001FC0
03F8000000001FC0
03F8000000001FC0
03F8000000001FC0
03F8000000001FC0
03F8000000001FC0
03F8001FC0001FC0
03F8001FC0001FC0
03F8001FC0001FC0
03F8001FC0001FC0
03F8001FC0001FC0
03F8001FC0001FC0
03F8001FC0001FC0
03F8001FC0001FC0
03F8001FC0001FC0
03F8001FC0001FC0
03F8001FC0001FC0
03F8001FC0001FC0
FFFFE01FFFFFFFC0
FFFFE0007FFFF000
FFFFE0007FFFF000
FFFFE0007FFFF000
FFFFE0007FFFF000
FFFFE0007FFFF000
FFFFE0007FFFF000
ENDCHAR
STARTCHAR 0133
ENCODING 307
SWIDTH 690 0
DWIDTH 46 0
BBX 38 31 4 -1
BITMAP
FE000000FC
FE000000FC
FE000000FC
FE000000FC
FE000000FC
FE000000FC
FE000000FC
FE000000FC
FE000000FC
FE000000FC
FE000000FC
FE000000FC
FE000000FC
FE000000FC
FE000000FC
FE000000FC
FE000000FC
FE000000FC
FE07F000FC
FE07F000FC
FE07F000FC
FE07F000FC
FE07F000FC
FE07F000FC
FE07FFFFFC
FE000FFF00
FE000FFF00
FE000FFF00
FE000FFF00
FE000FFF00
FE000FFF00
ENDCHAR
STARTCHAR 0134
ENCODING 308
SWIDTH 585 0
DWIDTH 39 0
BBX 31 55 4 -1
BITMAP
00038000
00038000
00038000
001FF000
001C7000
001C7000
001C7000
00000000
00000000
00000000
00000000
00000000
03FFFF80
03FFFF80
03FFFF80
03FFFF80
03FFFF80
03FFFF80
03FFFFFE
000000FE
000000FE
000000FE
000000FE
000000FE
000000FE
000000FE
000000FE
000000FE
000000FE
000000FE
000000FE
000000FE
000000FE
000000FE
000000FE
000000FE
FE0000FE
FE0000FE
FE0000FE
FE0000FE
FE0000FE
FE0000FE
FE0000FE
FE0000FE
FE0000FE
FE0000FE
FE0000FE
FE0000FE
FFFFFFFE
03FFFF80
03FFFF80
03FFFF80
03FFFF80
03FFFF80
03FFFF80
ENDCHAR
STARTCHAR 0135
ENCODING 309
SWIDTH 495 0
DWIDTH 33 0
BBX 26 43 4 -1
BITMAP
00000E00
00000E00
00000E00
00007FC0
000071C0
000071C0
000071C0
00000000
00000000
00000000
00000000
00000000
00003F80
00003F80
00003F80
00003F80
00003F80
00003F80
00003F80
00003F80
00003F80
00003F80
00003F80
00003F80
00003F80
00003F80
00003F80
00003F80
00003F80
00003F80
FE003F80
FE003F80
FE003F80
FE003F80
FE003F80
FE003F80
FFFFFF80
03FFE000
03FFE000
03FFE000
03FFE000
03FFE000
03FFE000
ENDCHAR
STARTCHAR 0136
ENCODING 310
SWIDTH 585 0
DWIDTH 39 0
BBX 31 58 4 -16
BITMAP
03F800FE
03F800FE
03F800FE
03F800FE
03F800FE
03F800FE
FFF83FFE
FE003F80
FE003F80
FE003F80
FE003F80
FE003F80
FE0FFF80
FE0FE000
FE0FE000
FE0FE000
FE0FE000
FE0FE000
FFFFE000
FFF80000
FFF80000
FFF80000
FFF80000
FFF80000
FFFFE000
FE0FE000
FE0FE000
FE0FE000
FE0FE000
FE0FE000
FE0FFF80
FE003F80
FE003F80
FE003F80
FE003F80
FE003F80
FE003FFE
FE0000FE
FE0000FE
FE0000FE
FE0000FE
FE0000FE
FE0000FE
00000000
00000000
00000000
000FC000
000FC000
000FC000
000FC000
000FC000
000FC000
00003800
00003800
00003800
0001C000
0001C000
0001C000
ENDCHAR
STARTCHAR 0137
ENCODING 311
SWIDTH 585 0
DWIDTH 39 0
BBX 31 58 4 -16
BITMAP
FE000000
FE000000
FE000000
FE000000
FE000000
FE000000
FE000000
FE000000
FE000000
FE000000
FE000000
FE000000
FE0000FE
FE0000FE
FE0000FE
FE0000FE
FE0000FE
FE0000FE
FE0FFFFE
FE0FFF80
FE0FFF80
FE0FFF80
FE0FFF80
FE0FFF80
FFFFFF80
FFF80000
FFF80000
FFF80000
FFF80000
FFF80000
FFFFFF80
FE0FFF80
FE0FFF80
FE0FFF80
FE0FFF80
FE0FFF80
FE0FFFFE
FE0000FE
FE0000FE
FE0000FE
FE0000FE
FE0000FE
FE0000FE
00000000
00000000
00000000
000FC000
000FC000
000FC000
000FC000
000FC000
000FC000
00003800
00003800
00003800
0001C000
0001C000
0001C000
ENDCHAR
STARTCHAR 0139
ENCODING 313
SWIDTH 585 0
DWIDTH 39 0
BBX 31 58 4 -1
BITMAP
0000E000
0000E000
0000E000
0007E000
00070000
00070000
003F0000
00380000
00380000
00380000
00000000
00000000
00000000
00000000
00000000
FE000000
FE000000
FE000000
FE000000
FE000000
FE000000
FE000000
FE000000
FE000000
FE000000
FE000000
FE000000
FE000000
FE000000
FE000000
FE000000
FE000000
FE000000
FE000000
FE000000
FE000000
FE000000
FE000000
FE000000
FE000000
FE000000
FE000000
FE000000
FE000000
FE000000
FE0000FE
FE0000FE
FE0000FE
FE0000FE
FE0000FE
FE0000FE
FFFFFFFE
03FFFF80
03FFFF80
03FFFF80
03FFFF80
03FFFF80
03FFFF80
ENDCHAR
STARTCHAR 013A
ENCODING 314
SWIDTH 225 0
DWIDTH 15 0
BBX 9 58 2 -1
BITMAP
0380
0380
0380
1F80
1C00
1C00
FC00
E000
E000
E000
0000
0000
0000
0000
0000
3F80
3F80
3F80
3F80
3F80
3F80
3F80
3F80
3F80
3F80
3F80
3F80
3F80
3F80
3F80
3F80
3F80
3F80
3F80
3F80
3F80
3F80
3F80
3F80
3F80
3F80
3F80
3F80
3F80
3F80
3F80
3F80
3F80
3F80
3F80
3F80
3F80
3F80
3F80
3F80
3F80
3F80
3F80
ENDCHAR
STARTCHAR 013B
ENCODING 315
SWIDTH 585 0
DWIDTH 39 0
BBX 31 58 4 -16
BITMAP
FE000000
FE000000
FE000000
FE000000
FE000000
FE000000
FE000000
FE000000
FE000000
FE000000
FE000000
FE000000
FE000000
FE000000
FE000000
FE000000
FE000000
FE000000
FE000000
FE000000
FE000000
FE000000
FE000000
FE000000
FE000000
FE000000
FE000000
FE000000
FE000000
FE000000
FE0000FE
FE0000FE
FE0000FE
FE0000FE
FE0000FE
FE0000FE
FFFFFFFE
03FFFF80
03FFFF80
03FFFF80
03FFFF80
03FFFF80
03FFFF80
00000000
00000000
00000000
000FC000
000FC000
000FC000
000FC000
000FC000
000FC000
00003800
00003800
00003800
0001C000
0001C000
0001C000
ENDCHAR
STARTCHAR 013C
ENCODING 316
SWIDTH 225 0
DWIDTH 15 0
BBX 9 58 4 -16
BITMAP
FE00
FE00
FE00
FE00
FE00
FE00
FE00
FE00
FE00
FE00
FE00
FE00
FE00
FE00
FE00
FE00
FE00
FE00
FE00
FE00
FE00
FE00
FE00
FE00
FE00
FE00
FE00
FE00
FE00
FE00
FE00
FE00
FE00
FE00
FE00
FE00
FE00
FE00
FE00
FE00
FE00
FE00
FE00
0000
0000
0000
FC00
FC00
FC00
FC00
FC00
FC00
0380
0380
0380
1C00
1C00
1C00
ENDCHAR
STARTCHAR 013D
ENCODING 317
SWIDTH 585 0
DWIDTH 39 0
BBX 31 43 4 -1
BITMAP
FE003F80
FE003F80
FE003F80
FE003F80
FE003F80
FE003F80
FE003FF0
FE0000F0
FE0000F0
FE0007F0
FE000780
FE000780
FE000780
FE000000
FE000000
FE000000
FE000000
FE000000
FE000000
FE000000
FE000000
FE000000
FE000000
FE000000
FE000000
FE000000
FE000000
FE000000
FE000000
FE000000
FE0000FE
FE0000FE
FE0000FE
FE0000FE
FE0000FE
FE0000FE
FFFFFFFE
03FFFF80
03FFFF80
03FFFF80
03FFFF80
03FFFF80
03FFFF80
ENDCHAR
STARTCHAR 013E
ENCODING 318
SWIDTH 225 0
DWIDTH 15 0
BBX 18 43 4 -1
BITMAP
FEFE00
FEFE00
FEFE00
FEFE00
FEFE00
FEFE00
FEFFC0
FE03C0
FE03C0
FE1FC0
FE1E00
FE1E00
FE1E00
FE0000
FE0000
FE0000
FE0000
FE0000
FE0000
FE0000
FE0000
FE0000
FE0000
FE0000
FE0000
FE0000
FE0000
FE0000
FE0000
FE0000
FE0000
FE0000
FE0000
FE0000
FE0000
FE0000
FE0000
FE0000
FE0000
FE0000
FE0000
FE0000
FE0000
ENDCHAR
STARTCHAR 013F
ENCODING 319
SWIDTH 585 0
DWIDTH 39 0
BBX 31 43 4 -1
BITMAP
FE000000
FE000000
FE000000
FE000000
FE000000
FE000000
FE000000
FE0FE000
FE0FE000
FE0FE000
FE0FE000
FE0FE000
FE0FE000
FE0FE000
FE000000
FE000000
FE000000
FE000000
FE000000
FE000000
FE000000
FE000000
FE000000
FE000000
FE000000
FE000000
FE000000
FE000000
FE000000
FE000000
FE0000FE
FE0000FE
FE0000FE
FE0000FE
FE0000FE
FE0000FE
FFFFFFFE
03FFFF80
03FFFF80
03FFFF80
03FFFF80
03FFFF80
03FFFF80
ENDCHAR
STARTCHAR 0140
ENCODING 320
SWIDTH 225 0
DWIDTH 15 0
BBX 7 43 4 -1
BITMAP
FE
FE
FE
FE
FE
FE
FE
FE
FE
FE
FE
FE
FE
FE
FE
FE
FE
FE
FE
FE
FE
FE
FE
FE
FE
FE
FE
FE
FE
FE
FE
FE
FE
FE
FE
FE
FE
FE
FE
FE
FE
FE
FE
ENDCHAR
STARTCHAR 0141
ENCODING 321
SWIDTH 585 0
DWIDTH 39 0
BBX 37 43 -2 -1
BITMAP
03F8000000
03F8000000
03F8000000
03F8000000
03F8000000
03F8000000
03F8000000
03F8400000
03F8E00000
03F9F80000
03FBF00000
03FBE00000
03FFE00000
03FFC00000
03FF800000
03FF000000
03FF000000
03FE000000
03FC000000
03F8000000
03F8000000
03F8000000
07F8000000
07F8000000
0FF8000000
1FF8000000
3FF8000000
3FF8000000
7FF8000000
FFF8000000
3BF80003F8
13F80003F8
03F80003F8
03F80003F8
03F80003F8
03F80003F8
03FFFFFFF8
000FFFFE00
000FFFFE00
000FFFFE00
000FFFFE00
000FFFFE00
000FFFFE00
ENDCHAR
STARTCHAR 0142
ENCODING 322
SWIDTH 225 0
DWIDTH 15 0
BBX 17 43 -1 -1
BITMAP
07F000
07F000
07F000
07F000
07F000
07F000
07F000
07F000
07F400
07F600
07FF80
07FF80
07FF00
07FF00
07FE00
07FE00
07FC00
07F800
07F800
07F000
07F000
07F000
07F000
07F000
0FF000
1FF000
1FF000
3FF000
3FF000
7FF000
FFF000
FFF000
77F000
17F000
07F000
07F000
07F000
07F000
07F000
07F000
07F000
07F000
07F000
ENDCHAR
STARTCHAR 0143
ENCODING 323
SWIDTH 585 0
DWIDTH 39 0
BBX 31 58 4 -1
BITMAP
0000E000
0000E000
0000E000
0007E000
00070000
00070000
003F0000
00380000
00380000
00380000
00000000
00000000
00000000
00000000
00000000
FE0000FE
FE0000FE
FE0000FE
FE0000FE
FE0000FE
FE0000FE
FFF800FE
FFF800FE
FFF800FE
FFF800FE
FFF800FE
FFF800FE
FFFFE0FE
FE0FE0FE
FE0FE0FE
FE0FE0FE
FE0FE0FE
FE0FE0FE
FE0FE0FE
FE0FE0FE
FE0FE0FE
FE0FE0FE
FE0FE0FE
FE0FE0FE
FE0FE0FE
FE0FE0FE
FE0FE0FE
FE0FE0FE
FE0FE0FE
FE0FE0FE
FE0FFFFE
FE003FFE
FE003FFE
FE003FFE
FE003FFE
FE003FFE
FE003FFE
FE0000FE
FE0000FE
FE0000FE
FE0000FE
FE0000FE
FE0000FE
ENDCHAR
STARTCHAR 0144
ENCODING 324
SWIDTH 585 0
DWIDTH 39 0
BBX 31 46 4 -1
BITMAP
0000E000
0000E000
0000E000
0007E000
00070000
00070000
003F0000
00380000
00380000
00380000
00000000
00000000
00000000
00000000
00000000
FFFFFF80
FFFFFF80
FFFFFF80
FFFFFF80
FFFFFF80
FFFFFF80
FFFFFFFE
FE0000FE
FE0000FE
FE0000FE
FE0000FE
FE0000FE
FE0000FE
FE0000FE
FE0000FE
FE0000FE
FE0000FE
FE0000FE
FE0000FE
FE0000FE
FE0000FE
FE0000FE
FE0000FE
FE0000FE
FE0000FE
FE0000FE
FE0000FE
FE0000FE
FE0000FE
FE0000FE
FE0000FE
ENDCHAR
STARTCHAR 0145
ENCODING 325
SWIDTH 585 0
DWIDTH 39 0
BBX 31 58 4 -16
BITMAP
FE0000FE
FE0000FE
FE0000FE
FE0000FE
FE0000FE
FE0000FE
FFF800FE
FFF800FE
FFF800FE
FFF800FE
FFF800FE
FFF800FE
FFFFE0FE
FE0FE0FE
FE0FE0FE
FE0FE0FE
FE0FE0FE
FE0FE0FE
FE0FE0FE
FE0FE0FE
FE0FE0FE
FE0FE0FE
FE0FE0FE
FE0FE0FE
FE0FE0FE
FE0FE0FE
FE0FE0FE
FE0FE0FE
FE0FE0FE
FE0FE0FE
FE0FFFFE
FE003FFE
FE003FFE
FE003FFE
FE003FFE
FE003FFE
FE003FFE
FE0000FE
FE0000FE
FE0000FE
FE0000FE
FE0000FE
FE0000FE
00000000
00000000
00000000
000FC000
000FC000
000FC000
000FC000
000FC000
000FC000
00003800
00003800
00003800
0001C000
0001C000
0001C000
ENDCHAR
STARTCHAR 0146
ENCODING 326
SWIDTH 585 0
DWIDTH 39 0
BBX 31 46 4 -16
BITMAP
FFFFFF80
FFFFFF80
FFFFFF80
FFFFFF80
FFFFFF80
FFFFFF80
FFFFFFFE
FE0000FE
FE0000FE
FE0000FE
FE0000FE
FE0000FE
FE0000FE
FE0000FE
FE0000FE
FE0000FE
FE0000FE
FE0000FE
FE0000FE
FE0000FE
FE0000FE
FE0000FE
FE0000FE
FE0000FE
FE0000FE
FE0000FE
FE0000FE
FE0000FE
FE0000FE
FE0000FE
FE0000FE
00000000
00000000
00000000
000FC000
000FC000
000FC000
000FC000
000FC000
000FC000
00003800
00003800
00003800
0001C000
0001C000
0001C000
ENDCHAR
STARTCHAR 0147
ENCODING 327
SWIDTH 585 0
DWIDTH 39 0
BBX 31 55 4 -1
BITMAP
001C7000
001C7000
001C7000
001FF000
00038000
00038000
00038000
00000000
00000000
00000000
00000000
00000000
FE0000FE
FE0000FE
FE0000FE
FE0000FE
FE0000FE
FE0000FE
FFF800FE
FFF800FE
FFF800FE
FFF800FE
FFF800FE
FFF800FE
FFFFE0FE
FE0FE0FE
FE0FE0FE
FE0FE0FE
FE0FE0FE
FE0FE0FE
FE0FE0FE
FE0FE0FE
FE0FE0FE
FE0FE0FE
FE0FE0FE
FE0FE0FE
FE0FE0FE
FE0FE0FE
FE0FE0FE
FE0FE0FE
FE0FE0FE
FE0FE0FE
FE0FFFFE
FE003FFE
FE003FFE
FE003FFE
FE003FFE
FE003FFE
FE003FFE
FE0000FE
FE0000FE
FE0000FE
FE0000FE
FE0000FE
FE0000FE
ENDCHAR
STARTCHAR 0148
ENCODING 328
SWIDTH 585 0
DWIDTH 39 0
BBX 31 43 4 -1
BITMAP
001C7000
001C7000
001C7000
001FF000
00038000
00038000
00038000
00000000
00000000
00000000
00000000
00000000
FFFFFF80
FFFFFF80
FFFFFF80
FFFFFF80
FFFFFF80
FFFFFF80
FFFFFFFE
FE0000FE
FE0000FE
FE0000FE
FE0000FE
FE0000FE
FE0000FE
FE0000FE
FE0000FE
FE0000FE
FE0000FE
FE0000FE
FE0000FE
FE0000FE
FE0000FE
FE0000FE
FE0000FE
FE0000FE
FE0000FE
FE0000FE
FE0000FE
FE0000FE
FE0000FE
FE0000FE
FE0000FE
ENDCHAR
STARTCHAR 0149
ENCODING 329
SWIDTH 675 0
DWIDTH 45 0
BBX 40 43 1 -1
BITMAP
FC00000000
FC00000000
FC00000000
FC00000000
FC00000000
FC00000000
FF80000000
0380000000
0380000000
1F80000000
1C00000000
1C00000000
1C7FFFFFC0
007FFFFFC0
007FFFFFC0
007FFFFFC0
007FFFFFC0
007FFFFFC0
007FFFFFFF
007F00007F
007F00007F
007F00007F
007F00007F
007F00007F
007F00007F
007F00007F
007F00007F
007F00007F
007F00007F
007F00007F
007F00007F
007F00007F
007F00007F
007F00007F
007F00007F
007F00007F
007F00007F
007F00007F
007F00007F
007F00007F
007F00007F
007F00007F
007F00007F
ENDCHAR
STARTCHAR 014A
ENCODING 330
SWIDTH 585 0
DWIDTH 39 0
BBX 31 59 4 -17
BITMAP
FE0000FE
FE0000FE
FE0000FE
FE0000FE
FE0000FE
FE0000FE
FFF800FE
FFF800FE
FFF800FE
FFF800FE
FFF800FE
FFF800FE
FFFFE0FE
FE0FE0FE
FE0FE0FE
FE0FE0FE
FE0FE0FE
FE0FE0FE
FE0FE0FE
FE0FE0FE
FE0FE0FE
FE0FE0FE
FE0FE0FE
FE0FE0FE
FE0FE0FE
FE0FE0FE
FE0FE0FE
FE0FE0FE
FE0FE0FE
FE0FE0FE
FE0FFFFE
FE003FFE
FE003FFE
FE003FFE
FE003FFE
FE003FFE
FE003FFE
FE0000FE
FE0000FE
FE0000FE
FE0000FE
FE0000FE
FE0000FE
000000FE
000000FE
000000FE
03F800FE
03F800FE
03F800FE
03F800FE
03F800FE
03F800FE
000FFF80
000FFF80
000FFF80
000FFF80
000FFF80
000FFF80
000FFF80
ENDCHAR
STARTCHAR 014B
ENCODING 331
SWIDTH 585 0
DWIDTH 39 0
BBX 31 46 4 -16
BITMAP
FFFFFF80
FFFFFF80
FFFFFF80
FFFFFF80
FFFFFF80
FFFFFF80
FFFFFFFE
FE0000FE
FE0000FE
FE0000FE
FE0000FE
FE0000FE
FE0000FE
FE0000FE
FE0000FE
FE0000FE
FE0000FE
FE0000FE
FE0000FE
FE0000FE
FE0000FE
FE0000FE
FE0000FE
FE0000FE
FE0000FE
FE0000FE
FE0000FE
FE0000FE
FE0000FE
FE0000FE
FE0000FE
000000FE
000000FE
000000FE
03F800FE
03F800FE
03F800FE
03F800FE
03F800FE
03F800FE
000FFF80
000FFF80
000FFF80
000FFF80
000FFF80
000FFF80
ENDCHAR
STARTCHAR 014C
ENCODING 332
SWIDTH 585 0
DWIDTH 39 0
BBX 31 53 4 -1
BITMAP
03FFFF80
03FFFF80
03FFFF80
03FFFF80
03FFFF80
00000000
00000000
00000000
00000000
00000000
03FFFF80
03FFFF80
03FFFF80
03FFFF80
03FFFF80
03FFFF80
FFFFFFFE
FE0000FE
FE0000FE
FE0000FE
FE0000FE
FE0000FE
FE0000FE
FE0000FE
FE0000FE
FE0000FE
FE0000FE
FE0000FE
FE0000FE
FE0000FE
FE0000FE
FE0000FE
FE0000FE
FE0000FE
FE0000FE
FE0000FE
FE0000FE
FE0000FE
FE0000FE
FE0000FE
FE0000FE
FE0000FE
FE0000FE
FE0000FE
FE0000FE
FE0000FE
FFFFFFFE
03FFFF80
03FFFF80
03FFFF80
03FFFF80
03FFFF80
03FFFF80
ENDCHAR
STARTCHAR 014D
ENCODING 333
SWIDTH 585 0
DWIDTH 39 0
BBX 31 41 4 -1
BITMAP
03FFFF80
03FFFF80
03FFFF80
03FFFF80
03FFFF80
00000000
00000000
00000000
00000000
00000000
03FFFF80
03FFFF80
03FFFF80
03FFFF80
03FFFF80
03FFFF80
FFFFFFFE
FE0000FE
FE0000FE
FE0000FE
FE0000FE
FE0000FE
FE0000FE
FE0000FE
FE0000FE
FE0000FE
FE0000FE
FE0000FE
FE0000FE
FE0000FE
FE0000FE
FE0000FE
FE0000FE
FE0000FE
FFFFFFFE
03FFFF80
03FFFF80
03FFFF80
03FFFF80
03FFFF80
03FFFF80
ENDCHAR
STARTCHAR 014E
ENCODING 334
SWIDTH 585 0
DWIDTH 39 0
BBX 31 55 4 -1
BITMAP
01E00E00
01E00E00
01E00E00
01FFFE00
01FFFE00
01FFFE00
01FFFE00
00000000
00000000
00000000
00000000
00000000
03FFFF80
03FFFF80
03FFFF80
03FFFF80
03FFFF80
03FFFF80
FFFFFFFE
FE0000FE
FE0000FE
FE0000FE
FE0000FE
FE0000FE
FE0000FE
FE0000FE
FE0000FE
FE0000FE
FE0000FE
FE0000FE
FE0000FE
FE0000FE
FE0000FE
FE0000FE
FE0000FE
FE0000FE
FE0000FE
FE0000FE
FE0000FE
FE0000FE
FE0000FE
FE0000FE
FE0000FE
FE0000FE
FE0000FE
FE0000FE
FE0000FE
FE0000FE
FFFFFFFE
03FFFF80
03FFFF80
03FFFF80
03FFFF80
03FFFF80
03FFFF80
ENDCHAR
STARTCHAR 014F
ENCODING 335
SWIDTH 585 0
DWIDTH 39 0
BBX 31 43 4 -1
BITMAP
01E00E00
01E00E00
01E00E00
01FFFE00
01FFFE00
01FFFE00
01FFFE00
00000000
00000000
00000000
00000000
00000000
03FFFF80
03FFFF80
03FFFF80
03FFFF80
03FFFF80
03FFFF80
FFFFFFFE
FE0000FE
FE0000FE
FE0000FE
FE0000FE
FE0000FE
FE0000FE
FE0000FE
FE0000FE
FE0000FE
FE0000FE
FE0000FE
FE0000FE
FE0000FE
FE0000FE
FE0000FE
FE0000FE
FE0000FE
FFFFFFFE
03FFFF80
03FFFF80
03FFFF80
03FFFF80
03FFFF80
03FFFF80
ENDCHAR
STARTCHAR 0150
ENCODING 336
SWIDTH 585 0
DWIDTH 39 0
BBX 31 58 4 -1
BITMAP
03C3C000
03C3C000
03C3C000
03FBF800
00787800
00787800
007F7F00
00070F00
00070F00
00070F00
00000000
00000000
00000000
00000000
00000000
03FFFF80
03FFFF80
03FFFF80
03FFFF80
03FFFF80
03FFFF80
FFFFFFFE
FE0000FE
FE0000FE
FE0000FE
FE0000FE
FE0000FE
FE0000FE
FE0000FE
FE0000FE
FE0000FE
FE0000FE
FE0000FE
FE0000FE
FE0000FE
FE0000FE
FE0000FE
FE0000FE
FE0000FE
FE0000FE
FE0000FE
FE0000FE
FE0000FE
FE0000FE
FE0000FE
FE0000FE
FE0000FE
FE0000FE
FE0000FE
FE0000FE
FE0000FE
FFFFFFFE
03FFFF80
03FFFF80
03FFFF80
03FFFF80
03FFFF80
03FFFF80
ENDCHAR
STARTCHAR 0151
ENCODING 337
SWIDTH 585 0
DWIDTH 39 0
BBX 31 46 4 -1
BITMAP
03C3C000
03C3C000
03C3C000
03FBF800
00787800
00787800
007F7F00
00070F00
00070F00
00070F00
00000000
00000000
00000000
00000000
00000000
03FFFF80
03FFFF80
03FFFF80
03FFFF80
03FFFF80
03FFFF80
FFFFFFFE
FE0000FE
FE0000FE
FE0000FE
FE0000FE
FE0000FE
FE0000FE
FE0000FE
FE0000FE
FE0000FE
FE0000FE
FE0000FE
FE0000FE
FE0000FE
FE0000FE
FE0000FE
FE0000FE
FE0000FE
FFFFFFFE
03FFFF80
03FFFF80
03FFFF80
03FFFF80
03FFFF80
03FFFF80
ENDCHAR
STARTCHAR 0152
ENCODING 338
SWIDTH 945 0
DWIDTH 63 0
BBX 55 43 4 -1
BITMAP
03FFFF83FFFF80
03FFFF83FFFF80
03FFFF83FFFF80
03FFFF83FFFF80
03FFFF83FFFF80
03FFFF83FFFF80
FFFFFFFFFFFFFE
FE0000FE0000FE
FE0000FE0000FE
FE0000FE0000FE
FE0000FE0000FE
FE0000FE0000FE
FE0000FE0000FE
FE0000FE000000
FE0000FE000000
FE0000FE000000
FE0000FE000000
FE0000FE000000
FE0000FFFFE000
FE0000FFFFE000
FE0000FFFFE000
FE0000FFFFE000
FE0000FFFFE000
FE0000FFFFE000
FE0000FFFFE000
FE0000FE000000
FE0000FE000000
FE0000FE000000
FE0000FE000000
FE0000FE000000
FE0000FE0000FE
FE0000FE0000FE
FE0000FE0000FE
FE0000FE0000FE
FE0000FE0000FE
FE0000FE0000FE
FFFFFFFFFFFFFE
03FFFF83FFFF80
03FFFF83FFFF80
03FFFF83FFFF80
03FFFF83FFFF80
03FFFF83FFFF80
03FFFF83FFFF80
ENDCHAR
STARTCHAR 0153
ENCODING 339
SWIDTH 945 0
DWIDTH 63 0
BBX 55 31 4 -1
BITMAP
03FFFF83FFFF80
03FFFF83FFFF80
03FFFF83FFFF80
03FFFF83FFFF80
03FFFF83FFFF80
03FFFF83FFFF80
FFFFFFFFFFFFFE
FE0000FE0000FE
FE0000FE0000FE
FE0000FE0000FE
FE0000FE0000FE
FE0000FE0000FE
FE0000FFFFE0FE
FE0000FFFFE000
FE0000FFFFE000
FE0000FFFFE000
FE0000FFFFE000
FE0000FFFFE000
FE0000FFFFE0FE
FE0000FE0000FE
FE0000FE0000FE
FE0000FE0000FE
FE0000FE0000FE
FE0000FE0000FE
FFFFFFFFFFFFFE
03FFFF83FFFF80
03FFFF83FFFF80
03FFFF83FFFF80
03FFFF83FFFF80
03FFFF83FFFF80
03FFFF83FFFF80
ENDCHAR
STARTCHAR 0154
ENCODING 340
SWIDTH 585 0
DWIDTH 39 0
BBX 31 58 4 -1
BITMAP
0000E000
0000E000
0000E000
0007E000
00070000
00070000
003F0000
00380000
00380000
00380000
00000000
00000000
00000000
00000000
00000000
03FFFF80
03FFFF80
03FFFF80
03FFFF80
03FFFF80
03FFFF80
FFFFFFFE
FE0000FE
FE0000FE
FE0000FE
FE0000FE
FE0000FE
FE0000FE
FE0000FE
FE0000FE
FE0000FE
FE0000FE
FE0000FE
FE0000FE
FE0000FE
FE0000FE
FE0000FE
FE0000FE
FE0000FE
FFFFFFFE
FFFFFF80
FFFFFF80
FFFFFF80
FFFFFF80
FFFFFF80
FFFFFF80
FE01FC00
FE01FC00
FE01FC00
FE01FC00
FE01FC00
FE01FFF0
FE0007F0
FE0007F0
FE0007F0
FE0007F0
FE0007F0
FE0007F0
ENDCHAR
STARTCHAR 0155
ENCODING 341
SWIDTH 585 0
DWIDTH 39 0
BBX 31 46 4 -1
BITMAP
0000E000
0000E000
0000E000
0007E000
00070000
00070000
003F0000
00380000
00380000
00380000
00000000
00000000
00000000
00000000
00000000
03FFFF80
03FFFF80
03FFFF80
03FFFF80
03FFFF80
03FFFF80
FFFFFFFE
FE0000FE
FE0000FE
FE0000FE
FE0000FE
FE0000FE
FE0000FE
FE000000
FE000000
FE000000
FE000000
FE000000
FE000000
FE000000
FE000000
FE000000
FE000000
FE000000
FE000000
FE000000
FE000000
FE000000
FE000000
FE000000
FE000000
ENDCHAR
STARTCHAR 0156
ENCODING 342
SWIDTH 585 0
DWIDTH 39 0
BBX 31 58 4 -16
BITMAP
03FFFF80
03FFFF80
03FFFF80
03FFFF80
03FFFF80
03FFFF80
FFFFFFFE
FE0000FE
FE0000FE
FE0000FE
FE0000FE
FE0000FE
FE0000FE
FE0000FE
FE0000FE
FE0000FE
FE0000FE
FE0000FE
FE0000FE
FE0000FE
FE0000FE
FE0000FE
FE0000FE
FE0000FE
FFFFFFFE
FFFFFF80
FFFFFF80
FFFFFF80
FFFFFF80
FFFFFF80
FFFFFF80
FE01FC00
FE01FC00
FE01FC00
FE01FC00
FE01FC00
FE01FFF0
FE0007F0
FE0007F0
FE0007F0
FE0007F0
FE0007F0
FE0007F0
00000000
00000000
00000000
000FC000
000FC000
000FC000
000FC000
000FC000
000FC000
00003800
00003800
00003800
0001C000
0001C000
0001C000
ENDCHAR
STARTCHAR 0157
ENCODING 343
SWIDTH 585 0
DWIDTH 39 0
BBX 31 46 4 -16
BITMAP
03FFFF80
03FFFF80
03FFFF80
03FFFF80
03FFFF80
03FFFF80
FFFFFFFE
FE0000FE
FE0000FE
FE0000FE
FE0000FE
FE0000FE
FE0000FE
FE000000
FE000000
FE000000
FE000000
FE000000
FE000000
FE000000
FE000000
FE000000
FE000000
FE000000
FE000000
FE000000
FE000000
FE000000
FE000000
FE000000
FE000000
00000000
00000000
00000000
000FC000
000FC000
000FC000
000FC000
000FC000
000FC000
00003800
00003800
00003800
0001C000
0001C000
0001C000
ENDCHAR
STARTCHAR 0158
ENCODING 344
SWIDTH 585 0
DWIDTH 39 0
BBX 31 55 4 -1
BITMAP
001C7000
001C7000
001C7000
001FF000
00038000
00038000
00038000
00000000
00000000
00000000
00000000
00000000
03FFFF80
03FFFF80
03FFFF80
03FFFF80
03FFFF80
03FFFF80
FFFFFFFE
FE0000FE
FE0000FE
FE0000FE
FE0000FE
FE0000FE
FE0000FE
FE0000FE
FE0000FE
FE0000FE
FE0000FE
FE0000FE
FE0000FE
FE0000FE
FE0000FE
FE0000FE
FE0000FE
FE0000FE
FFFFFFFE
FFFFFF80
FFFFFF80
FFFFFF80
FFFFFF80
FFFFFF80
FFFFFF80
FE01FC00
FE01FC00
FE01FC00
FE01FC00
FE01FC00
FE01FFF0
FE0007F0
FE0007F0
FE0007F0
FE0007F0
FE0007F0
FE0007F0
ENDCHAR
STARTCHAR 0159
ENCODING 345
SWIDTH 585 0
DWIDTH 39 0
BBX 31 43 4 -1
BITMAP
001C7000
001C7000
001C7000
001FF000
00038000
00038000
00038000
00000000
00000000
00000000
00000000
00000000
03FFFF80
03FFFF80
03FFFF80
03FFFF80
03FFFF80
03FFFF80
FFFFFFFE
FE0000FE
FE0000FE
FE0000FE
FE0000FE
FE0000FE
FE0000FE
FE000000
FE000000
FE000000
FE000000
FE000000
FE000000
FE000000
FE000000
FE000000
FE000000
FE000000
FE000000
FE000000
FE000000
FE000000
FE000000
FE000000
FE000000
ENDCHAR
STARTCHAR 015A
ENCODING 346
SWIDTH 585 0
DWIDTH 39 0
BBX 31 58 4 -1
BITMAP
0000E000
0000E000
0000E000
0007E000
00070000
00070000
003F0000
00380000
00380000
00380000
00000000
00000000
00000000
00000000
00000000
03FFFF80
03FFFF80
03FFFF80
03FFFF80
03FFFF80
03FFFF80
FFFFFFFE
FE0000FE
FE0000FE
FE0000FE
FE0000FE
FE0000FE
FE0000FE
FE000000
FE000000
FE000000
FE000000
FE000000
FFFFFF80
03FFFF80
03FFFF80
03FFFF80
03FFFF80
03FFFF80
03FFFFFE
000000FE
000000FE
000000FE
000000FE
000000FE
FE0000FE
FE0000FE
FE0000FE
FE0000FE
FE0000FE
FE0000FE
FFFFFFFE
03FFFF80
03FFFF80
03FFFF80
03FFFF80
03FFFF80
03FFFF80
ENDCHAR
STARTCHAR 015B
ENCODING 347
SWIDTH 585 0
DWIDTH 39 0
BBX 31 46 4 -1
BITMAP
00003C00
00003C00
00003C00
0001FC00
0001E000
0001E000
000FE000
000F0000
000F0000
000F0000
00000000
00000000
00000000
00000000
00000000
03FFFFFE
03FFFFFE
03FFFFFE
03FFFFFE
03FFFFFE
03FFFFFE
FFFFFFFE
FE000000
FE000000
FE000000
FE000000
FE000000
FFFFFF80
03FFFF80
03FFFF80
03FFFF80
03FFFF80
03FFFF80
03FFFFFE
000000FE
000000FE
000000FE
000000FE
000000FE
FFFFFFFE
FFFFFF80
FFFFFF80
FFFFFF80
FFFFFF80
FFFFFF80
FFFFFF80
ENDCHAR
STARTCHAR 015C
ENCODING 348
SWIDTH 585 0
DWIDTH 39 0
BBX 31 55 4 -1
BITMAP
00038000
00038000
00038000
001FF000
001C7000
001C7000
001C7000
00000000
00000000
00000000
00000000
00000000
03FFFF80
03FFFF80
03FFFF80
03FFFF80
03FFFF80
03FFFF80
FFFFFFFE
FE0000FE
FE0000FE
FE0000FE
FE0000FE
FE0000FE
FE0000FE
FE000000
FE000000
FE000000
FE000000
FE000000
FFFFFF80
03FFFF80
03FFFF80
03FFFF80
03FFFF80
03FFFF80
03FFFFFE
000000FE
000000FE
000000FE
000000FE
000000FE
FE0000FE
FE0000FE
FE0000FE
FE0000FE
FE0000FE
FE0000FE
FFFFFFFE
03FFFF80
03FFFF80
03FFFF80
03FFFF80
03FFFF80
03FFFF80
ENDCHAR
STARTCHAR 015D
ENCODING 349
SWIDTH 585 0
DWIDTH 39 0
BBX 31 43 4 -1
BITMAP
0000F000
0000F000
0000F000
0007FE00
00079E00
00079E00
00079E00
00000000
00000000
00000000
00000000
00000000
03FFFFFE
03FFFFFE
03FFFFFE
03FFFFFE
03FFFFFE
03FFFFFE
FFFFFFFE
FE000000
FE000000
FE000000
FE000000
FE000000
FFFFFF80
03FFFF80
03FFFF80
03FFFF80
03FFFF80
03FFFF80
03FFFFFE
000000FE
000000FE
000000FE
000000FE
000000FE
FFFFFFFE
FFFFFF80
FFFFFF80
FFFFFF80
FFFFFF80
FFFFFF80
FFFFFF80
ENDCHAR
STARTCHAR 015E
ENCODING 350
SWIDTH 585 0
DWIDTH 39 0
BBX 31 55 4 -13
BITMAP
03FFFF80
03FFFF80
03FFFF80
03FFFF80
03FFFF80
03FFFF80
FFFFFFFE
FE0000FE
FE0000FE
FE0000FE
FE0000FE
FE0000FE
FE0000FE
FE000000
FE000000
FE000000
FE000000
FE000000
FFFFFF80
03FFFF80
03FFFF80
03FFFF80
03FFFF80
03FFFF80
03FFFFFE
000000FE
000000FE
000000FE
000000FE
000000FE
FE0000FE
FE0000FE
FE0000FE
FE0000FE
FE0000FE
FE0000FE
FFFFFFFE
03FFFF80
03FFFF80
03FFFF80
03FFFF80
03FFFF80
03FFFF80
00038000
00038000
00038000
00007000
00007000
00007000
00E00E00
00E00E00
00E00E00
001FF000
001FF000
001FF000
ENDCHAR
STARTCHAR 015F
ENCODING 351
SWIDTH 585 0
DWIDTH 39 0
BBX 31 43 4 -13
BITMAP
03FFFFFE
03FFFFFE
03FFFFFE
03FFFFFE
03FFFFFE
03FFFFFE
FFFFFFFE
FE000000
FE000000
FE000000
FE000000
FE000000
FFFFFF80
03FFFF80
03FFFF80
03FFFF80
03FFFF80
03FFFF80
03FFFFFE
000000FE
000000FE
000000FE
000000FE
000000FE
FFFFFFFE
FFFFFF80
FFFFFF80
FFFFFF80
FFFFFF80
FFFFFF80
FFFFFF80
00038000
00038000
00038000
00007000
00007000
00007000
00E00E00
00E00E00
00E00E00
001FF000
001FF000
001FF000
ENDCHAR
STARTCHAR 0160
ENCODING 352
SWIDTH 585 0
DWIDTH 39 0
BBX 31 55 4 -1
BITMAP
001C7000
001C7000
001C7000
001FF000
00038000
00038000
00038000
00000000
00000000
00000000
00000000
00000000
03FFFF80
03FFFF80
03FFFF80
03FFFF80
03FFFF80
03FFFF80
FFFFFFFE
FE0000FE
FE0000FE
FE0000FE
FE0000FE
FE0000FE
FE0000FE
FE000000
FE000000
FE000000
FE000000
FE000000
FFFFFF80
03FFFF80
03FFFF80
03FFFF80
03FFFF80
03FFFF80
03FFFFFE
000000FE
000000FE
000000FE
000000FE
000000FE
FE0000FE
FE0000FE
FE0000FE
FE0000FE
FE0000FE
FE0000FE
FFFFFFFE
03FFFF80
03FFFF80
03FFFF80
03FFFF80
03FFFF80
03FFFF80
ENDCHAR
STARTCHAR 0161
ENCODING 353
SWIDTH 585 0
DWIDTH 39 0
BBX 31 43 4 -1
BITMAP
00079E00
00079E00
00079E00
0007FE00
0000F000
0000F000
0000F000
00000000
00000000
00000000
00000000
00000000
03FFFFFE
03FFFFFE
03FFFFFE
03FFFFFE
03FFFFFE
03FFFFFE
FFFFFFFE
FE000000
FE000000
FE000000
FE000000
FE000000
FFFFFF80
03FFFF80
03FFFF80
03FFFF80
03FFFF80
03FFFF80
03FFFFFE
000000FE
000000FE
000000FE
000000FE
000000FE
FFFFFFFE
FFFFFF80
FFFFFF80
FFFFFF80
FFFFFF80
FFFFFF80
FFFFFF80
ENDCHAR
STARTCHAR 0162
ENCODING 354
SWIDTH 585 0
DWIDTH 39 0
BBX 31 55 4 -13
BITMAP
03FFFF80
03FFFF80
03FFFF80
03FFFF80
03FFFF80
03FFFF80
FFFFFFFE
FE0FE0FE
FE0FE0FE
FE0FE0FE
FE0FE0FE
FE0FE0FE
FE0FE0FE
000FE000
000FE000
000FE000
000FE000
000FE000
000FE000
000FE000
000FE000
000FE000
000FE000
000FE000
000FE000
000FE000
000FE000
000FE000
000FE000
000FE000
000FE000
000FE000
000FE000
000FE000
000FE000
000FE000
000FE000
000FE000
000FE000
000FE000
000FE000
000FE000
000FE000
00038000
00038000
00038000
00007000
00007000
00007000
00E00E00
00E00E00
00E00E00
001FF000
001FF000
001FF000
ENDCHAR
STARTCHAR 0163
ENCODING 355
SWIDTH 675 0
DWIDTH 45 0
BBX 37 55 4 -13
BITMAP
03F8000000
03F8000000
03F8000000
03F8000000
03F8000000
03F8000000
03F8000000
03F8000000
03F8000000
03F8000000
03F8000000
03F8000000
FFFFFFFE00
FFFFFFFE00
FFFFFFFE00
FFFFFFFE00
FFFFFFFE00
FFFFFFFE00
FFFFFFFE00
03F8000000
03F8000000
03F8000000
03F8000000
03F8000000
03F8000000
03F8000000
03F8000000
03F8000000
03F8000000
03F8000000
03F80003F8
03F80003F8
03F80003F8
03F80003F8
03F80003F8
03F80003F8
03FFFFFFF8
000FFFFE00
000FFFFE00
000FFFFE00
000FFFFE00
000FFFFE00
000FFFFE00
00001E0000
00001E0000
00001E0000
000003C000
000003C000
000003C000
0007807800
0007807800
0007807800
0000FFC000
0000FFC000
0000FFC000
ENDCHAR
STARTCHAR 0164
ENCODING 356
SWIDTH 585 0
DWIDTH 39 0
BBX 31 55 4 -1
BITMAP
001C7000
001C7000
001C7000
001FF000
00038000
00038000
00038000
00000000
00000000
00000000
00000000
00000000
03FFFF80
03FFFF80
03FFFF80
03FFFF80
03FFFF80
03FFFF80
FFFFFFFE
FE0FE0FE
FE0FE0FE
FE0FE0FE
FE0FE0FE
FE0FE0FE
FE0FE0FE
000FE000
000FE000
000FE000
000FE000
000FE000
000FE000
000FE000
000FE000
000FE000
000FE000
000FE000
000FE000
000FE000
000FE000
000FE000
000FE000
000FE000
000FE000
000FE000
000FE000
000FE000
000FE000
000FE000
000FE000
000FE000
000FE000
000FE000
000FE000
000FE000
000FE000
ENDCHAR
STARTCHAR 0165
ENCODING 357
SWIDTH 675 0
DWIDTH 45 0
BBX 42 43 4 -1
BITMAP
03F80000FE00
03F80000FE00
03F80000FE00
03F80000FE00
03F80000FE00
03F80000FE00
03F80000FFC0
03F8000003C0
03F8000003C0
03F800001FC0
03F800001E00
03F800001E00
FFFFFFFE1E00
FFFFFFFE0000
FFFFFFFE0000
FFFFFFFE0000
FFFFFFFE0000
FFFFFFFE0000
FFFFFFFE0000
03F800000000
03F800000000
03F800000000
03F800000000
03F800000000
03F800000000
03F800000000
03F800000000
03F800000000
03F800000000
03F800000000
03F80003F800
03F80003F800
03F80003F800
03F80003F800
03F80003F800
03F80003F800
03FFFFFFF800
000FFFFE0000
000FFFFE0000
000FFFFE0000
000FFFFE0000
000FFFFE0000
000FFFFE0000
ENDCHAR
STARTCHAR 0166
ENCODING 358
SWIDTH 585 0
DWIDTH 39 0
BBX 31 43 4 -1
BITMAP
03FFFF80
03FFFF80
03FFFF80
03FFFF80
03FFFF80
03FFFF80
FFFFFFFE
FE0FE0FE
FE0FE0FE
FE0FE0FE
FE0FE0FE
FE0FE0FE
FE0FE0FE
000FE000
000FE000
000FE000
03FFFF80
03FFFF80
03FFFF80
03FFFF80
03FFFF80
03FFFF80
000FE000
000FE000
000FE000
000FE000
000FE000
000FE000
000FE000
000FE000
000FE000
000FE000
000FE000
000FE000
000FE000
000FE000
000FE000
000FE000
000FE000
000FE000
000FE000
000FE000
000FE000
ENDCHAR
STARTCHAR 0167
ENCODING 359
SWIDTH 675 0
DWIDTH 45 0
BBX 37 43 4 -1
BITMAP
03F8000000
03F8000000
03F8000000
03F8000000
03F8000000
03F8000000
03F8000000
03F8000000
03F8000000
03F8000000
03F8000000
03F8000000
FFFFFFFE00
FFFFFFFE00
FFFFFFFE00
FFFFFFFE00
FFFFFFFE00
FFFFFFFE00
FFFFFFFE00
03F8000000
03F8000000
03F8000000
03F8000000
03F8000000
03F8000000
FFFFE00000
FFFFE00000
FFFFE00000
FFFFE00000
FFFFE00000
FFFFE003F8
FFFFE003F8
03F80003F8
03F80003F8
03F80003F8
03F80003F8
03FFFFFFF8
000FFFFE00
000FFFFE00
000FFFFE00
000FFFFE00
000FFFFE00
000FFFFE00
ENDCHAR
STARTCHAR 0168
ENCODING 360
SWIDTH 585 0
DWIDTH 39 0
BBX 31 55 4 -1
BITMAP
01FF9E00
01FF9E00
01FF9E00
01FFFE00
01E7FE00
01E7FE00
01E7FE00
00000000
00000000
00000000
00000000
00000000
FE0000FE
FE0000FE
FE0000FE
FE0000FE
FE0000FE
FE0000FE
FE0000FE
FE0000FE
FE0000FE
FE0000FE
FE0000FE
FE0000FE
FE0000FE
FE0000FE
FE0000FE
FE0000FE
FE0000FE
FE0000FE
FE0000FE
FE0000FE
FE0000FE
FE0000FE
FE0000FE
FE0000FE
FE0000FE
FE0000FE
FE0000FE
FE0000FE
FE0000FE
FE0000FE
FE0000FE
FE0000FE
FE0000FE
FE0000FE
FE0000FE
FE0000FE
FFFFFFFE
03FFFF80
03FFFF80
03FFFF80
03FFFF80
03FFFF80
03FFFF80
ENDCHAR
STARTCHAR 0169
ENCODING 361
SWIDTH 585 0
DWIDTH 39 0
BBX 31 43 4 -1
BITMAP
01FF9E00
01FF9E00
01FF9E00
01FFFE00
01E7FE00
01E7FE00
01E7FE00
00000000
00000000
00000000
00000000
00000000
FE0000FE
FE0000FE
FE0000FE
FE0000FE
FE0000FE
FE0000FE
FE0000FE
FE0000FE
FE0000FE
FE0000FE
FE0000FE
FE0000FE
FE0000FE
FE0000FE
FE0000FE
FE0000FE
FE0000FE
FE0000FE
FE0000FE
FE0000FE
FE0000FE
FE0000FE
FE0000FE
FE0000FE
FFFFFFFE
03FFFF80
03FFFF80
03FFFF80
03FFFF80
03FFFF80
03FFFF80
ENDCHAR
STARTCHAR 016A
ENCODING 362
SWIDTH 585 0
DWIDTH 39 0
BBX 31 53 4 -1
BITMAP
03FFFF80
03FFFF80
03FFFF80
03FFFF80
03FFFF80
00000000
00000000
00000000
00000000
00000000
FE0000FE
FE0000FE
FE0000FE
FE0000FE
FE0000FE
FE0000FE
FE0000FE
FE0000FE
FE0000FE
FE0000FE
FE0000FE
FE0000FE
FE0000FE
FE0000FE
FE0000FE
FE0000FE
FE0000FE
FE0000FE
FE0000FE
FE0000FE
FE0000FE
FE0000FE
FE0000FE
FE0000FE
FE0000FE
FE0000FE
FE0000FE
FE0000FE
FE0000FE
FE0000FE
FE0000FE
FE0000FE
FE0000FE
FE0000FE
FE0000FE
FE0000FE
FFFFFFFE
03FFFF80
03FFFF80
03FFFF80
03FFFF80
03FFFF80
03FFFF80
ENDCHAR
STARTCHAR 016B
ENCODING 363
SWIDTH 585 0
DWIDTH 39 0
BBX 31 41 4 -1
BITMAP
03FFFF80
03FFFF80
03FFFF80
03FFFF80
03FFFF80
00000000
00000000
00000000
00000000
00000000
FE0000FE
FE0000FE
FE0000FE
FE0000FE
FE0000FE
FE0000FE
FE0000FE
FE0000FE
FE0000FE
FE0000FE
FE0000FE
FE0000FE
FE0000FE
FE0000FE
FE0000FE
FE0000FE
FE0000FE
FE0000FE
FE0000FE
FE0000FE
FE0000FE
FE0000FE
FE0000FE
FE0000FE
FFFFFFFE
03FFFF80
03FFFF80
03FFFF80
03FFFF80
03FFFF80
03FFFF80
ENDCHAR
STARTCHAR 016C
ENCODING 364
SWIDTH 585 0
DWIDTH 39 0
BBX 31 55 4 -1
BITMAP
01E00E00
01E00E00
01E00E00
01FFFE00
01FFFE00
01FFFE00
01FFFE00
00000000
00000000
00000000
00000000
00000000
FE0000FE
FE0000FE
FE0000FE
FE0000FE
FE0000FE
FE0000FE
FE0000FE
FE0000FE
FE0000FE
FE0000FE
FE0000FE
FE0000FE
FE0000FE
FE0000FE
FE0000FE
FE0000FE
FE0000FE
FE0000FE
FE0000FE
FE0000FE
FE0000FE
FE0000FE
FE0000FE
FE0000FE
FE0000FE
FE0000FE
FE0000FE
FE0000FE
FE0000FE
FE0000FE
FE0000FE
FE0000FE
FE0000FE
FE0000FE
FE0000FE
FE0000FE
FFFFFFFE
03FFFF80
03FFFF80
03FFFF80
03FFFF80
03FFFF80
03FFFF80
ENDCHAR
STARTCHAR 016D
ENCODING 365
SWIDTH 585 0
DWIDTH 39 0
BBX 31 43 4 -1
BITMAP
01E00E00
01E00E00
01E00E00
01FFFE00
01FFFE00
01FFFE00
01FFFE00
00000000
00000000
00000000
00000000
00000000
FE0000FE
FE0000FE
FE0000FE
FE0000FE
FE0000FE
FE0000FE
FE0000FE
FE0000FE
FE0000FE
FE0000FE
FE0000FE
FE0000FE
FE0000FE
FE0000FE
FE0000FE
FE0000FE
FE0000FE
FE0000FE
FE0000FE
FE0000FE
FE0000FE
FE0000FE
FE0000FE
FE0000FE
FFFFFFFE
03FFFF80
03FFFF80
03FFFF80
03FFFF80
03FFFF80
03FFFF80
ENDCHAR
STARTCHAR 016E
ENCODING 366
SWIDTH 585 0
DWIDTH 39 0
BBX 31 55 4 -1
BITMAP
000FE000
000FE000
000FE000
000C6000
000C6000
000FE000
000FE000
00000000
00000000
00000000
00000000
00000000
FE0000FE
FE0000FE
FE0000FE
FE0000FE
FE0000FE
FE0000FE
FE0000FE
FE0000FE
FE0000FE
FE0000FE
FE0000FE
FE0000FE
FE0000FE
FE0000FE
FE0000FE
FE0000FE
FE0000FE
FE0000FE
FE0000FE
FE0000FE
FE0000FE
FE0000FE
FE0000FE
FE0000FE
FE0000FE
FE0000FE
FE0000FE
FE0000FE
FE0000FE
FE0000FE
FE0000FE
FE0000FE
FE0000FE
FE0000FE
FE0000FE
FE0000FE
FFFFFFFE
03FFFF80
03FFFF80
03FFFF80
03FFFF80
03FFFF80
03FFFF80
ENDCHAR
STARTCHAR 016F
ENCODING 367
SWIDTH 585 0
DWIDTH 39 0
BBX 31 43 4 -1
BITMAP
000FE000
000FE000
000FE000
000C6000
000C6000
000FE000
000FE000
00000000
00000000
00000000
00000000
00000000
FE0000FE
FE0000FE
FE0000FE
FE0000FE
FE0000FE
FE0000FE
FE0000FE
FE0000FE
FE0000FE
FE0000FE
FE0000FE
FE0000FE
FE0000FE
FE0000FE
FE0000FE
FE0000FE
FE0000FE
FE0000FE
FE0000FE
FE0000FE
FE0000FE
FE0000FE
FE0000FE
FE0000FE
FFFFFFFE
03FFFF80
03FFFF80
03FFFF80
03FFFF80
03FFFF80
03FFFF80
ENDCHAR
STARTCHAR 0170
ENCODING 368
SWIDTH 585 0
DWIDTH 39 0
BBX 31 58 4 -1
BITMAP
03C3C000
03C3C000
03C3C000
03FBF800
00787800
00787800
007F7F00
00070F00
00070F00
00070F00
00000000
00000000
00000000
00000000
00000000
FE0000FE
FE0000FE
FE0000FE
FE0000FE
FE0000FE
FE0000FE
FE0000FE
FE0000FE
FE0000FE
FE0000FE
FE0000FE
FE0000FE
FE0000FE
FE0000FE
FE0000FE
FE0000FE
FE0000FE
FE0000FE
FE0000FE
FE0000FE
FE0000FE
FE0000FE
FE0000FE
FE0000FE
FE0000FE
FE0000FE
FE0000FE
FE0000FE
FE0000FE
FE0000FE
FE0000FE
FE0000FE
FE0000FE
FE0000FE
FE0000FE
FE0000FE
FFFFFFFE
03FFFF80
03FFFF80
03FFFF80
03FFFF80
03FFFF80
03FFFF80
ENDCHAR
STARTCHAR 0171
ENCODING 369
SWIDTH 585 0
DWIDTH 39 0
BBX 31 46 4 -1
BITMAP
03C3C000
03C3C000
03C3C000
03FBF800
00787800
00787800
007F7F00
00070F00
00070F00
00070F00
00000000
00000000
00000000
00000000
00000000
FE0000FE
FE0000FE
FE0000FE
FE0000FE
FE0000FE
FE0000FE
FE0000FE
FE0000FE
FE0000FE
FE0000FE
FE0000FE
FE0000FE
FE0000FE
FE0000FE
FE0000FE
FE0000FE
FE0000FE
FE0000FE
FE0000FE
FE0000FE
FE0000FE
FE0000FE
FE0000FE
FE0000FE
FFFFFFFE
03FFFF80
03FFFF80
03FFFF80
03FFFF80
03FFFF80
03FFFF80
ENDCHAR
STARTCHAR 0172
ENCODING 370
SWIDTH 585 0
DWIDTH 39 0
BBX 31 56 4 -14
BITMAP
FE0000FE
FE0000FE
FE0000FE
FE0000FE
FE0000FE
FE0000FE
FE0000FE
FE0000FE
FE0000FE
FE0000FE
FE0000FE
FE0000FE
FE0000FE
FE0000FE
FE0000FE
FE0000FE
FE0000FE
FE0000FE
FE0000FE
FE0000FE
FE0000FE
FE0000FE
FE0000FE
FE0000FE
FE0000FE
FE0000FE
FE0000FE
FE0000FE
FE0000FE
FE0000FE
FE0000FE
FE0000FE
FE0000FE
FE0000FE
FE0000FE
FE0000FE
FFFFFFFE
03FFFF80
03FFFF80
03FFFF80
03FFFF80
03FFFF80
03FFFF80
00038000
00038000
00038000
00038000
001C0000
001C0000
001C0000
00E00E00
00E00E00
00E00E00
001FF000
001FF000
001FF000
ENDCHAR
STARTCHAR 0173
ENCODING 371
SWIDTH 585 0
DWIDTH 39 0
BBX 31 44 4 -14
BITMAP
FE0000FE
FE0000FE
FE0000FE
FE0000FE
FE0000FE
FE0000FE
FE0000FE
FE0000FE
FE0000FE
FE0000FE
FE0000FE
FE0000FE
FE0000FE
FE0000FE
FE0000FE
FE0000FE
FE0000FE
FE0000FE
FE0000FE
FE0000FE
FE0000FE
FE0000FE
FE0000FE
FE0000FE
FFFFFFFE
03FFFF80
03FFFF80
03FFFF80
03FFFF80
03FFFF80
03FFFF80
0003C000
0003C000
0003C000
0003C000
001E0000
001E0000
001E0000
00F00F00
00F00F00
00F00F00
001FF800
001FF800
001FF800
ENDCHAR
STARTCHAR 0174
ENCODING 372
SWIDTH 765 0
DWIDTH 51 0
BBX 43 55 4 -1
BITMAP
00000E000000
00000E000000
00000E000000
00007FC00000
000071C00000
000071C00000
000071C00000
000000000000
000000000000
000000000000
000000000000
000000000000
FE0000000FE0
FE0000000FE0
FE0000000FE0
FE0000000FE0
FE0000000FE0
FE0000000FE0
FE003F800FE0
FE003F800FE0
FE003F800FE0
FE003F800FE0
FE003F800FE0
FE003F800FE0
FE003F800FE0
FE003F800FE0
FE003F800FE0
FE003F800FE0
FE003F800FE0
FE003F800FE0
FE003F800FE0
FE003F800FE0
FE003F800FE0
FE003F800FE0
FE003F800FE0
FE003F800FE0
FE0FFFFE0FE0
FE0FE0FE0FE0
FE0FE0FE0FE0
FE0FE0FE0FE0
FE0FE0FE0FE0
FE0FE0FE0FE0
FE0FE0FE0FE0
FE0FE0FE0FE0
FE0FE0FE0FE0
FE0FE0FE0FE0
FE0FE0FE0FE0
FE0FE0FE0FE0
FFFFE0FFFFE0
03F80003F800
03F80003F800
03F80003F800
03F80003F800
03F80003F800
03F80003F800
ENDCHAR
STARTCHAR 0175
ENCODING 373
SWIDTH 765 0
DWIDTH 51 0
BBX 43 43 4 -1
BITMAP
00000E000000
00000E000000
00000E000000
00007FC00000
000071C00000
000071C00000
000071C00000
000000000000
000000000000
000000000000
000000000000
000000000000
FE003F800FE0
FE003F800FE0
FE003F800FE0
FE003F800FE0
FE003F800FE0
FE003F800FE0
FE003F800FE0
FE003F800FE0
FE003F800FE0
FE003F800FE0
FE003F800FE0
FE003F800FE0
FE003F800FE0
FE003F800FE0
FE003F800FE0
FE003F800FE0
FE003F800FE0
FE003F800FE0
FE003F800FE0
FE003F800FE0
FE003F800FE0
FE003F800FE0
FE003F800FE0
FE003F800FE0
FFFFFFFFFFE0
FFFFE0FFF800
FFFFE0FFF800
FFFFE0FFF800
FFFFE0FFF800
FFFFE0FFF800
FFFFE0FFF800
ENDCHAR
STARTCHAR 0176
ENCODING 374
SWIDTH 585 0
DWIDTH 39 0
BBX 31 55 4 -1
BITMAP
00038000
00038000
00038000
001FF000
001C7000
001C7000
001C7000
00000000
00000000
00000000
00000000
00000000
FE0000FE
FE0000FE
FE0000FE
FE0000FE
FE0000FE
FE0000FE
FE0000FE
FE0000FE
FE0000FE
FE0000FE
FE0000FE
FE0000FE
FFF83FFE
03F83F80
03F83F80
03F83F80
03F83F80
03F83F80
03FFFF80
000FE000
000FE000
000FE000
000FE000
000FE000
000FE000
000FE000
000FE000
000FE000
000FE000
000FE000
000FE000
000FE000
000FE000
000FE000
000FE000
000FE000
000FE000
000FE000
000FE000
000FE000
000FE000
000FE000
000FE000
ENDCHAR
STARTCHAR 0177
ENCODING 375
SWIDTH 585 0
DWIDTH 39 0
BBX 31 55 4 -13
BITMAP
00038000
00038000
00038000
001FF000
001C7000
001C7000
001C7000
00000000
00000000
00000000
00000000
00000000
FE0000FE
FE0000FE
FE0000FE
FE0000FE
FE0000FE
FE0000FE
FE0000FE
FE0000FE
FE0000FE
FE0000FE
FE0000FE
FE0000FE
FE0000FE
FE0000FE
FE0000FE
FE0000FE
FE0000FE
FE0000FE
FFFFFFFE
03FFFFFE
03FFFFFE
03FFFFFE
03FFFFFE
03FFFFFE
03FFFFFE
000000FE
000000FE
000000FE
000000FE
000000FE
FE0000FE
FE0000FE
FE0000FE
FE0000FE
FE0000FE
FE0000FE
FFFFFFFE
03FFFF80
03FFFF80
03FFFF80
03FFFF80
03FFFF80
03FFFF80
ENDCHAR
STARTCHAR 0178
ENCODING 376
SWIDTH 585 0
DWIDTH 39 0
BBX 31 55 4 -1
BITMAP
07F00FC0
07F00FC0
07F00FC0
07F00FC0
07F00FC0
07F00FC0
07F00FC0
00000000
00000000
00000000
00000000
00000000
FE0000FE
FE0000FE
FE0000FE
FE0000FE
FE0000FE
FE0000FE
FE0000FE
FE0000FE
FE0000FE
FE0000FE
FE0000FE
FE0000FE
FFF83FFE
03F83F80
03F83F80
03F83F80
03F83F80
03F83F80
03FFFF80
000FE000
000FE000
000FE000
000FE000
000FE000
000FE000
000FE000
000FE000
000FE000
000FE000
000FE000
000FE000
000FE000
000FE000
000FE000
000FE000
000FE000
000FE000
000FE000
000FE000
000FE000
000FE000
000FE000
000FE000
ENDCHAR
STARTCHAR 0179
ENCODING 377
SWIDTH 585 0
DWIDTH 39 0
BBX 31 58 4 -1
BITMAP
0000E000
0000E000
0000E000
0007E000
00070000
00070000
003F0000
00380000
00380000
00380000
00000000
00000000
00000000
00000000
00000000
FFFFFF80
FFFFFF80
FFFFFF80
FFFFFF80
FFFFFF80
FFFFFF80
FFFFFFFE
FE0000FE
FE0000FE
FE0000FE
FE0000FE
FE0000FE
FE0000FE
000000FE
000000FE
000000FE
000000FE
000000FE
03FFFFFE
03FFFF80
03FFFF80
03FFFF80
03FFFF80
03FFFF80
FFFFFF80
FE000000
FE000000
FE000000
FE000000
FE000000
FE0000FE
FE0000FE
FE0000FE
FE0000FE
FE0000FE
FE0000FE
FFFFFFFE
03FFFFFE
03FFFFFE
03FFFFFE
03FFFFFE
03FFFFFE
03FFFFFE
ENDCHAR
STARTCHAR 017A
ENCODING 378
SWIDTH 585 0
DWIDTH 39 0
BBX 31 46 4 -1
BITMAP
0000E000
0000E000
0000E000
0007E000
00070000
00070000
003F0000
00380000
00380000
00380000
00000000
00000000
00000000
00000000
00000000
FFFFFFFE
FFFFFFFE
FFFFFFFE
FFFFFFFE
FFFFFFFE
FFFFFFFE
FFFFFFFE
00003F80
00003F80
00003F80
00003F80
00003F80
000FFF80
000FE000
000FE000
000FE000
000FE000
000FE000
03FFE000
03F80000
03F80000
03F80000
03F80000
03F80000
FFFFFFFE
FFFFFFFE
FFFFFFFE
FFFFFFFE
FFFFFFFE
FFFFFFFE
FFFFFFFE
ENDCHAR
STARTCHAR 017B
ENCODING 379
SWIDTH 585 0
DWIDTH 39 0
BBX 31 55 4 -1
BITMAP
000FE000
000FE000
000FE000
000FE000
000FE000
000FE000
000FE000
00000000
00000000
00000000
00000000
00000000
FFFFFF80
FFFFFF80
FFFFFF80
FFFFFF80
FFFFFF80
FFFFFF80
FFFFFFFE
FE0000FE
FE0000FE
FE0000FE
FE0000FE
FE0000FE
FE0000FE
000000FE
000000FE
000000FE
000000FE
000000FE
03FFFFFE
03FFFF80
03FFFF80
03FFFF80
03FFFF80
03FFFF80
FFFFFF80
FE000000
FE000000
FE000000
FE000000
FE000000
FE0000FE
FE0000FE
FE0000FE
FE0000FE
FE0000FE
FE0000FE
FFFFFFFE
03FFFFFE
03FFFFFE
03FFFFFE
03FFFFFE
03FFFFFE
03FFFFFE
ENDCHAR
STARTCHAR 017C
ENCODING 380
SWIDTH 585 0
DWIDTH 39 0
BBX 31 43 4 -1
BITMAP
000FE000
000FE000
000FE000
000FE000
000FE000
000FE000
000FE000
00000000
00000000
00000000
00000000
00000000
FFFFFFFE
FFFFFFFE
FFFFFFFE
FFFFFFFE
FFFFFFFE
FFFFFFFE
FFFFFFFE
00003F80
00003F80
00003F80
00003F80
00003F80
000FFF80
000FE000
000FE000
000FE000
000FE000
000FE000
03FFE000
03F80000
03F80000
03F80000
03F80000
03F80000
FFFFFFFE
FFFFFFFE
FFFFFFFE
FFFFFFFE
FFFFFFFE
FFFFFFFE
FFFFFFFE
ENDCHAR
STARTCHAR 017D
ENCODING 381
SWIDTH 585 0
DWIDTH 39 0
BBX 31 55 4 -1
BITMAP
001C7000
001C7000
001C7000
001FF000
00038000
00038000
00038000
00000000
00000000
00000000
00000000
00000000
FFFFFF80
FFFFFF80
FFFFFF80
FFFFFF80
FFFFFF80
FFFFFF80
FFFFFFFE
FE0000FE
FE0000FE
FE0000FE
FE0000FE
FE0000FE
FE0000FE
000000FE
000000FE
000000FE
000000FE
000000FE
03FFFFFE
03FFFF80
03FFFF80
03FFFF80
03FFFF80
03FFFF80
FFFFFF80
FE000000
FE000000
FE000000
FE000000
FE000000
FE0000FE
FE0000FE
FE0000FE
FE0000FE
FE0000FE
FE0000FE
FFFFFFFE
03FFFFFE
03FFFFFE
03FFFFFE
03FFFFFE
03FFFFFE
03FFFFFE
ENDCHAR
STARTCHAR 017E
ENCODING 382
SWIDTH 585 0
DWIDTH 39 0
BBX 31 43 4 -1
BITMAP
001C7000
001C7000
001C7000
001FF000
00038000
00038000
00038000
00000000
00000000
00000000
00000000
00000000
FFFFFFFE
FFFFFFFE
FFFFFFFE
FFFFFFFE
FFFFFFFE
FFFFFFFE
FFFFFFFE
00003F80
00003F80
00003F80
00003F80
00003F80
000FFF80
000FE000
000FE000
000FE000
000FE000
000FE000
03FFE000
03F80000
03F80000
03F80000
03F80000
03F80000
FFFFFFFE
FFFFFFFE
FFFFFFFE
FFFFFFFE
FFFFFFFE
FFFFFFFE
FFFFFFFE
ENDCHAR
STARTCHAR 0192
ENCODING 402
SWIDTH 585 0
DWIDTH 39 0
BBX 37 49 -2 -7
BITMAP
000FFFFE00
000FFFFE00
000FFFFE00
000FFFFE00
000FFFFE00
000FFFFE00
03FFFFFFF8
03F80003F8
03F80003F8
03F80003F8
03F80003F8
03F80003F8
03F80003F8
03F8000000
03F8000000
03F8000000
03F8000000
03F8000000
03FFFF8000
03FFFF8000
03FFFF8000
03FFFF8000
03FFFF8000
03FFFF8000
03FFFF8000
03F8000000
03F8000000
03F8000000
03F8000000
03F8000000
03F8000000
03F8000000
03F8000000
03F8000000
03F8000000
03F8000000
03F8000000
03F8000000
03F8000000
03F8000000
03F8000000
03F8000000
FFF8000000
FFF8000000
FFF8000000
FFF8000000
FFF8000000
FFF8000000
FFF8000000
ENDCHAR
STARTCHAR 01FC
ENCODING 508
SWIDTH 945 0
DWIDTH 63 0
BBX 55 57 4 -1
BITMAP
00000003800000
00000003800000
00000003800000
0000003F800000
0000003C000000
0000003C000000
000001FC000000
000001E0000000
000001E0000000
000001E0000000
00000000000000
00000000000000
00000000000000
00000000000000
000FE003FFFF80
000FE003FFFF80
000FE003FFFF80
000FE003FFFF80
000FE003FFFF80
000FE003FFFF80
03FFFFFFFFFFFE
03F83FFE0000FE
03F83FFE0000FE
03F83FFE0000FE
03F83FFE0000FE
03F83FFE0000FE
FFF83FFE0000FE
FE0000FE000000
FE0000FE000000
FE0000FE000000
FE0000FE000000
FE0000FE000000
FE0000FFFFE000
FE0000FFFFE000
FE0000FFFFE000
FE0000FFFFE000
FE0000FFFFE000
FE0000FFFFE000
FFFFFFFFFFE000
FFFFFFFE000000
FFFFFFFE000000
FFFFFFFE000000
FFFFFFFE000000
FFFFFFFE000000
FFFFFFFE0000FE
FE0000FE0000FE
FE0000FE0000FE
FE0000FE0000FE
FE0000FE0000FE
FE0000FE0000FE
FE0000FFFFFFFE
FE0000FFFFFF80
FE0000FFFFFF80
FE0000FFFFFF80
FE0000FFFFFF80
FE0000FFFFFF80
FE0000FFFFFF80
ENDCHAR
STARTCHAR 01FD
ENCODING 509
SWIDTH 1125 0
DWIDTH 75 0
BBX 67 46 4 -1
BITMAP
0000000003C0000000
0000000003C0000000
0000000003C0000000
000000001FC0000000
000000001E00000000
000000001E00000000
00000000FE00000000
00000000E000000000
00000000E000000000
00000000E000000000
000000000000000000
000000000000000000
000000000000000000
000000000000000000
000000000000000000
03FFFF80001FFFF800
03FFFF80001FFFF800
03FFFF80001FFFF800
03FFFF80001FFFF800
03FFFF80001FFFF800
03FFFF80001FFFF800
FFFFFFFE0FFFFFFFE0
FE0000FE0FE00007E0
FE0000FE0FE00007E0
FE0000FE0FE00007E0
FE0000FE0FE00007E0
FE0000FE0FE00007E0
FE0000FE0FFFFE07E0
FE0000FE0FFFFE0000
FE0000FE0FFFFE0000
FE0000FE0FFFFE0000
FE0000FE0FFFFE0000
FE0000FE0FFFFE0000
FE0000FE0FFFFE07E0
FE0000FE0FE00007E0
FE0000FE0FE00007E0
FE0000FE0FE00007E0
FE0000FE0FE00007E0
FE0000FE0FE00007E0
FFFFFFFFFFFFFFFFE0
03FFFF83F81FFFF800
03FFFF83F81FFFF800
03FFFF83F81FFFF800
03FFFF83F81FFFF800
03FFFF83F81FFFF800
03FFFF83F81FFFF800
ENDCHAR
STARTCHAR 01FE
ENCODING 510
SWIDTH 630 0
DWIDTH 42 0
BBX 33 65 4 -3
BITMAP
0000780000
0000780000
0000780000
0003F80000
0003C00000
0003C00000
001FC00000
001E000000
001E000000
001E000000
0000000000
0000000000
0000000000
0000000000
0000000000
0000000000
0000000000
0000001F80
0000003F80
0000007F00
01FFFFFF00
01FFFFFE00
01FFFFFE00
01FFFFFC00
01FFFFFC00
01FFFFF800
7FFFFFFF00
7F0007FF00
7F000FFF00
7F000FFF00
7F001FFF00
7F001FFF00
7F003FFF00
7F003FFF00
7F007F7F00
7F007E7F00
7F00FE7F00
7F01FC7F00
7F01FC7F00
7F03F87F00
7F03F87F00
7F07F07F00
7F07F07F00
7F0FE07F00
7F0FC07F00
7F1FC07F00
7F3F807F00
7F3F807F00
7F7F007F00
7F7F007F00
7FFE007F00
7FFE007F00
7FFC007F00
7FF8007F00
7FF8007F00
7FF0007F00
7FFFFFFF00
0FFFFFC000
0FFFFFC000
1FFFFFC000
1FFFFFC000
3FFFFFC000
3FFFFFC000
7F00000000
FE00000000
ENDCHAR
STARTCHAR 01FF
ENCODING 511
SWIDTH 585 0
DWIDTH 39 0
BBX 36 51 1 -6
BITMAP
00001C0000
00001C0000
00001C0000
0000FC0000
0000E00000
0000E00000
0007E00000
0007000000
0007000000
0007000000
0000000000
00000007F0
0000000FE0
0000001FC0
0000003F80
007FFFFF80
007FFFFF00
007FFFFE00
007FFFFC00
007FFFFC00
007FFFF800
1FFFFFFFC0
1FC007FFC0
1FC00FFFC0
1FC01FDFC0
1FC01F9FC0
1FC03F9FC0
1FC07F1FC0
1FC0FE1FC0
1FC0FE1FC0
1FC1FC1FC0
1FC3F81FC0
1FC3F01FC0
1FC7F01FC0
1FCFE01FC0
1FDFC01FC0
1FDFC01FC0
1FFF801FC0
1FFF001FC0
1FFFFFFFC0
00FFFFF000
01FFFFF000
03FFFFF000
03FFFFF000
07FFFFF000
0FFFFFF000
0FC0000000
1FC0000000
3F80000000
7F00000000
FF00000000
ENDCHAR
STARTCHAR 0218
ENCODING 536
SWIDTH 585 0
DWIDTH 39 0
BBX 31 58 4 -16
BITMAP
03FFFF80
03FFFF80
03FFFF80
03FFFF80
03FFFF80
03FFFF80
FFFFFFFE
FE0000FE
FE0000FE
FE0000FE
FE0000FE
FE0000FE
FE0000FE
FE000000
FE000000
FE000000
FE000000
FE000000
FFFFFF80
03FFFF80
03FFFF80
03FFFF80
03FFFF80
03FFFF80
03FFFFFE
000000FE
000000FE
000000FE
000000FE
000000FE
FE0000FE
FE0000FE
FE0000FE
FE0000FE
FE0000FE
FE0000FE
FFFFFFFE
03FFFF80
03FFFF80
03FFFF80
03FFFF80
03FFFF80
03FFFF80
00000000
00000000
00000000
000FC000
000FC000
000FC000
000FC000
000FC000
000FC000
00003800
00003800
00003800
0001C000
0001C000
0001C000
ENDCHAR
STARTCHAR 0219
ENCODING 537
SWIDTH 585 0
DWIDTH 39 0
BBX 31 46 4 -16
BITMAP
03FFFFFE
03FFFFFE
03FFFFFE
03FFFFFE
03FFFFFE
03FFFFFE
FFFFFFFE
FE000000
FE000000
FE000000
FE000000
FE000000
FFFFFF80
03FFFF80
03FFFF80
03FFFF80
03FFFF80
03FFFF80
03FFFFFE
000000FE
000000FE
000000FE
000000FE
000000FE
FFFFFFFE
FFFFFF80
FFFFFF80
FFFFFF80
FFFFFF80
FFFFFF80
FFFFFF80
00000000
00000000
00000000
000FC000
000FC000
000FC000
000FC000
000FC000
000FC000
00003800
00003800
00003800
0001C000
0001C000
0001C000
ENDCHAR
STARTCHAR 021A
ENCODING 538
SWIDTH 585 0
DWIDTH 39 0
BBX 31 58 4 -16
BITMAP
03FFFF80
03FFFF80
03FFFF80
03FFFF80
03FFFF80
03FFFF80
FFFFFFFE
FE0FE0FE
FE0FE0FE
FE0FE0FE
FE0FE0FE
FE0FE0FE
FE0FE0FE
000FE000
000FE000
000FE000
000FE000
000FE000
000FE000
000FE000
000FE000
000FE000
000FE000
000FE000
000FE000
000FE000
000FE000
000FE000
000FE000
000FE000
000FE000
000FE000
000FE000
000FE000
000FE000
000FE000
000FE000
000FE000
000FE000
000FE000
000FE000
000FE000
000FE000
00000000
00000000
00000000
000FC000
000FC000
000FC000
000FC000
000FC000
000FC000
00003800
00003800
00003800
0001C000
0001C000
0001C000
ENDCHAR
STARTCHAR 021B
ENCODING 539
SWIDTH 675 0
DWIDTH 45 0
BBX 37 58 4 -16
BITMAP
03F8000000
03F8000000
03F8000000
03F8000000
03F8000000
03F8000000
03F8000000
03F8000000
03F8000000
03F8000000
03F8000000
03F8000000
FFFFFFFE00
FFFFFFFE00
FFFFFFFE00
FFFFFFFE00
FFFFFFFE00
FFFFFFFE00
FFFFFFFE00
03F8000000
03F8000000
03F8000000
03F8000000
03F8000000
03F8000000
03F8000000
03F8000000
03F8000000
03F8000000
03F8000000
03F80003F8
03F80003F8
03F80003F8
03F80003F8
03F80003F8
03F80003F8
03FFFFFFF8
000FFFFE00
000FFFFE00
000FFFFE00
000FFFFE00
000FFFFE00
000FFFFE00
0000000000
0000000000
0000000000
00007F0000
00007F0000
00007F0000
00007F0000
00007F0000
00007F0000
000001E000
000001E000
000001E000
00000F0000
00000F0000
00000F0000
ENDCHAR
STARTCHAR 0237
ENCODING 567
SWIDTH 495 0
DWIDTH 33 0
BBX 25 31 4 -1
BITMAP
00003F80
00003F80
00003F80
00003F80
00003F80
00003F80
00003F80
00003F80
00003F80
00003F80
00003F80
00003F80
00003F80
00003F80
00003F80
00003F80
00003F80
00003F80
FE003F80
FE003F80
FE003F80
FE003F80
FE003F80
FE003F80
FFFFFF80
03FFE000
03FFE000
03FFE000
03FFE000
03FFE000
03FFE000
ENDCHAR
STARTCHAR 02C6
ENCODING 710
SWIDTH 300 0
DWIDTH 20 0
BBX 10 7 5 35
BITMAP
1E00
1E00
1E00
FFC0
F3C0
F3C0
F3C0
ENDCHAR
STARTCHAR 02C7
ENCODING 711
SWIDTH 300 0
DWIDTH 20 0
BBX 10 7 5 35
BITMAP
F3C0
F3C0
F3C0
FFC0
1E00
1E00
1E00
ENDCHAR
STARTCHAR 02D8
ENCODING 728
SWIDTH 300 0
DWIDTH 20 0
BBX 16 7 2 36
BITMAP
E00F
E00F
E00F
FFFF
FFFF
FFFF
FFFF
ENDCHAR
STARTCHAR 02D9
ENCODING 729
SWIDTH 300 0
DWIDTH 20 0
BBX 7 7 7 36
BITMAP
FE
FE
FE
FE
FE
FE
FE
ENDCHAR
STARTCHAR 02DA
ENCODING 730
SWIDTH 300 0
DWIDTH 20 0
BBX 7 7 6 36
BITMAP
FE
FE
C6
C6
C6
FE
FE
ENDCHAR
STARTCHAR 02DB
ENCODING 731
SWIDTH 300 0
DWIDTH 20 0
BBX 16 16 2 -13
BITMAP
03C0
03C0
03C0
03C0
03C0
03C0
03C0
1E00
1E00
1E00
F00F
F00F
F00F
1FF8
1FF8
1FF8
ENDCHAR
STARTCHAR 02DC
ENCODING 732
SWIDTH 300 0
DWIDTH 20 0
BBX 16 7 2 35
BITMAP
FFCF
FFCF
FFCF
FFFF
F3FF
F3FF
F3FF
ENDCHAR
STARTCHAR 02DD
ENCODING 733
SWIDTH 300 0
DWIDTH 20 0
BBX 17 10 1 36
BITMAP
E0E000
E0E000
E0E000
FEFC00
1E1C00
1E1C00
1FDF80
03C380
03C380
03C380
ENDCHAR
STARTCHAR 0300
ENCODING 768
SWIDTH 0 0
DWIDTH 0 0
BBX 10 10 4 35
BITMAP
F000
F000
F000
FE00
1E00
1E00
1FC0
03C0
03C0
03C0
ENDCHAR
STARTCHAR 0301
ENCODING 769
SWIDTH 0 0
DWIDTH 0 0
BBX 10 10 5 35
BITMAP
03C0
03C0
03C0
1FC0
1E00
1E00
FE00
F000
F000
F000
ENDCHAR
STARTCHAR 0302
ENCODING 770
SWIDTH 0 0
DWIDTH 0 0
BBX 10 7 5 35
BITMAP
1E00
1E00
1E00
FFC0
F3C0
F3C0
F3C0
ENDCHAR
STARTCHAR 0303
ENCODING 771
SWIDTH 0 0
DWIDTH 0 0
BBX 16 7 2 35
BITMAP
FFCF
FFCF
FFCF
FFFF
F3FF
F3FF
F3FF
ENDCHAR
STARTCHAR 0304
ENCODING 772
SWIDTH 0 0
DWIDTH 0 0
BBX 18 5 1 35
BITMAP
FFFFC0
FFFFC0
FFFFC0
FFFFC0
FFFFC0
ENDCHAR
STARTCHAR 0306
ENCODING 774
SWIDTH 0 0
DWIDTH 0 0
BBX 16 7 2 35
BITMAP
F007
F007
F007
FFFF
FFFF
FFFF
FFFF
ENDCHAR
STARTCHAR 0307
ENCODING 775
SWIDTH 0 0
DWIDTH 0 0
BBX 6 7 7 35
BITMAP
FC
FC
FC
FC
FC
FC
FC
ENDCHAR
STARTCHAR 0308
ENCODING 776
SWIDTH 0 0
DWIDTH 0 0
BBX 20 7 0 35
BITMAP
FC03F0
FC03F0
FC03F0
FC03F0
FC03F0
FC03F0
FC03F0
ENDCHAR
STARTCHAR 030A
ENCODING 778
SWIDTH 0 0
DWIDTH 0 0
BBX 6 7 7 35
BITMAP
FC
FC
FC
CC
CC
FC
FC
ENDCHAR
STARTCHAR 030B
ENCODING 779
SWIDTH 0 0
DWIDTH 0 0
BBX 18 10 1 35
BITMAP
F0F000
F0F000
F0F000
FEFE00
1E1E00
1E1E00
1FDFC0
03C3C0
03C3C0
03C3C0
ENDCHAR
STARTCHAR 030C
ENCODING 780
SWIDTH 0 0
DWIDTH 0 0
BBX 10 7 5 35
BITMAP
F3C0
F3C0
F3C0
FFC0
1E00
1E00
1E00
ENDCHAR
STARTCHAR 0312
ENCODING 786
SWIDTH 0 0
DWIDTH 0 0
BBX 10 13 5 35
BITMAP
1E00
1E00
1E00
FE00
F000
F000
FFC0
1FC0
1FC0
1FC0
1FC0
1FC0
1FC0
ENDCHAR
STARTCHAR 0326
ENCODING 806
SWIDTH 0 0
DWIDTH 0 0
BBX 10 12 6 -16
BITMAP
FE00
FE00
FE00
FE00
FE00
FE00
03C0
03C0
03C0
1E00
1E00
1E00
ENDCHAR
STARTCHAR 0327
ENCODING 807
SWIDTH 0 0
DWIDTH 0 0
BBX 16 15 2 -13
BITMAP
03C0
03C0
03C0
03C0
03C0
03C0
0078
0078
0078
F00F
F00F
F00F
1FF8
1FF8
1FF8
ENDCHAR
STARTCHAR 0328
ENCODING 808
SWIDTH 0 0
DWIDTH 0 0
BBX 16 16 2 -13
BITMAP
03C0
03C0
03C0
03C0
03C0
03C0
03C0
1E00
1E00
1E00
F00F
F00F
F00F
1FF8
1FF8
1FF8
ENDCHAR
STARTCHAR 0386
ENCODING 902
SWIDTH 585 0
DWIDTH 39 0
BBX 31 57 4 -1
BITMAP
00001E00
00003E00
00007E00
0000FE00
0001FC00
0003F800
0003F000
0003E000
0003C000
00038000
00000000
00000000
00000000
00000000
000FE000
000FE000
000FE000
000FE000
000FE000
000FE000
03FFFF80
03F83F80
03F83F80
03F83F80
03F83F80
03F83F80
FFF83FFE
FE0000FE
FE0000FE
FE0000FE
FE0000FE
FE0000FE
FE0000FE
FE0000FE
FE0000FE
FE0000FE
FE0000FE
FE0000FE
FFFFFFFE
FFFFFFFE
FFFFFFFE
FFFFFFFE
FFFFFFFE
FFFFFFFE
FFFFFFFE
FE0000FE
FE0000FE
FE0000FE
FE0000FE
FE0000FE
FE0000FE
FE0000FE
FE0000FE
FE0000FE
FE0000FE
FE0000FE
FE0000FE
ENDCHAR
STARTCHAR 0388
ENCODING 904
SWIDTH 585 0
DWIDTH 39 0
BBX 31 57 4 -1
BITMAP
00001E00
00003E00
00007E00
0000FE00
0001FC00
0003F800
0003F000
0003E000
0003C000
00038000
00000000
00000000
00000000
00000000
03FFFF80
03FFFF80
03FFFF80
03FFFF80
03FFFF80
03FFFF80
FFFFFFFE
FE0000FE
FE0000FE
FE0000FE
FE0000FE
FE0000FE
FE0000FE
FE000000
FE000000
FE000000
FE000000
FE000000
FFFFE000
FFFFE000
FFFFE000
FFFFE000
FFFFE000
FFFFE000
FFFFE000
FE000000
FE000000
FE000000
FE000000
FE000000
FE0000FE
FE0000FE
FE0000FE
FE0000FE
FE0000FE
FE0000FE
FFFFFFFE
03FFFF80
03FFFF80
03FFFF80
03FFFF80
03FFFF80
03FFFF80
ENDCHAR
STARTCHAR 0389
ENCODING 905
SWIDTH 585 0
DWIDTH 39 0
BBX 31 54 4 -1
BITMAP
00038000
00038000
00038000
00038000
00038000
00038000
00038000
00000000
00000000
00000000
00000000
FE0000FE
FE0000FE
FE0000FE
FE0000FE
FE0000FE
FE0000FE
FE0000FE
FE0000FE
FE0000FE
FE0000FE
FE0000FE
FE0000FE
FE0FE0FE
FE0FE0FE
FE0FE0FE
FE0FE0FE
FE0FE0FE
FE0FE0FE
FFFFFFFE
FFFFFFFE
FFFFFFFE
FFFFFFFE
FFFFFFFE
FFFFFFFE
FFFFFFFE
FE0000FE
FE0000FE
FE0000FE
FE0000FE
FE0000FE
FE0000FE
FE0000FE
FE0000FE
FE0000FE
FE0000FE
FE0000FE
FE0000FE
FE0000FE
FE0000FE
FE0000FE
FE0000FE
FE0000FE
FE0000FE
ENDCHAR
STARTCHAR 038A
ENCODING 906
SWIDTH 405 0
DWIDTH 27 0
BBX 19 54 4 -1
BITMAP
00E000
00E000
00E000
00E000
00E000
00E000
00E000
000000
000000
000000
000000
FFFFE0
FFFFE0
FFFFE0
FFFFE0
FFFFE0
FFFFE0
FFFFE0
03F800
03F800
03F800
03F800
03F800
03F800
03F800
03F800
03F800
03F800
03F800
03F800
03F800
03F800
03F800
03F800
03F800
03F800
03F800
03F800
03F800
03F800
03F800
03F800
03F800
03F800
03F800
03F800
03F800
FFFFE0
FFFFE0
FFFFE0
FFFFE0
FFFFE0
FFFFE0
FFFFE0
ENDCHAR
STARTCHAR 038C
ENCODING 908
SWIDTH 585 0
DWIDTH 39 0
BBX 31 54 4 -1
BITMAP
00038000
00038000
00038000
00038000
00038000
00038000
00038000
00000000
00000000
00000000
00000000
03FFFF80
03FFFF80
03FFFF80
03FFFF80
03FFFF80
03FFFF80
FFFFFFFE
FE0000FE
FE0000FE
FE0000FE
FE0000FE
FE0000FE
FE0000FE
FE0000FE
FE0000FE
FE0000FE
FE0000FE
FE0000FE
FE0000FE
FE0000FE
FE0000FE
FE0000FE
FE0000FE
FE0000FE
FE0000FE
FE0000FE
FE0000FE
FE0000FE
FE0000FE
FE0000FE
FE0000FE
FE0000FE
FE0000FE
FE0000FE
FE0000FE
FE0000FE
FFFFFFFE
03FFFF80
03FFFF80
03FFFF80
03FFFF80
03FFFF80
03FFFF80
ENDCHAR
STARTCHAR 038E
ENCODING 910
SWIDTH 585 0
DWIDTH 39 0
BBX 31 54 4 -1
BITMAP
00038000
00038000
00038000
00038000
00038000
00038000
00038000
00000000
00000000
00000000
00000000
FE0000FE
FE0000FE
FE0000FE
FE0000FE
FE0000FE
FE0000FE
FE0000FE
FE0000FE
FE0000FE
FE0000FE
FE0000FE
FE0000FE
FFF83FFE
03F83F80
03F83F80
03F83F80
03F83F80
03F83F80
03FFFF80
000FE000
000FE000
000FE000
000FE000
000FE000
000FE000
000FE000
000FE000
000FE000
000FE000
000FE000
000FE000
000FE000
000FE000
000FE000
000FE000
000FE000
000FE000
000FE000
000FE000
000FE000
000FE000
000FE000
000FE000
ENDCHAR
STARTCHAR 038F
ENCODING 911
SWIDTH 585 0
DWIDTH 39 0
BBX 39 57 0 -1
BITMAP
000001E000
000003E000
000007E000
00000FE000
00001FC000
00003F8000
00003F0000
00003E0000
00003C0000
0000380000
0000000000
0000000000
0000000000
0000000000
003FFFF800
003FFFF800
003FFFF800
003FFFF800
003FFFF800
003FFFF800
0FFFFFFFE0
0FE0000FE0
0FE0000FE0
0FE0000FE0
0FE0000FE0
0FE0000FE0
0FE0000FE0
0FE0000FE0
0FE0000FE0
0FE0000FE0
0FE0000FE0
0FE0000FE0
0FE0000FE0
0FE0000FE0
0FE0000FE0
0FE0000FE0
0FE0000FE0
0FE0000FE0
0FE0000FE0
0FE0000FE0
0FE0000FE0
0FE0000FE0
0FE0000FE0
0FE0000FE0
0FE0000FE0
0FE0000FE0
0FE0000FE0
0FE0000FE0
0FE0000FE0
0FE0000FE0
FFE0000FFE
FFE0000FFE
FFE0000FFE
FFE0000FFE
FFE0000FFE
FFE0000FFE
FFE0000FFE
ENDCHAR
STARTCHAR 0391
ENCODING 913
SWIDTH 585 0
DWIDTH 39 0
BBX 31 43 4 -1
BITMAP
000FE000
000FE000
000FE000
000FE000
000FE000
000FE000
03FFFF80
03F83F80
03F83F80
03F83F80
03F83F80
03F83F80
FFF83FFE
FE0000FE
FE0000FE
FE0000FE
FE0000FE
FE0000FE
FE0000FE
FE0000FE
FE0000FE
FE0000FE
FE0000FE
FE0000FE
FFFFFFFE
FFFFFFFE
FFFFFFFE
FFFFFFFE
FFFFFFFE
FFFFFFFE
FFFFFFFE
FE0000FE
FE0000FE
FE0000FE
FE0000FE
FE0000FE
FE0000FE
FE0000FE
FE0000FE
FE0000FE
FE0000FE
FE0000FE
FE0000FE
ENDCHAR
STARTCHAR 0392
ENCODING 914
SWIDTH 585 0
DWIDTH 39 0
BBX 31 43 4 -1
BITMAP
03FFFF80
03FFFF80
03FFFF80
03FFFF80
03FFFF80
03FFFF80
FFFFFFFE
FE0000FE
FE0000FE
FE0000FE
FE0000FE
FE0000FE
FE0000FE
FE0000FE
FE0000FE
FE0000FE
FE0000FE
FE0000FE
FE0FFFFE
FE0FFF80
FE0FFF80
FE0FFF80
FE0FFF80
FE0FFF80
FE0FFFFE
FE0000FE
FE0000FE
FE0000FE
FE0000FE
FE0000FE
FE0000FE
FE0000FE
FE0000FE
FE0000FE
FE0000FE
FE0000FE
FFFFFFFE
03FFFF80
03FFFF80
03FFFF80
03FFFF80
03FFFF80
03FFFF80
ENDCHAR
STARTCHAR 0393
ENCODING 915
SWIDTH 495 0
DWIDTH 33 0
BBX 25 43 4 -1
BITMAP
FFFFFF80
FFFFFF80
FFFFFF80
FFFFFF80
FFFFFF80
FFFFFF80
FFFFFF80
FE000000
FE000000
FE000000
FE000000
FE000000
FE000000
FE000000
FE000000
FE000000
FE000000
FE000000
FE000000
FE000000
FE000000
FE000000
FE000000
FE000000
FE000000
FE000000
FE000000
FE000000
FE000000
FE000000
FE000000
FE000000
FE000000
FE000000
FE000000
FE000000
FE000000
FE000000
FE000000
FE000000
FE000000
FE000000
FE000000
ENDCHAR
STARTCHAR 0395
ENCODING 917
SWIDTH 585 0
DWIDTH 39 0
BBX 31 43 4 -1
BITMAP
03FFFF80
03FFFF80
03FFFF80
03FFFF80
03FFFF80
03FFFF80
FFFFFFFE
FE0000FE
FE0000FE
FE0000FE
FE0000FE
FE0000FE
FE0000FE
FE000000
FE000000
FE000000
FE000000
FE000000
FFFFE000
FFFFE000
FFFFE000
FFFFE000
FFFFE000
FFFFE000
FFFFE000
FE000000
FE000000
FE000000
FE000000
FE000000
FE0000FE
FE0000FE
FE0000FE
FE0000FE
FE0000FE
FE0000FE
FFFFFFFE
03FFFF80
03FFFF80
03FFFF80
03FFFF80
03FFFF80
03FFFF80
ENDCHAR
STARTCHAR 0396
ENCODING 918
SWIDTH 585 0
DWIDTH 39 0
BBX 31 43 4 -1
BITMAP
FFFFFF80
FFFFFF80
FFFFFF80
FFFFFF80
FFFFFF80
FFFFFF80
FFFFFFFE
FE0000FE
FE0000FE
FE0000FE
FE0000FE
FE0000FE
FE0000FE
000000FE
000000FE
000000FE
000000FE
000000FE
03FFFFFE
03FFFF80
03FFFF80
03FFFF80
03FFFF80
03FFFF80
FFFFFF80
FE000000
FE000000
FE000000
FE000000
FE000000
FE0000FE
FE0000FE
FE0000FE
FE0000FE
FE0000FE
FE0000FE
FFFFFFFE
03FFFFFE
03FFFFFE
03FFFFFE
03FFFFFE
03FFFFFE
03FFFFFE
ENDCHAR
STARTCHAR 0397
ENCODING 919
SWIDTH 585 0
DWIDTH 39 0
BBX 31 43 4 -1
BITMAP
FE0000FE
FE0000FE
FE0000FE
FE0000FE
FE0000FE
FE0000FE
FE0000FE
FE0000FE
FE0000FE
FE0000FE
FE0000FE
FE0000FE
FE0FE0FE
FE0FE0FE
FE0FE0FE
FE0FE0FE
FE0FE0FE
FE0FE0FE
FFFFFFFE
FFFFFFFE
FFFFFFFE
FFFFFFFE
FFFFFFFE
FFFFFFFE
FFFFFFFE
FE0000FE
FE0000FE
FE0000FE
FE0000FE
FE0000FE
FE0000FE
FE0000FE
FE0000FE
FE0000FE
FE0000FE
FE0000FE
FE0000FE
FE0000FE
FE0000FE
FE0000FE
FE0000FE
FE0000FE
FE0000FE
ENDCHAR
STARTCHAR 0398
ENCODING 920
SWIDTH 585 0
DWIDTH 39 0
BBX 31 43 4 -1
BITMAP
03FFFF80
03FFFF80
03FFFF80
03FFFF80
03FFFF80
03FFFF80
FFFFFFFE
FE0000FE
FE0000FE
FE0000FE
FE0000FE
FE0000FE
FE0000FE
FE0000FE
FE0000FE
FE0000FE
FE0000FE
FE0000FE
FE0000FE
FE0000FE
FE1FF0FE
FE1FF0FE
FE1FF0FE
FE1FF0FE
FE0000FE
FE0000FE
FE0000FE
FE0000FE
FE0000FE
FE0000FE
FE0000FE
FE0000FE
FE0000FE
FE0000FE
FE0000FE
FE0000FE
FFFFFFFE
03FFFF80
03FFFF80
03FFFF80
03FFFF80
03FFFF80
03FFFF80
ENDCHAR
STARTCHAR 0399
ENCODING 921
SWIDTH 405 0
DWIDTH 27 0
BBX 19 43 4 -1
BITMAP
FFFFE0
FFFFE0
FFFFE0
FFFFE0
FFFFE0
FFFFE0
FFFFE0
03F800
03F800
03F800
03F800
03F800
03F800
03F800
03F800
03F800
03F800
03F800
03F800
03F800
03F800
03F800
03F800
03F800
03F800
03F800
03F800
03F800
03F800
03F800
03F800
03F800
03F800
03F800
03F800
03F800
FFFFE0
FFFFE0
FFFFE0
FFFFE0
FFFFE0
FFFFE0
FFFFE0
ENDCHAR
STARTCHAR 039A
ENCODING 922
SWIDTH 585 0
DWIDTH 39 0
BBX 31 43 4 -1
BITMAP
03F800FE
03F800FE
03F800FE
03F800FE
03F800FE
03F800FE
FFF83FFE
FE003F80
FE003F80
FE003F80
FE003F80
FE003F80
FE0FFF80
FE0FE000
FE0FE000
FE0FE000
FE0FE000
FE0FE000
FFFFE000
FFF80000
FFF80000
FFF80000
FFF80000
FFF80000
FFFFE000
FE0FE000
FE0FE000
FE0FE000
FE0FE000
FE0FE000
FE0FFF80
FE003F80
FE003F80
FE003F80
FE003F80
FE003F80
FE003FFE
FE0000FE
FE0000FE
FE0000FE
FE0000FE
FE0000FE
FE0000FE
ENDCHAR
STARTCHAR 039B
ENCODING 923
SWIDTH 585 0
DWIDTH 39 0
BBX 31 43 4 -1
BITMAP
000FE000
000FE000
000FE000
000FE000
000FE000
000FE000
03FFFF80
03F83F80
03F83F80
03F83F80
03F83F80
03F83F80
03F83F80
03F83F80
03F83F80
03F83F80
03F83F80
03F83F80
FFF83FFE
FE0000FE
FE0000FE
FE0000FE
FE0000FE
FE0000FE
FE0000FE
FE0000FE
FE0000FE
FE0000FE
FE0000FE
FE0000FE
FE0000FE
FE0000FE
FE0000FE
FE0000FE
FE0000FE
FE0000FE
FE0000FE
FE0000FE
FE0000FE
FE0000FE
FE0000FE
FE0000FE
FE0000FE
ENDCHAR
STARTCHAR 039C
ENCODING 924
SWIDTH 765 0
DWIDTH 51 0
BBX 43 43 4 -1
BITMAP
03F80003F800
03F80003F800
03F80003F800
03F80003F800
03F80003F800
03F80003F800
FFFFE0FFFFE0
FE0FE0FE0FE0
FE0FE0FE0FE0
FE0FE0FE0FE0
FE0FE0FE0FE0
FE0FE0FE0FE0
FE0FE0FE0FE0
FE0FE0FE0FE0
FE0FE0FE0FE0
FE0FE0FE0FE0
FE0FE0FE0FE0
FE0FE0FE0FE0
FE0FFFFE0FE0
FE003F800FE0
FE003F800FE0
FE003F800FE0
FE003F800FE0
FE003F800FE0
FE003F800FE0
FE003F800FE0
FE003F800FE0
FE003F800FE0
FE003F800FE0
FE003F800FE0
FE003F800FE0
FE003F800FE0
FE003F800FE0
FE003F800FE0
FE003F800FE0
FE003F800FE0
FE003F800FE0
FE0000000FE0
FE0000000FE0
FE0000000FE0
FE0000000FE0
FE0000000FE0
FE0000000FE0
ENDCHAR
STARTCHAR 039D
ENCODING 925
SWIDTH 585 0
DWIDTH 39 0
BBX 31 43 4 -1
BITMAP
FE0000FE
FE0000FE
FE0000FE
FE0000FE
FE0000FE
FE0000FE
FFF800FE
FFF800FE
FFF800FE
FFF800FE
FFF800FE
FFF800FE
FFFFE0FE
FE0FE0FE
FE0FE0FE
FE0FE0FE
FE0FE0FE
FE0FE0FE
FE0FE0FE
FE0FE0FE
FE0FE0FE
FE0FE0FE
FE0FE0FE
FE0FE0FE
FE0FE0FE
FE0FE0FE
FE0FE0FE
FE0FE0FE
FE0FE0FE
FE0FE0FE
FE0FFFFE
FE003FFE
FE003FFE
FE003FFE
FE003FFE
FE003FFE
FE003FFE
FE0000FE
FE0000FE
FE0000FE
FE0000FE
FE0000FE
FE0000FE
ENDCHAR
STARTCHAR 039E
ENCODING 926
SWIDTH 405 0
DWIDTH 27 0
BBX 19 43 4 -1
BITMAP
FFFFE0
FFFFE0
FFFFE0
FFFFE0
FFFFE0
FFFFE0
FFFFE0
000000
000000
000000
000000
000000
000000
000000
000000
000000
000000
000000
FFFFE0
FFFFE0
FFFFE0
FFFFE0
FFFFE0
FFFFE0
FFFFE0
000000
000000
000000
000000
000000
000000
000000
000000
000000
000000
000000
FFFFE0
FFFFE0
FFFFE0
FFFFE0
FFFFE0
FFFFE0
FFFFE0
ENDCHAR
STARTCHAR 039F
ENCODING 927
SWIDTH 585 0
DWIDTH 39 0
BBX 31 43 4 -1
BITMAP
03FFFF80
03FFFF80
03FFFF80
03FFFF80
03FFFF80
03FFFF80
FFFFFFFE
FE0000FE
FE0000FE
FE0000FE
FE0000FE
FE0000FE
FE0000FE
FE0000FE
FE0000FE
FE0000FE
FE0000FE
FE0000FE
FE0000FE
FE0000FE
FE0000FE
FE0000FE
FE0000FE
FE0000FE
FE0000FE
FE0000FE
FE0000FE
FE0000FE
FE0000FE
FE0000FE
FE0000FE
FE0000FE
FE0000FE
FE0000FE
FE0000FE
FE0000FE
FFFFFFFE
03FFFF80
03FFFF80
03FFFF80
03FFFF80
03FFFF80
03FFFF80
ENDCHAR
STARTCHAR 03A0
ENCODING 928
SWIDTH 585 0
DWIDTH 39 0
BBX 31 43 4 -1
BITMAP
FFFFFFFE
FFFFFFFE
FFFFFFFE
FFFFFFFE
FFFFFFFE
FFFFFFFE
FFFFFFFE
FE0000FE
FE0000FE
FE0000FE
FE0000FE
FE0000FE
FE0000FE
FE0000FE
FE0000FE
FE0000FE
FE0000FE
FE0000FE
FE0000FE
FE0000FE
FE0000FE
FE0000FE
FE0000FE
FE0000FE
FE0000FE
FE0000FE
FE0000FE
FE0000FE
FE0000FE
FE0000FE
FE0000FE
FE0000FE
FE0000FE
FE0000FE
FE0000FE
FE0000FE
FE0000FE
FE0000FE
FE0000FE
FE0000FE
FE0000FE
FE0000FE
FE0000FE
ENDCHAR
STARTCHAR 03A1
ENCODING 929
SWIDTH 585 0
DWIDTH 39 0
BBX 31 43 4 -1
BITMAP
03FFFF80
03FFFF80
03FFFF80
03FFFF80
03FFFF80
03FFFF80
FFFFFFFE
FE0000FE
FE0000FE
FE0000FE
FE0000FE
FE0000FE
FE0000FE
FE0000FE
FE0000FE
FE0000FE
FE0000FE
FE0000FE
FE0000FE
FE0000FE
FE0000FE
FE0000FE
FE0000FE
FE0000FE
FFFFFFFE
FFFFFF80
FFFFFF80
FFFFFF80
FFFFFF80
FFFFFF80
FFFFFF80
FE000000
FE000000
FE000000
FE000000
FE000000
FE000000
FE000000
FE000000
FE000000
FE000000
FE000000
FE000000
ENDCHAR
STARTCHAR 03A3
ENCODING 931
SWIDTH 765 0
DWIDTH 51 0
BBX 43 43 4 -1
BITMAP
03FFFFFFFFE0
03FFFFFFFFE0
03FFFFFFFFE0
03FFFFFFFFE0
03FFFFFFFFE0
03FFFFFFFFE0
FFFFFFFFFFE0
FE0000000000
FE0000000000
FE0000000000
FE0000000000
FE0000000000
FFFFE0000000
03FFE0000000
03FFE0000000
03FFE0000000
03FFE0000000
03FFE0000000
03FFFFFFF800
00003FFFF800
00003FFFF800
00003FFFF800
00003FFFF800
00003FFFF800
03FFFFFFF800
03FFE0000000
03FFE0000000
03FFE0000000
03FFE0000000
03FFE0000000
FFFFE0000000
FE0000000000
FE0000000000
FE0000000000
FE0000000000
FE0000000000
FFFFFFFFFFE0
03FFFFFFFFE0
03FFFFFFFFE0
03FFFFFFFFE0
03FFFFFFFFE0
03FFFFFFFFE0
03FFFFFFFFE0
ENDCHAR
STARTCHAR 03A4
ENCODING 932
SWIDTH 585 0
DWIDTH 39 0
BBX 31 43 4 -1
BITMAP
03FFFF80
03FFFF80
03FFFF80
03FFFF80
03FFFF80
03FFFF80
FFFFFFFE
FE0FE0FE
FE0FE0FE
FE0FE0FE
FE0FE0FE
FE0FE0FE
FE0FE0FE
000FE000
000FE000
000FE000
000FE000
000FE000
000FE000
000FE000
000FE000
000FE000
000FE000
000FE000
000FE000
000FE000
000FE000
000FE000
000FE000
000FE000
000FE000
000FE000
000FE000
000FE000
000FE000
000FE000
000FE000
000FE000
000FE000
000FE000
000FE000
000FE000
000FE000
ENDCHAR
STARTCHAR 03A5
ENCODING 933
SWIDTH 585 0
DWIDTH 39 0
BBX 31 43 4 -1
BITMAP
FE0000FE
FE0000FE
FE0000FE
FE0000FE
FE0000FE
FE0000FE
FE0000FE
FE0000FE
FE0000FE
FE0000FE
FE0000FE
FE0000FE
FFF83FFE
03F83F80
03F83F80
03F83F80
03F83F80
03F83F80
03FFFF80
000FE000
000FE000
000FE000
000FE000
000FE000
000FE000
000FE000
000FE000
000FE000
000FE000
000FE000
000FE000
000FE000
000FE000
000FE000
000FE000
000FE000
000FE000
000FE000
000FE000
000FE000
000FE000
000FE000
000FE000
ENDCHAR
STARTCHAR 03A6
ENCODING 934
SWIDTH 585 0
DWIDTH 39 0
BBX 31 43 4 -1
BITMAP
000FE000
000FE000
000FE000
000FE000
000FE000
000FE000
000FE000
03F83F80
03F83F80
03F83F80
03F83F80
03F83F80
03F83F80
FE0FE0FE
FE0FE0FE
FE0FE0FE
FE0FE0FE
FE0FE0FE
FE0FE0FE
FE0FE0FE
FE0FE0FE
FE0FE0FE
FE0FE0FE
FE0FE0FE
FE0FE0FE
FE0FE0FE
FE0FE0FE
FE0FE0FE
FE0FE0FE
FE0FE0FE
FE0FE0FE
03F83F80
03F83F80
03F83F80
03F83F80
03F83F80
03F83F80
000FE000
000FE000
000FE000
000FE000
000FE000
000FE000
ENDCHAR
STARTCHAR 03A7
ENCODING 935
SWIDTH 585 0
DWIDTH 39 0
BBX 31 43 4 -1
BITMAP
FE0000FE
FE0000FE
FE0000FE
FE0000FE
FE0000FE
FE0000FE
FFF83FFE
03F83F80
03F83F80
03F83F80
03F83F80
03F83F80
03F83F80
03F83F80
03F83F80
03F83F80
03F83F80
03F83F80
03FFFF80
000FE000
000FE000
000FE000
000FE000
000FE000
03FFFF80
03F83F80
03F83F80
03F83F80
03F83F80
03F83F80
03F83F80
03F83F80
03F83F80
03F83F80
03F83F80
03F83F80
FFF83FFE
FE0000FE
FE0000FE
FE0000FE
FE0000FE
FE0000FE
FE0000FE
ENDCHAR
STARTCHAR 03A8
ENCODING 936
SWIDTH 585 0
DWIDTH 39 0
BBX 31 43 4 -1
BITMAP
FE0FE0FE
FE0FE0FE
FE0FE0FE
FE0FE0FE
FE0FE0FE
FE0FE0FE
FE0FE0FE
FE0FE0FE
FE0FE0FE
FE0FE0FE
FE0FE0FE
FE0FE0FE
FE0FE0FE
FE0FE0FE
FE0FE0FE
FE0FE0FE
FE0FE0FE
FE0FE0FE
FE0FE0FE
FE0FE0FE
FE0FE0FE
FE0FE0FE
03FFFF80
03FFFF80
03FFFF80
03FFFF80
03FFFF80
03FFFF80
000FE000
000FE000
000FE000
000FE000
000FE000
000FE000
000FE000
000FE000
000FE000
000FE000
000FE000
000FE000
000FE000
000FE000
000FE000
ENDCHAR
STARTCHAR 03AA
ENCODING 938
SWIDTH 405 0
DWIDTH 27 0
BBX 21 55 3 -1
BITMAP
FE03F8
FE03F8
FE03F8
FE03F8
FE03F8
FE03F8
FE03F8
000000
000000
000000
000000
000000
7FFFF0
7FFFF0
7FFFF0
7FFFF0
7FFFF0
7FFFF0
7FFFF0
01FC00
01FC00
01FC00
01FC00
01FC00
01FC00
01FC00
01FC00
01FC00
01FC00
01FC00
01FC00
01FC00
01FC00
01FC00
01FC00
01FC00
01FC00
01FC00
01FC00
01FC00
01FC00
01FC00
01FC00
01FC00
01FC00
01FC00
01FC00
01FC00
7FFFF0
7FFFF0
7FFFF0
7FFFF0
7FFFF0
7FFFF0
7FFFF0
ENDCHAR
STARTCHAR 03AB
ENCODING 939
SWIDTH 585 0
DWIDTH 39 0
BBX 31 54 4 -1
BITMAP
01E00F00
01E00F00
01E00F00
01E00F00
01E00F00
01E00F00
01E00F00
00000000
00000000
00000000
00000000
FE0000FE
FE0000FE
FE0000FE
FE0000FE
FE0000FE
FE0000FE
FE0000FE
FE0000FE
FE0000FE
FE0000FE
FE0000FE
FE0000FE
FFF83FFE
03F83F80
03F83F80
03F83F80
03F83F80
03F83F80
03FFFF80
000FE000
000FE000
000FE000
000FE000
000FE000
000FE000
000FE000
000FE000
000FE000
000FE000
000FE000
000FE000
000FE000
000FE000
000FE000
000FE000
000FE000
000FE000
000FE000
000FE000
000FE000
000FE000
000FE000
000FE000
ENDCHAR
STARTCHAR 03AC
ENCODING 940
SWIDTH 585 0
DWIDTH 39 0
BBX 31 47 4 -5
BITMAP
00038000
00038000
00038000
00038000
00038000
00038000
00038000
00000000
00000000
00000000
00000000
00000000
03FFFF80
03FFFF80
03FFFF80
03FFFF80
03FFFF80
03FFFF80
FFFFFFFE
FE0000FE
FE0000FE
FE0000FE
FE0000FE
FE0000FE
FE0000FE
FE0000FE
FE0000FE
FE0000FE
FE0000FE
FE0000FE
FE0000FE
FE0000FE
FE0000FE
FE0000FE
FE0000FE
FE0000FE
FFFFFFFE
03FFFFFE
03FFFFFE
03FFFFFE
03FFFFFE
03FFFFFE
03FFFFFE
000000FE
000000FE
000000FE
000000FE
ENDCHAR
STARTCHAR 03AD
ENCODING 941
SWIDTH 585 0
DWIDTH 39 0
BBX 31 43 4 -1
BITMAP
00038000
00038000
00038000
00038000
00038000
00038000
00038000
00000000
00000000
00000000
00000000
00000000
03FFFF80
03FFFF80
03FFFF80
03FFFF80
03FFFF80
03FFFF80
FFFFFFFE
FE0000FE
FE0000FE
FE0000FE
FE0000FE
FE0000FE
FFFFE0FE
FFFFE000
FFFFE000
FFFFE000
FFFFE000
FFFFE000
FFFFE0FE
FE0000FE
FE0000FE
FE0000FE
FE0000FE
FE0000FE
FFFFFFFE
03FFFF80
03FFFF80
03FFFF80
03FFFF80
03FFFF80
03FFFF80
ENDCHAR
STARTCHAR 03AE
ENCODING 942
SWIDTH 585 0
DWIDTH 39 0
BBX 31 55 4 -13
BITMAP
00038000
00038000
00038000
00038000
00038000
00038000
00038000
00000000
00000000
00000000
00000000
00000000
FFFFFF80
FFFFFF80
FFFFFF80
FFFFFF80
FFFFFF80
FFFFFF80
FFFFFFFE
FE0000FE
FE0000FE
FE0000FE
FE0000FE
FE0000FE
FE0000FE
FE0000FE
FE0000FE
FE0000FE
FE0000FE
FE0000FE
FE0000FE
FE0000FE
FE0000FE
FE0000FE
FE0000FE
FE0000FE
FE0000FE
FE0000FE
FE0000FE
FE0000FE
FE0000FE
FE0000FE
FE0000FE
000000FE
000000FE
000000FE
000000FE
000000FE
000000FE
000000FE
000000FE
000000FE
000000FE
000000FE
000000FE
ENDCHAR
STARTCHAR 03AF
ENCODING 943
SWIDTH 405 0
DWIDTH 27 0
BBX 19 54 4 -1
BITMAP
00E000
00E000
00E000
00E000
00E000
00E000
00E000
000000
000000
000000
000000
FFFFE0
FFFFE0
FFFFE0
FFFFE0
FFFFE0
FFFFE0
FFFFE0
03F800
03F800
03F800
03F800
03F800
03F800
03F800
03F800
03F800
03F800
03F800
03F800
03F800
03F800
03F800
03F800
03F800
03F800
03F800
03F800
03F800
03F800
03F800
03F800
03F800
03F800
03F800
03F800
03F800
FFFFE0
FFFFE0
FFFFE0
FFFFE0
FFFFE0
FFFFE0
FFFFE0
ENDCHAR
STARTCHAR 03B1
ENCODING 945
SWIDTH 585 0
DWIDTH 39 0
BBX 31 35 4 -5
BITMAP
03FFFF80
03FFFF80
03FFFF80
03FFFF80
03FFFF80
03FFFF80
FFFFFFFE
FE0000FE
FE0000FE
FE0000FE
FE0000FE
FE0000FE
FE0000FE
FE0000FE
FE0000FE
FE0000FE
FE0000FE
FE0000FE
FE0000FE
FE0000FE
FE0000FE
FE0000FE
FE0000FE
FE0000FE
FFFFFFFE
03FFFFFE
03FFFFFE
03FFFFFE
03FFFFFE
03FFFFFE
03FFFFFE
000000FE
000000FE
000000FE
000000FE
ENDCHAR
STARTCHAR 03B2
ENCODING 946
SWIDTH 585 0
DWIDTH 39 0
BBX 31 55 4 -13
BITMAP
FFFFFF80
FFFFFF80
FFFFFF80
FFFFFF80
FFFFFF80
FFFFFF80
FFFFFFFE
FE0000FE
FE0000FE
FE0000FE
FE0000FE
FE0000FE
FE0000FE
FE0000FE
FE0000FE
FE0000FE
FE0000FE
FE0000FE
FE0FFFFE
FE0FFF80
FE0FFF80
FE0FFF80
FE0FFF80
FE0FFF80
FE0FFFFE
FE0000FE
FE0000FE
FE0000FE
FE0000FE
FE0000FE
FE0000FE
FE0000FE
FE0000FE
FE0000FE
FE0000FE
FE0000FE
FE0FFFFE
FE0FFF80
FE0FFF80
FE0FFF80
FE0FFF80
FE0FFF80
FE0FFF80
FE000000
FE000000
FE000000
FE000000
FE000000
FE000000
FE000000
FE000000
FE000000
FE000000
FE000000
FE000000
ENDCHAR
STARTCHAR 03B3
ENCODING 947
SWIDTH 570 0
DWIDTH 38 0
BBX 31 31 3 -1
BITMAP
FE00007E
FE00007E
FE00007E
FFF81FFE
03F81F80
03F81F80
03F81F80
03F81F80
03F81F80
03F81F80
03F81F80
03F81F80
03F81F80
03F81F80
03F81F80
03F81F80
000FE000
000FE000
000FE000
000FE000
000FE000
000FE000
000FE000
000FE000
000FE000
000FE000
000FE000
000FE000
000FE000
000FE000
000FE000
ENDCHAR
STARTCHAR 03B4
ENCODING 948
SWIDTH 585 0
DWIDTH 39 0
BBX 31 43 4 -1
BITMAP
00003F80
00003F80
00003F80
00003F80
00003F80
00003F80
000FFF80
000FE000
000FE000
000FE000
000FE000
000FE000
03FFFF80
03FFFF80
03FFFF80
03FFFF80
03FFFF80
03FFFF80
FFFFFFFE
FE0000FE
FE0000FE
FE0000FE
FE0000FE
FE0000FE
FE0000FE
FE0000FE
FE0000FE
FE0000FE
FE0000FE
FE0000FE
FE0000FE
FE0000FE
FE0000FE
FE0000FE
FE0000FE
FE0000FE
FFFFFFFE
03FFFF80
03FFFF80
03FFFF80
03FFFF80
03FFFF80
03FFFF80
ENDCHAR
STARTCHAR 03B5
ENCODING 949
SWIDTH 585 0
DWIDTH 39 0
BBX 31 31 4 -1
BITMAP
03FFFF80
03FFFF80
03FFFF80
03FFFF80
03FFFF80
03FFFF80
FFFFFFFE
FE0000FE
FE0000FE
FE0000FE
FE0000FE
FE0000FE
FFFFE0FE
FFFFE000
FFFFE000
FFFFE000
FFFFE000
FFFFE000
FFFFE0FE
FE0000FE
FE0000FE
FE0000FE
FE0000FE
FE0000FE
FFFFFFFE
03FFFF80
03FFFF80
03FFFF80
03FFFF80
03FFFF80
03FFFF80
ENDCHAR
STARTCHAR 03B6
ENCODING 950
SWIDTH 585 0
DWIDTH 39 0
BBX 31 55 4 -13
BITMAP
03FFFF80
03FFFF80
03FFFF80
03FFFF80
03FFFF80
03FFFF80
03FFFFFE
000000FE
000000FE
000000FE
000000FE
000000FE
000000FE
000000FE
000000FE
000000FE
000000FE
000000FE
03FFFFFE
03FFFF80
03FFFF80
03FFFF80
03FFFF80
03FFFF80
FFFFFF80
FE000000
FE000000
FE000000
FE000000
FE000000
FE0000FE
FE0000FE
FE0000FE
FE0000FE
FE0000FE
FE0000FE
FFFFFFFE
03FFFFFE
03FFFFFE
03FFFFFE
03FFFFFE
03FFFFFE
03FFFFFE
000000FE
000000FE
000000FE
000000FE
000000FE
00003FFE
00003FFE
00003FFE
00003FFE
00003FFE
00003FFE
00003FFE
ENDCHAR
STARTCHAR 03B7
ENCODING 951
SWIDTH 585 0
DWIDTH 39 0
BBX 31 43 4 -13
BITMAP
FFFFFF80
FFFFFF80
FFFFFF80
FFFFFF80
FFFFFF80
FFFFFF80
FFFFFFFE
FE0000FE
FE0000FE
FE0000FE
FE0000FE
FE0000FE
FE0000FE
FE0000FE
FE0000FE
FE0000FE
FE0000FE
FE0000FE
FE0000FE
FE0000FE
FE0000FE
FE0000FE
FE0000FE
FE0000FE
FE0000FE
FE0000FE
FE0000FE
FE0000FE
FE0000FE
FE0000FE
FE0000FE
000000FE
000000FE
000000FE
000000FE
000000FE
000000FE
000000FE
000000FE
000000FE
000000FE
000000FE
000000FE
ENDCHAR
STARTCHAR 03B8
ENCODING 952
SWIDTH 585 0
DWIDTH 39 0
BBX 31 31 4 -1
BITMAP
03FFFF80
03FFFF80
03FFFF80
03FFFF80
03FFFF80
03FFFF80
FFFFFFFE
FE0000FE
FE0000FE
FE0000FE
FE0000FE
FE0000FE
FE0000FE
FE0000FE
FE1FF0FE
FE1FF0FE
FE1FF0FE
FE1FF0FE
FE0000FE
FE0000FE
FE0000FE
FE0000FE
FE0000FE
FE0000FE
FFFFFFFE
03FFFF80
03FFFF80
03FFFF80
03FFFF80
03FFFF80
03FFFF80
ENDCHAR
STARTCHAR 03B9
ENCODING 953
SWIDTH 225 0
DWIDTH 15 0
BBX 7 43 4 -1
BITMAP
FE
FE
FE
FE
FE
FE
FE
00
00
00
00
00
FE
FE
FE
FE
FE
FE
FE
FE
FE
FE
FE
FE
FE
FE
FE
FE
FE
FE
FE
FE
FE
FE
FE
FE
FE
FE
FE
FE
FE
FE
FE
ENDCHAR
STARTCHAR 03BA
ENCODING 954
SWIDTH 585 0
DWIDTH 39 0
BBX 31 43 4 -1
BITMAP
FE000000
FE000000
FE000000
FE000000
FE000000
FE000000
FE000000
FE000000
FE000000
FE000000
FE000000
FE000000
FE0000FE
FE0000FE
FE0000FE
FE0000FE
FE0000FE
FE0000FE
FE0FFFFE
FE0FFF80
FE0FFF80
FE0FFF80
FE0FFF80
FE0FFF80
FFFFFF80
FFF80000
FFF80000
FFF80000
FFF80000
FFF80000
FFFFFF80
FE0FFF80
FE0FFF80
FE0FFF80
FE0FFF80
FE0FFF80
FE0FFFFE
FE0000FE
FE0000FE
FE0000FE
FE0000FE
FE0000FE
FE0000FE
ENDCHAR
STARTCHAR 03BB
ENCODING 955
SWIDTH 585 0
DWIDTH 39 0
BBX 31 43 4 -1
BITMAP
000FE000
000FE000
000FE000
000FE000
000FE000
000FE000
000FE000
000FE000
000FE000
000FE000
000FE000
000FE000
000FE000
000FE000
000FE000
000FE000
000FE000
000FE000
000FE000
000FE000
000FE000
000FE000
000FE000
000FE000
03FFFF80
03F83F80
03F83F80
03F83F80
03F83F80
03F83F80
FFF83FFE
FE0000FE
FE0000FE
FE0000FE
FE0000FE
FE0000FE
FE0000FE
FE0000FE
FE0000FE
FE0000FE
FE0000FE
FE0000FE
FE0000FE
ENDCHAR
STARTCHAR 03BC
ENCODING 956
SWIDTH 765 0
DWIDTH 51 0
BBX 43 43 4 -1
BITMAP
03F80003F800
03F80003F800
03F80003F800
03F80003F800
03F80003F800
03F80003F800
FFFFE0FFFFE0
FE0FE0FE0FE0
FE0FE0FE0FE0
FE0FE0FE0FE0
FE0FE0FE0FE0
FE0FE0FE0FE0
FE0FE0FE0FE0
FE0FE0FE0FE0
FE0FE0FE0FE0
FE0FE0FE0FE0
FE0FE0FE0FE0
FE0FE0FE0FE0
FE0FFFFE0FE0
FE003F800FE0
FE003F800FE0
FE003F800FE0
FE003F800FE0
FE003F800FE0
FE003F800FE0
FE003F800FE0
FE003F800FE0
FE003F800FE0
FE003F800FE0
FE003F800FE0
FE003F800FE0
FE003F800FE0
FE003F800FE0
FE003F800FE0
FE003F800FE0
FE003F800FE0
FE003F800FE0
FE0000000FE0
FE0000000FE0
FE0000000FE0
FE0000000FE0
FE0000000FE0
FE0000000FE0
ENDCHAR
STARTCHAR 03BD
ENCODING 957
SWIDTH 570 0
DWIDTH 38 0
BBX 31 31 3 -1
BITMAP
FE00007E
FE00007E
FE00007E
FE00007E
FE00007E
FE00007E
FE00007E
FE00007E
FE00007E
FE00007E
FE00007E
FE00007E
FFF81FFE
03F81F80
03F81F80
03F81F80
03F81F80
03F81F80
03F81F80
03F81F80
03F81F80
03F81F80
03F81F80
03F81F80
03FFFF80
000FE000
000FE000
000FE000
000FE000
000FE000
000FE000
ENDCHAR
STARTCHAR 03BE
ENCODING 958
SWIDTH 585 0
DWIDTH 39 0
BBX 35 55 0 -13
BITMAP
FFFFFFF800
FFFFFFF800
FFFFFFF800
FFFFFFF800
FFFFFFF800
FFFFFFF800
FFFFFFFFE0
0FE0000FE0
0FE0000FE0
0FE0000FE0
0FE0000FE0
0FE0000FE0
0FE0000FE0
0FE0000000
0FE0000000
0FE0000000
0FE0000000
0FE0000000
0FFFFFF800
003FFFF800
003FFFF800
003FFFF800
003FFFF800
003FFFF800
0FFFFFF800
0FE0000000
0FE0000000
0FE0000000
0FE0000000
0FE0000000
0FE0000FE0
0FE0000FE0
0FE0000FE0
0FE0000FE0
0FE0000FE0
0FE0000FE0
0FFFFFFFE0
003FFFFFE0
003FFFFFE0
003FFFFFE0
003FFFFFE0
003FFFFFE0
003FFFFFE0
0000000FE0
0000000FE0
0000000FE0
0000000FE0
0000000FE0
0000FFFFE0
0000FFFFE0
0000FFFFE0
0000FFFFE0
0000FFFFE0
0000FFFFE0
0000FFFFE0
ENDCHAR
STARTCHAR 03BF
ENCODING 959
SWIDTH 585 0
DWIDTH 39 0
BBX 31 31 4 -1
BITMAP
03FFFF80
03FFFF80
03FFFF80
03FFFF80
03FFFF80
03FFFF80
FFFFFFFE
FE0000FE
FE0000FE
FE0000FE
FE0000FE
FE0000FE
FE0000FE
FE0000FE
FE0000FE
FE0000FE
FE0000FE
FE0000FE
FE0000FE
FE0000FE
FE0000FE
FE0000FE
FE0000FE
FE0000FE
FFFFFFFE
03FFFF80
03FFFF80
03FFFF80
03FFFF80
03FFFF80
03FFFF80
ENDCHAR
STARTCHAR 03C0
ENCODING 960
SWIDTH 945 0
DWIDTH 63 0
BBX 55 31 4 -1
BITMAP
03FFFF83FFFF80
03FFFF83FFFF80
03FFFF83FFFF80
03FFFF83FFFF80
03FFFF83FFFF80
03FFFF83FFFF80
FFFFFFFFFFFFFE
FE0FE0FE0FE0FE
FE0FE0FE0FE0FE
FE0FE0FE0FE0FE
FE0FE0FE0FE0FE
FE0FE0FE0FE0FE
FE0FE0FE0FE0FE
000FE0000FE000
000FE0000FE000
000FE0000FE000
000FE0000FE000
000FE0000FE000
000FE0000FE000
000FE0000FE000
000FE0000FE000
000FE0000FE000
000FE0000FE000
000FE0000FE000
000FE0000FE000
000FE0000FE000
000FE0000FE000
000FE0000FE000
000FE0000FE000
000FE0000FE000
000FE0000FE000
ENDCHAR
STARTCHAR 03C1
ENCODING 961
SWIDTH 585 0
DWIDTH 39 0
BBX 31 43 4 -13
BITMAP
03FFFF80
03FFFF80
03FFFF80
03FFFF80
03FFFF80
03FFFF80
FFFFFFFE
FE0000FE
FE0000FE
FE0000FE
FE0000FE
FE0000FE
FE0000FE
FE0000FE
FE0000FE
FE0000FE
FE0000FE
FE0000FE
FE0000FE
FE0000FE
FE0000FE
FE0000FE
FE0000FE
FE0000FE
FFFFFFFE
FFFFFF80
FFFFFF80
FFFFFF80
FFFFFF80
FFFFFF80
FFFFFF80
FE000000
FE000000
FE000000
FE000000
FE000000
FE000000
FE000000
FE000000
FE000000
FE000000
FE000000
FE000000
ENDCHAR
STARTCHAR 03C3
ENCODING 963
SWIDTH 585 0
DWIDTH 39 0
BBX 35 31 4 -1
BITMAP
03FFFFFFE0
03FFFFFFE0
03FFFFFFE0
03FFFFFFE0
03FFFFFFE0
03FFFFFFE0
FFFFFFFFE0
FE0000FE00
FE0000FE00
FE0000FE00
FE0000FE00
FE0000FE00
FE0000FE00
FE0000FE00
FE0000FE00
FE0000FE00
FE0000FE00
FE0000FE00
FE0000FE00
FE0000FE00
FE0000FE00
FE0000FE00
FE0000FE00
FE0000FE00
FFFFFFFE00
03FFFF8000
03FFFF8000
03FFFF8000
03FFFF8000
03FFFF8000
03FFFF8000
ENDCHAR
STARTCHAR 03C4
ENCODING 964
SWIDTH 585 0
DWIDTH 39 0
BBX 31 31 4 -1
BITMAP
03FFFF80
03FFFF80
03FFFF80
03FFFF80
03FFFF80
03FFFF80
FFFFFFFE
FE0FE0FE
FE0FE0FE
FE0FE0FE
FE0FE0FE
FE0FE0FE
FE0FE0FE
000FE000
000FE000
000FE000
000FE000
000FE000
000FE000
000FE000
000FE000
000FE000
000FE000
000FE000
000FE000
000FE000
000FE000
000FE000
000FE000
000FE000
000FE000
ENDCHAR
STARTCHAR 03C5
ENCODING 965
SWIDTH 585 0
DWIDTH 39 0
BBX 31 45 4 -1
BITMAP
00001E00
00003E00
00007E00
0000FE00
0001FC00
0003F800
0003F000
0003E000
0003C000
00038000
00000000
00000000
00000000
00000000
FE0000FE
FE0000FE
FE0000FE
FE0000FE
FE0000FE
FE0000FE
FE0000FE
FE0000FE
FE0000FE
FE0000FE
FE0000FE
FE0000FE
FE0000FE
FE0000FE
FE0000FE
FE0000FE
FE0000FE
FE0000FE
FE0000FE
FE0000FE
FE0000FE
FE0000FE
FE0000FE
FE0000FE
FFFFFFFE
03FFFF80
03FFFF80
03FFFF80
03FFFF80
03FFFF80
03FFFF80
ENDCHAR
STARTCHAR 03C6
ENCODING 966
SWIDTH 585 0
DWIDTH 39 0
BBX 31 43 4 -1
BITMAP
000FE000
000FE000
000FE000
000FE000
000FE000
000FE000
03FFFF80
03FFFF80
03FFFF80
03FFFF80
03FFFF80
03FFFF80
FFFFFFFE
FE0FE0FE
FE0FE0FE
FE0FE0FE
FE0FE0FE
FE0FE0FE
FE0FE0FE
FE0FE0FE
FE0FE0FE
FE0FE0FE
FE0FE0FE
FE0FE0FE
FE0FE0FE
FE0FE0FE
FE0FE0FE
FE0FE0FE
FE0FE0FE
FE0FE0FE
FFFFFFFE
03FFFF80
03FFFF80
03FFFF80
03FFFF80
03FFFF80
03FFFF80
000FE000
000FE000
000FE000
000FE000
000FE000
000FE000
ENDCHAR
STARTCHAR 03C7
ENCODING 967
SWIDTH 585 0
DWIDTH 39 0
BBX 31 31 4 -1
BITMAP
FE0000FE
FE0000FE
FE0000FE
FE0000FE
FE0000FE
FE0000FE
FFF83FFE
03F83F80
03F83F80
03F83F80
03F83F80
03F83F80
03FFFF80
000FE000
000FE000
000FE000
000FE000
000FE000
03FFFF80
03F83F80
03F83F80
03F83F80
03F83F80
03F83F80
FFF83FFE
FE0000FE
FE0000FE
FE0000FE
FE0000FE
FE0000FE
FE0000FE
ENDCHAR
STARTCHAR 03C8
ENCODING 968
SWIDTH 585 0
DWIDTH 39 0
BBX 31 43 4 -1
BITMAP
000FE000
000FE000
000FE000
000FE000
000FE000
000FE000
FE0FE0FE
FE0FE0FE
FE0FE0FE
FE0FE0FE
FE0FE0FE
FE0FE0FE
FE0FE0FE
FE0FE0FE
FE0FE0FE
FE0FE0FE
FE0FE0FE
FE0FE0FE
FE0FE0FE
FE0FE0FE
FE0FE0FE
FE0FE0FE
FE0FE0FE
FE0FE0FE
FE0FE0FE
FE0FE0FE
FE0FE0FE
FE0FE0FE
FE0FE0FE
FE0FE0FE
FFFFFFFE
03FFFF80
03FFFF80
03FFFF80
03FFFF80
03FFFF80
03FFFF80
000FE000
000FE000
000FE000
000FE000
000FE000
000FE000
ENDCHAR
STARTCHAR 03C9
ENCODING 969
SWIDTH 765 0
DWIDTH 51 0
BBX 43 31 4 -1
BITMAP
FE003F800FE0
FE003F800FE0
FE003F800FE0
FE003F800FE0
FE003F800FE0
FE003F800FE0
FE003F800FE0
FE003F800FE0
FE003F800FE0
FE003F800FE0
FE003F800FE0
FE003F800FE0
FE003F800FE0
FE003F800FE0
FE003F800FE0
FE003F800FE0
FE003F800FE0
FE003F800FE0
FE003F800FE0
FE003F800FE0
FE003F800FE0
FE003F800FE0
FE003F800FE0
FE003F800FE0
FFFFFFFFFFE0
FFFFE0FFF800
FFFFE0FFF800
FFFFE0FFF800
FFFFE0FFF800
FFFFE0FFF800
FFFFE0FFF800
ENDCHAR
STARTCHAR 03CA
ENCODING 970
SWIDTH 405 0
DWIDTH 27 0
BBX 21 55 3 -1
BITMAP
FE03F8
FE03F8
FE03F8
FE03F8
FE03F8
FE03F8
FE03F8
000000
000000
000000
000000
000000
7FFFF0
7FFFF0
7FFFF0
7FFFF0
7FFFF0
7FFFF0
7FFFF0
01FC00
01FC00
01FC00
01FC00
01FC00
01FC00
01FC00
01FC00
01FC00
01FC00
01FC00
01FC00
01FC00
01FC00
01FC00
01FC00
01FC00
01FC00
01FC00
01FC00
01FC00
01FC00
01FC00
01FC00
01FC00
01FC00
01FC00
01FC00
01FC00
7FFFF0
7FFFF0
7FFFF0
7FFFF0
7FFFF0
7FFFF0
7FFFF0
ENDCHAR
STARTCHAR 03CB
ENCODING 971
SWIDTH 585 0
DWIDTH 39 0
BBX 31 54 4 -1
BITMAP
01E00F00
01E00F00
01E00F00
01E00F00
01E00F00
01E00F00
01E00F00
00000000
00000000
00000000
00000000
FE0000FE
FE0000FE
FE0000FE
FE0000FE
FE0000FE
FE0000FE
FE0000FE
FE0000FE
FE0000FE
FE0000FE
FE0000FE
FE0000FE
FFF83FFE
03F83F80
03F83F80
03F83F80
03F83F80
03F83F80
03FFFF80
000FE000
000FE000
000FE000
000FE000
000FE000
000FE000
000FE000
000FE000
000FE000
000FE000
000FE000
000FE000
000FE000
000FE000
000FE000
000FE000
000FE000
000FE000
000FE000
000FE000
000FE000
000FE000
000FE000
000FE000
ENDCHAR
STARTCHAR 03CC
ENCODING 972
SWIDTH 585 0
DWIDTH 39 0
BBX 31 43 4 -1
BITMAP
00038000
00038000
00038000
00038000
00038000
00038000
00038000
00000000
00000000
00000000
00000000
00000000
03FFFF80
03FFFF80
03FFFF80
03FFFF80
03FFFF80
03FFFF80
FFFFFFFE
FE0000FE
FE0000FE
FE0000FE
FE0000FE
FE0000FE
FE0000FE
FE0000FE
FE0000FE
FE0000FE
FE0000FE
FE0000FE
FE0000FE
FE0000FE
FE0000FE
FE0000FE
FE0000FE
FE0000FE
FFFFFFFE
03FFFF80
03FFFF80
03FFFF80
03FFFF80
03FFFF80
03FFFF80
ENDCHAR
STARTCHAR 03CD
ENCODING 973
SWIDTH 585 0
DWIDTH 39 0
BBX 31 43 4 -1
BITMAP
00038000
00038000
00038000
00038000
00038000
00038000
00038000
00000000
00000000
00000000
00000000
00000000
FE0000FE
FE0000FE
FE0000FE
FE0000FE
FE0000FE
FE0000FE
FE0000FE
FE0000FE
FE0000FE
FE0000FE
FE0000FE
FE0000FE
FE0000FE
FE0000FE
FE0000FE
FE0000FE
FE0000FE
FE0000FE
FE0000FE
FE0000FE
FE0000FE
FE0000FE
FE0000FE
FE0000FE
FFFFFFFE
03FFFF80
03FFFF80
03FFFF80
03FFFF80
03FFFF80
03FFFF80
ENDCHAR
STARTCHAR 03CE
ENCODING 974
SWIDTH 765 0
DWIDTH 51 0
BBX 43 43 4 -1
BITMAP
00000E000000
00000E000000
00000E000000
00000E000000
00000E000000
00000E000000
00000E000000
000000000000
000000000000
000000000000
000000000000
000000000000
FE003F800FE0
FE003F800FE0
FE003F800FE0
FE003F800FE0
FE003F800FE0
FE003F800FE0
FE003F800FE0
FE003F800FE0
FE003F800FE0
FE003F800FE0
FE003F800FE0
FE003F800FE0
FE003F800FE0
FE003F800FE0
FE003F800FE0
FE003F800FE0
FE003F800FE0
FE003F800FE0
FE003F800FE0
FE003F800FE0
FE003F800FE0
FE003F800FE0
FE003F800FE0
FE003F800FE0
FFFFFFFFFFE0
FFFFE0FFF800
FFFFE0FFF800
FFFFE0FFF800
FFFFE0FFF800
FFFFE0FFF800
FFFFE0FFF800
ENDCHAR
STARTCHAR 0401
ENCODING 1025
SWIDTH 585 0
DWIDTH 39 0
BBX 31 53 4 -1
BITMAP
01E00F00
01E00F00
01E00F00
01E00F00
01E00F00
01E00F00
01E00F00
00000000
00000000
00000000
03FFFF80
03FFFF80
03FFFF80
03FFFF80
03FFFF80
03FFFF80
FFFFFFFE
FE0000FE
FE0000FE
FE0000FE
FE0000FE
FE0000FE
FE0000FE
FE000000
FE000000
FE000000
FE000000
FE000000
FFFFE000
FFFFE000
FFFFE000
FFFFE000
FFFFE000
FFFFE000
FFFFE000
FE000000
FE000000
FE000000
FE000000
FE000000
FE0000FE
FE0000FE
FE0000FE
FE0000FE
FE0000FE
FE0000FE
FFFFFFFE
03FFFF80
03FFFF80
03FFFF80
03FFFF80
03FFFF80
03FFFF80
ENDCHAR
STARTCHAR 0402
ENCODING 1026
SWIDTH 585 0
DWIDTH 39 0
BBX 38 43 -3 -1
BITMAP
FFFFF00000
FFFFF00000
FFFFF00000
FFFFF00000
FFFFF00000
FFFFF00000
FFFFF00000
01FC000000
01FC000000
01FC000000
01FC000000
01FC000000
01FFFFFF00
01FFFFFF00
01FFFFFF00
01FFFFFF00
01FFFFFF00
01FFFFFF00
01FFFFFFFC
01FC0001FC
01FC0001FC
01FC0001FC
01FC0001FC
01FC0001FC
01FC0001FC
01FC0001FC
01FC0001FC
01FC0001FC
01FC0001FC
01FC0001FC
01FC0001FC
01FC0001FC
01FC0001FC
01FC0001FC
01FC0001FC
01FC0001FC
01FFFFFFFC
0007FFFF00
0007FFFF00
0007FFFF00
0007FFFF00
0007FFFF00
0007FFFF00
ENDCHAR
STARTCHAR 0403
ENCODING 1027
SWIDTH 495 0
DWIDTH 33 0
BBX 25 43 4 -1
BITMAP
FFFFFF80
FFFFFF80
FFFFFF80
FFFFFF80
FFFFFF80
FFFFFF80
FFFFFF80
FE000000
FE000000
FE000000
FE000000
FE000000
FE000000
FE000000
FE000000
FE000000
FE000000
FE000000
FE000000
FE000000
FE000000
FE000000
FE000000
FE000000
FE000000
FE000000
FE000000
FE000000
FE000000
FE000000
FE000000
FE000000
FE000000
FE000000
FE000000
FE000000
FE000000
FE000000
FE000000
FE000000
FE000000
FE000000
FE000000
ENDCHAR
STARTCHAR 0404
ENCODING 1028
SWIDTH 585 0
DWIDTH 39 0
BBX 31 43 4 -1
BITMAP
03FFFF80
03FFFF80
03FFFF80
03FFFF80
03FFFF80
03FFFF80
FFFFFFFE
FE0000FE
FE0000FE
FE0000FE
FE0000FE
FE0000FE
FE0000FE
FE000000
FE000000
FE000000
FE000000
FE000000
FFFFFF80
03FFFF80
03FFFF80
03FFFF80
03FFFF80
03FFFF80
FFFFFF80
FE000000
FE000000
FE000000
FE000000
FE000000
FE0000FE
FE0000FE
FE0000FE
FE0000FE
FE0000FE
FE0000FE
FFFFFFFE
03FFFF80
03FFFF80
03FFFF80
03FFFF80
03FFFF80
03FFFF80
ENDCHAR
STARTCHAR 0405
ENCODING 1029
SWIDTH 585 0
DWIDTH 39 0
BBX 31 31 4 -1
BITMAP
03FFFFFE
03FFFFFE
03FFFFFE
03FFFFFE
03FFFFFE
03FFFFFE
FFFFFFFE
FE000000
FE000000
FE000000
FE000000
FE000000
FFFFFF80
03FFFF80
03FFFF80
03FFFF80
03FFFF80
03FFFF80
03FFFFFE
000000FE
000000FE
000000FE
000000FE
000000FE
FFFFFFFE
FFFFFF80
FFFFFF80
FFFFFF80
FFFFFF80
FFFFFF80
FFFFFF80
ENDCHAR
STARTCHAR 0407
ENCODING 1031
SWIDTH 285 0
DWIDTH 19 0
BBX 21 43 -1 -1
BITMAP
FC03F8
FC03F8
FC03F8
FC03F8
FC03F8
FC03F8
FC03F8
000000
000000
000000
000000
000000
01FC00
01FC00
01FC00
01FC00
01FC00
01FC00
01FC00
01FC00
01FC00
01FC00
01FC00
01FC00
01FC00
01FC00
01FC00
01FC00
01FC00
01FC00
01FC00
01FC00
01FC00
01FC00
01FC00
01FC00
01FC00
01FC00
01FC00
01FC00
01FC00
01FC00
01FC00
ENDCHAR
STARTCHAR 0408
ENCODING 1032
SWIDTH 585 0
DWIDTH 39 0
BBX 31 43 4 -1
BITMAP
03FFFF80
03FFFF80
03FFFF80
03FFFF80
03FFFF80
03FFFF80
03FFFFFE
000000FE
000000FE
000000FE
000000FE
000000FE
000000FE
000000FE
000000FE
000000FE
000000FE
000000FE
000000FE
000000FE
000000FE
000000FE
000000FE
000000FE
FE0000FE
FE0000FE
FE0000FE
FE0000FE
FE0000FE
FE0000FE
FE0000FE
FE0000FE
FE0000FE
FE0000FE
FE0000FE
FE0000FE
FFFFFFFE
03FFFF80
03FFFF80
03FFFF80
03FFFF80
03FFFF80
03FFFF80
ENDCHAR
STARTCHAR 0409
ENCODING 1033
SWIDTH 675 0
DWIDTH 45 0
BBX 37 43 4 -1
BITMAP
03FFFFFFF8
03FFFFFFF8
03FFFFFFF8
03FFFFFFF8
03FFFFFFF8
03FFFFFFF8
03FFFFFFF8
03F80003F8
03F80003F8
03F80003F8
03F80003F8
03F80003F8
03F80003F8
03F80003F8
03F80003F8
03F80003F8
03F80003F8
03F80003F8
03F80003F8
03F80003F8
03F80003F8
03F80003F8
03F80003F8
03F80003F8
03F80003F8
03F80003F8
03F80003F8
03F80003F8
03F80003F8
03F80003F8
03F80003F8
03F80003F8
03F80003F8
03F80003F8
03F80003F8
03F80003F8
FFF80003F8
FFF80003F8
FFF80003F8
FFF80003F8
FFF80003F8
FFF80003F8
FFF80003F8
ENDCHAR
STARTCHAR 040A
ENCODING 1034
SWIDTH 945 0
DWIDTH 63 0
BBX 55 43 4 -1
BITMAP
FE0000FE000000
FE0000FE000000
FE0000FE000000
FE0000FE000000
FE0000FE000000
FE0000FE000000
FE0000FE000000
FE0000FE000000
FE0000FE000000
FE0000FE000000
FE0000FE000000
FE0000FE000000
FE0000FFFFFF80
FE0000FFFFFF80
FE0000FFFFFF80
FE0000FFFFFF80
FE0000FFFFFF80
FE0000FFFFFF80
FFFFFFFFFFFFFE
FFFFFFFE0000FE
FFFFFFFE0000FE
FFFFFFFE0000FE
FFFFFFFE0000FE
FFFFFFFE0000FE
FFFFFFFE0000FE
FE0000FE0000FE
FE0000FE0000FE
FE0000FE0000FE
FE0000FE0000FE
FE0000FE0000FE
FE0000FE0000FE
FE0000FE0000FE
FE0000FE0000FE
FE0000FE0000FE
FE0000FE0000FE
FE0000FE0000FE
FE0000FFFFFFFE
FE0000FFFFFF80
FE0000FFFFFF80
FE0000FFFFFF80
FE0000FFFFFF80
FE0000FFFFFF80
FE0000FFFFFF80
ENDCHAR
STARTCHAR 040B
ENCODING 1035
SWIDTH 585 0
DWIDTH 39 0
BBX 38 43 -3 -1
BITMAP
FFFFF00000
FFFFF00000
FFFFF00000
FFFFF00000
FFFFF00000
FFFFF00000
FFFFF00000
01FC000000
01FC000000
01FC000000
01FC000000
01FC000000
01FC1FFF00
01FC1FFF00
01FC1FFF00
01FC1FFF00
01FC1FFF00
01FC1FFF00
01FFFFFFFC
01FFF001FC
01FFF001FC
01FFF001FC
01FFF001FC
01FFF001FC
01FFF001FC
01FC0001FC
01FC0001FC
01FC0001FC
01FC0001FC
01FC0001FC
01FC0001FC
01FC0001FC
01FC0001FC
01FC0001FC
01FC0001FC
01FC0001FC
01FC0001FC
01FC0001FC
01FC0001FC
01FC0001FC
01FC0001FC
01FC0001FC
01FC0001FC
ENDCHAR
STARTCHAR 040C
ENCODING 1036
SWIDTH 585 0
DWIDTH 39 0
BBX 31 43 4 -1
BITMAP
03F800FE
03F800FE
03F800FE
03F800FE
03F800FE
03F800FE
FFF83FFE
FE003F80
FE003F80
FE003F80
FE003F80
FE003F80
FE0FFF80
FE0FE000
FE0FE000
FE0FE000
FE0FE000
FE0FE000
FFFFE000
FFF80000
FFF80000
FFF80000
FFF80000
FFF80000
FFFFE000
FE0FE000
FE0FE000
FE0FE000
FE0FE000
FE0FE000
FE0FFF80
FE003F80
FE003F80
FE003F80
FE003F80
FE003F80
FE003FFE
FE0000FE
FE0000FE
FE0000FE
FE0000FE
FE0000FE
FE0000FE
ENDCHAR
STARTCHAR 040E
ENCODING 1038
SWIDTH 585 0
DWIDTH 39 0
BBX 31 54 4 -1
BITMAP
01E00700
01E00700
01E00700
01FFFF00
01FFFF00
01FFFF00
01FFFF00
00000000
00000000
00000000
00000000
FE0000FE
FE0000FE
FE0000FE
FE0000FE
FE0000FE
FE0000FE
FE0000FE
FE0000FE
FE0000FE
FE0000FE
FE0000FE
FE0000FE
FFF83FFE
03F83F80
03F83F80
03F83F80
03F83F80
03F83F80
03FFFF80
000FE000
000FE000
000FE000
000FE000
000FE000
000FE000
000FE000
000FE000
000FE000
000FE000
000FE000
000FE000
000FE000
000FE000
000FE000
000FE000
000FE000
000FE000
000FE000
000FE000
000FE000
000FE000
000FE000
000FE000
ENDCHAR
STARTCHAR 040F
ENCODING 1039
SWIDTH 585 0
DWIDTH 39 0
BBX 31 49 4 -7
BITMAP
FE0000FE
FE0000FE
FE0000FE
FE0000FE
FE0000FE
FE0000FE
FE0000FE
FE0000FE
FE0000FE
FE0000FE
FE0000FE
FE0000FE
FE0000FE
FE0000FE
FE0000FE
FE0000FE
FE0000FE
FE0000FE
FE0000FE
FE0000FE
FE0000FE
FE0000FE
FE0000FE
FE0000FE
FE0000FE
FE0000FE
FE0000FE
FE0000FE
FE0000FE
FE0000FE
FE0000FE
FE0000FE
FE0000FE
FE0000FE
FE0000FE
FE0000FE
FFFFFFFE
FFFFFFFE
FFFFFFFE
FFFFFFFE
FFFFFFFE
FFFFFFFE
FFFFFFFE
000FE000
000FE000
000FE000
000FE000
000FE000
000FE000
ENDCHAR
STARTCHAR 0410
ENCODING 1040
SWIDTH 585 0
DWIDTH 39 0
BBX 31 43 4 -1
BITMAP
000FE000
000FE000
000FE000
000FE000
000FE000
000FE000
03FFFF80
03F83F80
03F83F80
03F83F80
03F83F80
03F83F80
FFF83FFE
FE0000FE
FE0000FE
FE0000FE
FE0000FE
FE0000FE
FE0000FE
FE0000FE
FE0000FE
FE0000FE
FE0000FE
FE0000FE
FFFFFFFE
FFFFFFFE
FFFFFFFE
FFFFFFFE
FFFFFFFE
FFFFFFFE
FFFFFFFE
FE0000FE
FE0000FE
FE0000FE
FE0000FE
FE0000FE
FE0000FE
FE0000FE
FE0000FE
FE0000FE
FE0000FE
FE0000FE
FE0000FE
ENDCHAR
STARTCHAR 0411
ENCODING 1041
SWIDTH 585 0
DWIDTH 39 0
BBX 31 43 4 -1
BITMAP
FFFFFF80
FFFFFF80
FFFFFF80
FFFFFF80
FFFFFF80
FFFFFF80
FFFFFFFE
FE0000FE
FE0000FE
FE0000FE
FE0000FE
FE0000FE
FE0000FE
FE000000
FE000000
FE000000
FE000000
FE000000
FFFFFF80
FFFFFF80
FFFFFF80
FFFFFF80
FFFFFF80
FFFFFF80
FFFFFFFE
FE0000FE
FE0000FE
FE0000FE
FE0000FE
FE0000FE
FE0000FE
FE0000FE
FE0000FE
FE0000FE
FE0000FE
FE0000FE
FFFFFFFE
03FFFF80
03FFFF80
03FFFF80
03FFFF80
03FFFF80
03FFFF80
ENDCHAR
ENDFONT
